if (_typeface_js && _typeface_js.loadFace) _typeface_js.loadFace({"glyphs":{"0":{"ha":697,"x_min":72,"x_max":701,"o":"m 701 650 q 683 525 701 596 q 633 380 665 454 q 557 235 601 306 q 459 108 513 164 q 346 19 406 53 q 224 -15 286 -15 q 156 -1 185 -15 q 109 39 128 14 q 81 97 90 64 q 72 165 72 129 q 93 286 72 218 q 150 425 114 354 q 235 564 186 496 q 339 685 283 632 q 454 772 394 739 q 572 804 514 804 q 633 792 608 804 q 672 760 657 781 q 694 710 688 739 q 701 650 701 682 m 649 676 q 633 747 649 715 q 574 778 618 778 q 479 740 528 778 q 384 641 431 701 q 296 506 338 581 q 223 358 254 432 q 174 220 192 285 q 156 117 156 156 q 174 43 156 74 q 240 13 192 13 q 336 50 288 13 q 430 147 385 88 q 515 282 475 207 q 585 431 556 357 q 631 569 614 504 q 649 676 649 635 z "},"1":{"ha":525,"x_min":83,"x_max":592,"o":"m 585 768 l 169 7 q 134 -1 158 0 q 97 -3 110 -1 q 91 -1 94 -3 q 85 0 88 0 l 83 8 q 272 343 179 176 q 458 678 364 510 q 350 587 406 629 q 232 507 294 544 l 226 507 l 221 518 l 224 526 q 356 628 294 579 q 478 740 418 678 q 506 768 489 753 q 540 786 522 783 l 583 790 q 592 789 586 792 l 592 782 l 585 768 z "},"2":{"ha":678,"x_min":1,"x_max":699,"o":"m 699 685 q 669 599 699 647 q 592 497 639 550 q 487 389 544 443 q 373 287 429 335 q 269 201 317 239 q 196 140 222 163 q 236 120 210 133 q 292 94 263 107 q 347 71 321 81 q 386 61 374 61 q 441 76 415 61 q 487 110 467 92 q 522 144 507 128 q 543 163 536 160 l 553 154 l 553 149 q 510 100 536 128 q 454 46 485 72 q 392 1 424 19 q 333 -17 361 -17 q 287 -6 318 -17 q 222 19 256 6 q 159 47 189 33 q 117 65 129 60 l 19 -11 l 1 0 q 23 27 3 4 q 67 77 43 50 q 113 126 92 104 q 138 150 135 149 q 153 151 144 151 q 168 149 161 151 q 240 213 196 174 q 331 301 283 253 q 428 401 379 349 q 515 506 476 454 q 577 607 553 558 q 601 696 601 656 q 583 742 601 728 q 535 757 565 757 q 459 736 494 757 q 394 683 424 715 q 341 613 364 651 q 306 542 318 575 l 300 536 l 283 536 l 281 544 q 325 635 297 590 q 390 717 353 681 q 474 777 428 754 q 572 800 519 800 q 662 771 625 800 q 699 685 699 742 z "},"3":{"ha":636,"x_min":14,"x_max":675,"o":"m 675 717 q 642 622 675 664 q 562 548 610 581 q 460 492 514 515 q 367 454 407 468 q 431 448 397 454 q 491 427 464 442 q 536 388 518 413 q 554 326 554 364 q 513 201 554 263 q 408 91 471 139 q 274 14 346 43 q 143 -15 203 -15 q 76 -8 111 -15 q 14 18 42 -1 l 14 25 l 24 33 l 31 36 q 78 21 50 26 q 128 15 106 15 q 240 45 182 15 q 347 122 299 75 q 428 225 396 168 q 460 338 460 282 q 431 402 460 381 q 363 424 403 424 q 314 417 339 424 q 265 404 289 411 l 256 408 l 254 421 l 260 428 q 352 469 297 443 q 458 533 407 496 q 544 614 508 569 q 579 708 579 658 q 565 747 579 735 q 525 758 550 758 q 470 746 497 758 q 418 715 443 733 q 372 675 393 697 q 333 635 350 653 l 326 635 l 317 643 l 317 650 q 368 706 340 679 q 428 755 396 733 q 495 790 460 776 q 569 803 531 803 q 643 783 611 803 q 675 717 675 764 z "},"4":{"ha":644,"x_min":110,"x_max":675,"o":"m 674 781 q 640 731 675 769 q 552 641 606 693 q 435 531 499 589 q 315 421 372 472 q 216 332 258 369 q 163 285 174 294 l 464 290 l 554 465 q 589 488 564 485 q 633 492 614 490 l 642 488 l 643 479 q 630 449 643 476 q 600 390 617 422 q 569 329 583 358 q 550 294 554 300 l 583 294 l 592 289 l 585 274 l 575 267 l 535 265 q 509 214 528 253 q 469 132 490 175 q 428 53 447 89 q 404 11 410 17 q 389 5 401 8 q 361 -2 376 1 q 333 -8 346 -6 q 315 -10 319 -10 l 308 -8 l 308 -3 q 318 19 308 0 q 342 65 328 38 q 373 125 356 93 q 406 185 390 157 q 433 235 421 214 q 447 261 444 256 l 110 253 l 110 264 q 112 269 111 267 q 115 274 113 271 q 222 390 161 332 q 332 504 282 447 q 428 615 381 560 q 519 731 475 671 q 551 764 536 753 q 581 780 565 775 q 615 787 596 785 q 663 794 635 789 l 672 790 l 674 781 l 674 781 z "},"5":{"ha":618,"x_min":-17,"x_max":704,"o":"m 704 800 q 645 725 685 750 q 557 691 606 700 q 456 684 508 682 q 360 689 403 686 l 207 424 q 296 468 246 450 q 393 486 346 486 q 492 457 451 486 q 532 365 532 428 q 511 271 532 318 q 455 181 490 224 q 373 101 419 138 q 276 39 326 65 q 176 -3 226 13 q 82 -18 126 -18 q 31 -15 63 -18 q -17 -1 0 -12 l -17 8 l -8 18 l -3 21 q 40 11 17 14 q 83 8 63 8 q 204 42 142 8 q 319 126 267 75 q 405 240 371 178 q 439 361 439 303 q 415 427 439 404 q 349 450 392 450 q 300 442 324 450 q 253 422 276 433 q 209 397 231 410 q 165 372 188 383 l 157 375 l 157 383 q 176 424 160 393 q 216 497 193 456 q 266 585 239 539 q 317 671 293 631 q 358 738 340 711 q 379 769 375 765 q 453 780 411 782 q 540 775 496 778 q 625 776 583 772 q 699 803 667 779 l 704 800 l 704 800 z "},"6":{"ha":585,"x_min":51,"x_max":601,"o":"m 601 801 q 598 796 599 799 q 594 790 597 793 q 549 749 575 769 q 500 710 522 729 q 321 514 401 619 q 259 426 292 476 q 199 319 226 375 q 152 208 171 264 q 133 103 133 151 q 153 42 133 67 q 210 17 172 17 q 306 56 258 17 q 390 149 353 94 q 449 265 426 204 q 471 369 471 325 q 460 409 471 393 q 424 425 450 425 q 357 401 389 425 q 299 343 325 378 q 253 271 272 308 q 222 204 233 233 l 217 197 l 203 196 l 200 204 q 234 291 210 244 q 292 377 258 338 q 369 442 326 417 q 457 468 411 468 q 531 436 506 468 q 556 358 556 404 q 523 234 556 300 q 439 113 490 168 q 324 21 388 57 q 201 -15 261 -15 q 92 24 132 -15 q 51 133 51 63 q 77 262 51 196 q 146 392 103 328 q 244 519 189 457 q 359 635 300 581 q 476 736 418 690 q 583 815 535 782 l 592 817 l 601 801 l 601 801 z "},"7":{"ha":678,"x_min":14,"x_max":803,"o":"m 800 771 q 666 625 735 696 q 528 482 597 554 q 368 304 444 394 q 217 119 292 214 q 199 97 213 115 q 169 60 185 79 q 140 24 154 40 q 124 7 126 8 q 75 -3 106 -1 q 24 -7 44 -4 l 15 -3 l 14 3 q 44 45 17 13 q 117 124 72 78 q 217 226 161 169 q 333 342 274 283 q 452 457 393 400 q 560 561 511 514 q 645 642 610 608 q 693 688 681 675 q 583 691 638 689 q 472 693 528 693 q 401 678 426 693 q 359 644 375 663 q 333 610 343 625 q 307 593 322 594 l 303 596 l 303 604 q 353 694 331 660 q 403 749 375 729 q 471 777 432 769 q 572 785 510 785 q 671 783 621 785 q 769 775 721 782 q 783 783 774 778 q 797 789 792 789 l 803 781 l 800 771 z "},"8":{"ha":583,"x_min":19,"x_max":640,"o":"m 640 694 q 619 609 640 651 q 565 528 597 567 q 497 455 533 489 q 431 394 461 421 q 453 319 450 353 q 457 239 457 285 q 432 140 457 186 q 367 60 407 94 q 278 5 328 25 q 178 -15 228 -15 q 119 -7 147 -15 q 68 19 90 1 q 33 61 46 36 q 19 119 19 86 q 50 218 19 168 q 124 314 81 268 q 217 398 168 360 q 303 464 267 436 q 279 575 279 518 q 299 662 279 621 q 351 734 318 703 q 426 783 383 765 q 513 801 468 801 q 603 776 565 801 q 640 694 640 751 m 590 696 q 570 753 590 732 q 514 774 550 774 q 458 760 485 774 q 412 726 432 747 q 381 677 392 704 q 369 621 369 650 q 374 572 369 597 q 387 520 379 546 q 403 469 394 494 q 421 424 413 444 q 478 477 449 446 q 533 544 508 508 q 574 618 558 579 q 590 696 590 657 m 368 218 q 349 329 368 269 q 310 438 329 389 q 233 375 274 410 q 160 299 193 340 q 105 212 126 258 q 83 115 83 165 q 108 42 83 69 q 181 14 132 14 q 253 32 219 14 q 313 78 288 50 q 353 144 339 107 q 368 218 368 181 z "},"9":{"ha":604,"x_min":81,"x_max":608,"o":"m 608 633 q 556 439 608 536 q 426 253 504 342 q 260 92 349 165 q 96 -31 171 18 l 88 -31 l 81 -18 l 86 -10 q 352 244 242 100 q 511 576 463 388 q 522 626 518 600 q 525 676 525 651 q 509 744 525 715 q 449 772 493 772 q 351 739 399 772 q 265 656 303 706 q 205 549 228 606 q 182 447 182 493 q 199 392 182 414 q 251 369 215 369 q 317 389 288 369 q 371 438 347 408 q 412 500 394 467 q 442 563 429 533 l 447 567 l 463 565 l 464 558 q 424 474 449 521 q 364 386 399 428 q 288 317 329 344 q 201 289 247 289 q 128 320 153 289 q 103 397 103 351 q 138 526 103 456 q 228 658 174 597 q 347 760 282 719 q 472 801 413 801 q 534 787 508 801 q 576 749 560 772 q 601 695 593 725 q 608 633 608 665 z "},"\u0000":{"ha":0,"x_min":0,"x_max":0,"o":""}," ":{"ha":360,"x_min":0,"x_max":0,"o":""},"!":{"ha":486,"x_min":163,"x_max":750,"o":"m 750 849 q 728 810 747 840 q 678 733 708 779 q 609 629 647 686 q 531 513 571 572 q 451 394 490 453 q 377 285 411 335 q 319 199 343 236 q 285 149 294 163 l 271 150 l 272 160 l 625 832 q 646 852 632 846 q 676 860 660 858 q 710 860 693 861 q 740 860 726 860 l 747 857 l 750 849 m 281 38 q 257 -3 276 14 q 214 -19 238 -19 q 176 -3 190 -19 q 167 38 163 14 q 190 78 169 61 q 233 94 210 94 q 271 78 257 94 q 281 38 285 61 z "},"\"":{"ha":442,"x_min":235,"x_max":463,"o":"m 460 885 q 457 835 463 869 q 443 762 451 800 q 426 688 435 724 q 413 638 417 653 l 399 638 l 388 868 q 397 900 385 888 q 428 913 408 913 q 460 885 456 913 m 308 886 q 306 836 311 871 q 293 763 301 801 q 276 689 285 724 q 263 638 267 654 l 249 638 l 236 867 q 247 899 235 885 q 278 913 260 913 q 308 886 304 913 z "},"#":{"ha":1036,"x_min":35,"x_max":999,"o":"m 960 579 l 753 579 l 638 383 l 861 383 l 821 318 l 597 318 l 404 0 l 331 0 l 521 318 l 329 318 l 136 0 l 63 0 l 254 318 l 35 318 l 76 383 l 293 383 l 410 579 l 174 579 l 214 646 l 450 646 l 642 967 l 718 967 l 524 646 l 718 646 l 911 967 l 986 967 l 793 646 l 999 646 l 960 579 m 485 579 l 367 383 l 561 383 l 678 579 l 485 579 z "},"$":{"ha":624,"x_min":-93,"x_max":660,"o":"m 660 676 q 638 613 660 640 q 583 585 617 585 q 539 603 557 585 q 522 649 521 622 q 540 690 524 674 q 585 707 557 707 q 610 699 596 707 q 628 683 625 692 q 595 742 621 725 q 540 767 569 760 l 378 472 q 441 376 411 428 q 471 267 471 325 q 437 149 471 200 q 351 65 403 99 q 235 15 299 32 q 115 -3 172 -3 l 76 -76 l 29 -85 l 78 0 q 33 10 58 4 q -15 24 8 15 q -60 44 -39 32 q -93 74 -81 57 q -82 92 -92 81 q -68 107 -72 103 l -56 107 q 14 56 -25 75 q 94 29 53 38 l 301 407 q 244 489 271 444 q 218 583 218 533 q 247 680 218 639 q 322 747 276 721 q 419 786 367 774 q 519 799 472 799 l 558 871 l 603 879 l 557 794 q 637 750 614 785 q 660 676 660 715 m 506 772 q 496 773 500 772 q 486 774 492 774 q 422 763 454 774 q 365 731 390 751 q 322 683 339 711 q 306 619 306 654 q 322 558 306 583 q 356 503 338 532 l 506 772 m 383 242 q 366 314 383 279 q 326 378 349 349 l 131 25 q 220 40 175 25 q 301 84 265 56 q 360 153 338 113 q 383 242 383 193 z "},"%":{"ha":863,"x_min":-46,"x_max":861,"o":"m 7 -117 l -44 -117 l -46 -110 q 288 267 129 75 q 607 657 447 460 q 524 594 567 622 q 442 553 482 567 q 367 543 403 539 q 304 576 332 547 q 246 541 276 554 q 183 529 215 528 q 120 553 143 531 q 90 611 97 575 q 89 692 82 647 q 115 783 96 738 q 167 873 136 831 q 233 948 197 915 q 306 999 268 981 q 379 1017 344 1017 q 454 990 431 1015 q 481 926 478 965 q 469 840 483 888 q 433 747 456 793 q 382 662 410 701 q 331 600 354 622 q 370 569 344 574 q 428 574 396 564 q 499 608 461 585 q 574 661 536 631 q 637 721 597 679 q 716 806 676 763 q 787 885 756 850 q 825 924 818 919 q 833 926 826 925 q 845 928 839 928 q 856 926 851 928 q 861 918 861 924 l 7 -117 m 681 446 q 765 408 742 444 q 782 316 788 371 q 747 199 776 261 q 676 83 718 136 q 584 -6 635 29 q 485 -40 533 -42 q 422 -17 444 -39 q 391 41 399 6 q 390 122 383 76 q 417 213 397 167 q 468 303 438 260 q 534 378 499 346 q 608 428 569 410 q 681 446 646 447 m 408 969 q 360 963 386 975 q 307 926 333 951 q 256 865 281 901 q 211 788 231 829 q 179 706 192 744 q 164 638 167 668 q 168 588 161 607 q 194 563 175 568 q 240 565 215 556 q 289 596 264 575 q 268 664 265 632 q 279 706 268 688 q 315 724 290 724 q 345 712 333 724 q 357 682 357 700 q 354 667 357 672 q 378 707 364 681 q 406 765 393 733 q 430 830 419 796 q 443 892 440 864 q 438 942 446 921 q 408 969 431 963 m 725 240 q 740 293 735 267 q 746 341 746 319 q 738 378 746 363 q 711 399 729 393 q 661 394 688 406 q 608 356 635 382 q 557 295 582 331 q 513 218 532 260 q 481 136 493 175 q 465 67 468 97 q 469 17 463 36 q 496 -8 476 -3 q 543 -6 519 -15 q 588 22 567 4 q 626 61 608 40 q 656 97 643 82 q 690 156 671 117 q 725 240 710 196 z "},"&":{"ha":842,"x_min":10,"x_max":1047,"o":"m 1015 583 q 1031 493 1047 536 q 968 417 1014 450 q 856 366 922 385 q 719 349 789 347 q 767 275 757 318 q 763 186 776 232 q 713 96 749 140 q 625 16 678 51 q 506 -41 572 -19 q 363 -62 439 -62 q 159 -21 238 -62 q 45 84 81 21 q 17 223 10 147 q 72 367 24 299 q 206 485 119 435 q 418 549 293 535 q 389 608 399 575 q 379 674 379 642 q 423 804 381 747 q 528 900 465 861 q 663 958 590 939 q 801 976 736 978 q 860 970 831 976 q 913 950 889 964 q 953 913 938 936 q 968 854 968 889 q 944 783 968 814 q 883 751 919 751 q 836 771 856 751 q 818 818 817 790 q 838 864 819 846 q 885 881 857 882 q 913 873 897 881 q 931 856 928 865 q 928 895 935 879 q 907 920 921 911 q 874 934 893 929 q 838 939 856 939 q 710 913 782 940 q 567 825 638 886 q 518 772 543 804 q 476 701 493 739 q 453 625 458 664 q 465 553 449 586 q 518 556 488 553 q 581 556 549 558 q 628 539 611 553 q 645 509 644 525 q 629 481 646 493 q 576 468 613 468 q 494 488 531 468 q 436 529 458 507 q 294 469 354 517 q 199 358 233 422 q 155 224 164 294 q 165 93 146 153 q 233 -6 183 33 q 363 -44 282 -44 q 497 -17 436 -44 q 602 50 558 10 q 671 138 646 90 q 699 226 696 185 q 673 290 700 265 q 604 328 646 315 q 512 340 563 340 q 417 326 461 339 q 340 285 372 313 q 300 219 307 258 q 317 153 294 188 q 392 92 339 119 q 401 83 397 89 q 404 71 404 76 q 401 63 404 65 q 392 63 397 60 q 267 169 300 111 q 251 276 233 226 q 333 360 268 326 q 503 393 397 393 l 749 393 q 795 399 765 393 q 859 415 825 404 q 926 442 893 426 q 982 477 960 457 q 1011 521 1004 497 q 1000 572 1018 544 q 1001 589 993 583 q 1015 583 1008 594 m 579 532 q 526 535 551 535 q 476 533 501 535 q 576 492 510 492 q 613 497 601 492 q 622 510 624 503 q 609 524 621 518 q 579 532 597 531 z "},"'":{"ha":219,"x_min":106,"x_max":261,"o":"m 261 700 q 248 640 261 667 q 214 593 235 613 q 169 560 193 574 q 122 539 144 546 q 107 542 108 535 q 118 554 106 550 q 188 598 157 568 q 225 675 218 628 q 185 661 204 661 q 147 678 161 661 q 138 719 133 696 q 161 760 142 743 q 204 776 181 776 q 248 752 235 776 q 261 700 261 728 z "},"(":{"ha":486,"x_min":26,"x_max":722,"o":"m 689 1049 q 714 1050 706 1053 q 722 1042 722 1047 q 713 1031 721 1038 q 689 1019 704 1024 q 542 960 610 999 q 419 874 475 922 q 320 770 364 825 q 243 660 276 715 q 187 554 210 606 q 151 463 164 503 q 115 271 119 367 q 131 100 110 175 q 202 -18 153 25 q 329 -51 251 -61 q 355 -63 356 -49 q 319 -82 354 -78 q 184 -53 246 -90 q 83 56 122 -17 q 35 229 44 128 q 57 450 26 331 q 134 618 78 526 q 274 795 190 710 q 463 949 357 881 q 689 1049 569 1018 z "},")":{"ha":719,"x_min":18,"x_max":714,"o":"m 683 528 q 608 360 664 451 q 467 183 551 268 q 277 28 383 97 q 51 -71 171 -40 q 26 -72 35 -75 q 19 -65 18 -69 q 28 -53 19 -60 q 53 -42 38 -46 q 199 17 132 -21 q 321 104 265 56 q 420 208 376 153 q 497 317 464 263 q 553 424 531 372 q 589 515 576 475 q 625 707 619 611 q 609 877 631 803 q 538 994 588 951 q 413 1029 489 1038 q 385 1041 385 1026 q 421 1060 386 1056 q 556 1031 494 1068 q 657 922 618 994 q 705 749 696 850 q 683 528 714 647 z "},"*":{"ha":599,"x_min":21,"x_max":568,"o":"m 544 540 q 563 533 558 540 q 564 518 568 526 q 548 503 560 510 q 518 496 536 496 l 335 489 q 371 417 353 453 q 408 343 389 381 q 408 322 413 335 q 395 301 404 310 q 375 293 386 293 q 356 310 364 293 q 327 374 344 335 q 286 465 310 414 l 135 300 q 115 294 128 293 q 94 301 103 294 q 83 319 85 308 q 94 344 81 331 l 233 485 l 50 478 q 33 488 40 478 q 23 509 25 497 q 26 531 21 521 q 51 540 32 540 l 253 540 q 215 624 235 581 q 174 714 196 668 q 170 735 167 728 q 182 744 174 743 q 201 739 190 746 q 221 715 213 732 q 264 631 244 671 q 303 556 283 592 l 464 718 q 482 728 474 729 q 493 718 490 726 q 492 696 496 710 q 474 668 488 682 l 356 540 l 544 540 l 544 540 z "},"+":{"ha":636,"x_min":188,"x_max":664,"o":"m 640 331 q 658 324 651 331 q 664 311 664 318 q 657 299 664 304 q 636 293 650 293 q 546 290 596 293 q 451 285 496 288 q 433 180 443 233 q 419 94 422 126 q 406 81 418 88 q 381 72 394 74 q 358 74 368 69 q 353 94 349 79 q 360 127 356 107 q 372 172 365 147 q 386 226 379 197 q 400 282 393 254 q 347 278 375 279 q 292 275 319 276 q 242 272 265 274 q 204 269 219 271 q 192 278 196 268 q 189 301 188 289 q 198 325 190 314 q 221 336 206 336 q 253 335 232 336 q 301 334 275 335 q 357 333 328 333 q 414 332 386 332 q 424 377 418 351 q 437 431 431 403 q 450 485 443 458 q 463 533 457 513 q 473 553 465 546 q 488 563 481 561 q 500 558 496 564 q 501 539 504 553 q 492 493 497 519 q 481 438 486 467 q 469 381 475 408 q 460 332 464 353 q 548 331 500 331 q 640 331 596 332 z "},",":{"ha":213,"x_min":-3,"x_max":158,"o":"m 158 28 q 144 -35 158 -7 q 108 -84 129 -62 q 61 -120 86 -106 q 14 -142 36 -135 q -1 -139 1 -147 q 11 -126 -3 -131 q 81 -83 50 -114 q 117 -6 111 -53 q 78 -19 99 -19 q 40 -3 54 -19 q 31 38 26 14 q 53 78 33 61 q 97 94 74 94 q 143 75 128 94 q 158 28 158 56 z "},"-":{"ha":564,"x_min":203,"x_max":564,"o":"m 539 293 q 367 285 443 293 q 228 269 290 276 q 214 278 221 268 q 205 301 207 289 q 208 325 203 314 q 228 336 213 336 q 342 335 271 336 q 533 331 413 333 q 553 324 546 331 q 563 311 561 318 q 558 299 564 304 q 539 293 553 293 z "},".":{"ha":289,"x_min":139,"x_max":261,"o":"m 257 38 q 233 -3 253 14 q 190 -19 214 -19 q 153 -3 167 -19 q 143 38 139 14 q 166 78 146 61 q 210 94 186 94 q 247 78 233 94 q 257 38 261 61 z "},"/":{"ha":761,"x_min":17,"x_max":1051,"o":"m 969 1111 q 997 1129 981 1125 q 1028 1131 1014 1133 q 1047 1118 1042 1128 q 1039 1094 1051 1108 q 938 974 996 1044 q 813 820 879 903 q 673 647 746 738 q 527 467 600 556 q 384 294 454 378 q 253 142 314 211 q 142 24 192 74 q 61 -46 93 -25 q 25 -53 33 -64 q 38 -24 17 -42 q 128 69 72 7 q 255 217 183 132 q 412 408 326 303 q 589 630 497 514 q 777 868 681 746 q 969 1111 874 990 z "},":":{"ha":356,"x_min":82,"x_max":357,"o":"m 353 349 q 329 308 349 325 q 286 292 310 292 q 249 308 263 292 q 239 349 235 325 q 262 389 242 372 q 306 406 282 406 q 343 389 329 406 q 353 349 357 372 m 200 38 q 177 -3 197 14 q 133 -19 157 -19 q 96 -3 110 -19 q 86 38 82 14 q 110 78 90 61 q 153 94 129 94 q 190 78 176 94 q 200 38 204 61 z "},";":{"ha":354,"x_min":54,"x_max":357,"o":"m 353 349 q 329 308 349 325 q 286 292 310 292 q 249 308 263 292 q 239 349 235 325 q 262 389 242 372 q 306 406 282 406 q 343 389 329 406 q 353 349 357 372 m 210 19 q 197 -42 210 -15 q 163 -88 183 -68 q 117 -122 142 -108 q 71 -142 93 -135 q 56 -139 57 -147 q 67 -126 54 -131 q 136 -83 106 -114 q 174 -6 167 -53 q 133 -19 153 -19 q 96 -3 110 -19 q 86 38 82 14 q 110 78 90 61 q 153 94 129 94 q 197 71 183 94 q 210 19 210 47 z "},"<":{"ha":457,"x_min":156,"x_max":463,"o":"m 463 413 q 422 372 453 397 q 356 319 392 346 q 285 270 319 293 q 238 236 251 247 l 236 47 l 229 33 l 219 29 q 208 33 213 29 q 178 139 189 82 q 156 249 168 196 q 187 268 163 253 q 242 303 211 283 q 309 344 274 322 q 375 385 344 367 q 426 415 406 403 q 451 426 447 426 l 461 422 l 463 413 l 463 413 z "},"=":{"ha":636,"x_min":204,"x_max":568,"o":"m 568 447 q 560 435 568 438 q 544 432 551 432 q 440 429 492 432 q 335 421 388 426 q 281 413 307 418 q 228 408 256 408 q 210 424 215 408 q 204 449 204 439 q 210 467 204 460 q 228 475 217 475 l 432 475 q 461 475 439 475 q 507 472 483 475 q 549 464 531 469 q 568 447 568 458 m 568 308 q 560 296 568 299 q 544 293 551 293 q 440 290 492 293 q 335 282 388 288 q 281 274 307 279 q 228 269 256 269 q 210 285 215 269 q 204 310 204 300 q 210 328 204 321 q 228 336 217 336 l 432 336 q 461 336 439 336 q 507 333 483 336 q 549 325 531 331 q 568 308 568 319 z "},">":{"ha":457,"x_min":38,"x_max":344,"o":"m 60 31 l 50 29 q 39 32 44 29 l 38 38 q 53 60 38 44 q 94 97 69 76 q 148 138 119 117 q 201 177 176 160 q 244 206 226 194 q 263 219 261 218 l 264 408 q 267 415 267 411 q 271 421 268 418 l 282 426 l 294 421 q 324 316 314 372 q 344 208 333 260 l 60 31 z "},"?":{"ha":531,"x_min":163,"x_max":683,"o":"m 589 617 q 500 524 544 565 q 415 438 456 482 q 340 344 375 394 q 278 222 304 293 q 260 214 272 210 q 251 232 249 218 q 294 338 264 283 q 365 445 325 392 q 448 551 404 499 q 531 651 492 603 q 579 751 576 710 q 557 815 582 793 q 486 839 532 838 q 390 815 440 840 q 333 772 358 800 q 313 719 308 744 q 331 748 317 736 q 361 769 344 760 q 413 779 392 786 q 444 754 435 772 q 447 711 453 736 q 417 668 440 686 q 361 646 389 647 q 314 659 333 644 q 288 701 294 674 q 297 765 282 729 q 341 818 311 796 q 399 857 371 840 q 495 894 447 885 q 582 898 543 904 q 647 869 621 892 q 678 811 674 847 q 663 726 683 775 q 589 617 643 678 m 281 38 q 257 -3 276 14 q 214 -19 238 -19 q 176 -3 190 -19 q 167 38 163 14 q 190 78 169 61 q 233 94 210 94 q 271 78 257 94 q 281 38 285 61 z "},"@":{"ha":1328,"x_min":97,"x_max":1314,"o":"m 1308 614 q 1297 476 1314 543 q 1246 347 1279 408 q 1166 231 1213 285 q 1068 136 1119 178 q 1021 108 1049 121 q 962 84 993 94 q 899 68 931 74 q 843 63 868 63 q 794 69 821 61 q 747 100 767 76 q 720 166 726 124 q 733 278 714 208 q 679 197 713 243 q 607 114 646 151 q 514 56 557 65 q 441 69 471 47 q 398 138 411 90 q 394 249 385 185 q 437 388 403 313 q 538 543 471 464 q 631 624 576 590 q 742 672 685 658 q 852 675 799 685 q 943 624 906 665 q 953 587 961 604 q 925 574 946 569 q 867 633 910 622 q 775 617 824 644 q 715 574 746 600 q 653 515 683 547 q 594 444 622 482 q 543 368 567 407 q 527 339 538 358 q 505 294 517 319 q 484 242 493 269 q 471 190 475 215 q 477 124 464 144 q 514 103 490 103 q 569 123 538 103 q 632 179 601 143 q 717 297 679 235 q 788 424 754 360 q 841 510 817 481 q 907 538 865 540 q 942 531 924 536 q 981 529 961 526 q 942 478 967 515 q 893 392 918 440 q 847 293 868 344 q 818 203 826 242 q 818 134 810 158 q 847 100 826 110 q 896 93 868 90 q 954 106 924 96 q 1013 132 985 117 q 1061 164 1040 147 q 1144 253 1107 201 q 1208 363 1182 304 q 1245 485 1233 422 q 1253 611 1257 549 q 1210 752 1246 694 q 1120 846 1175 810 q 996 898 1065 882 q 854 914 926 914 q 671 886 760 914 q 503 809 582 858 q 361 691 425 760 q 253 541 297 622 q 187 368 208 460 q 174 182 165 276 q 223 22 181 89 q 329 -90 265 -46 q 473 -154 393 -133 q 636 -175 553 -175 q 863 -137 754 -175 q 1065 -37 972 -100 q 1078 -33 1071 -32 q 1088 -38 1085 -33 q 1090 -49 1090 -43 q 1081 -60 1089 -56 q 867 -166 981 -126 q 626 -206 753 -206 q 440 -183 531 -206 q 278 -111 350 -160 q 160 14 207 -62 q 106 199 114 90 q 123 393 97 299 q 199 570 149 488 q 322 722 250 653 q 480 840 394 790 q 660 916 565 889 q 851 943 754 943 q 1009 925 931 943 q 1152 867 1088 907 q 1259 765 1217 828 q 1308 614 1301 703 z "},"A":{"ha":989,"x_min":25,"x_max":1194,"o":"m 1194 897 q 1172 815 1194 860 q 1099 731 1150 771 q 966 662 1049 692 q 763 621 883 632 q 543 615 644 610 q 343 653 442 621 q 297 585 324 626 q 242 497 271 544 q 187 399 214 450 q 142 303 160 349 q 99 91 89 169 q 160 -12 108 13 q 297 -9 213 -37 q 476 99 381 19 q 583 199 531 144 q 684 312 636 254 q 772 427 732 369 q 840 536 813 485 q 900 610 872 596 q 942 610 928 624 q 953 563 957 596 q 919 497 950 531 q 862 421 890 464 q 809 329 833 378 q 766 228 785 281 q 738 125 747 176 q 735 -3 721 38 q 782 -46 750 -43 q 857 -19 814 -49 q 942 61 900 10 q 1006 154 974 103 q 1063 258 1039 206 q 1085 278 1072 278 q 1086 253 1097 278 q 1063 204 1076 232 q 1031 147 1049 176 q 995 86 1014 117 q 957 31 976 56 q 916 -15 939 7 q 867 -53 893 -36 q 811 -79 840 -69 q 753 -89 782 -89 q 690 -68 714 -89 q 656 -15 667 -47 q 643 58 644 18 q 649 138 642 99 q 668 212 656 178 q 696 267 681 246 q 628 191 668 233 q 541 106 588 149 q 442 26 494 64 q 335 -35 389 -11 q 228 -64 282 -58 q 125 -49 174 -69 q 50 26 75 -28 q 26 156 25 81 q 52 321 26 231 q 131 506 78 411 q 187 597 157 553 q 253 682 217 642 q 176 725 211 701 q 114 778 140 749 q 91 818 99 794 q 82 865 83 842 q 85 907 81 888 q 101 935 90 926 q 126 942 114 951 q 126 908 138 933 q 122 851 113 876 q 156 799 132 826 q 278 711 200 747 q 419 849 343 783 q 581 965 496 915 q 760 1044 667 1015 q 956 1074 854 1074 q 1131 1024 1068 1074 q 1194 897 1194 975 m 1138 914 q 1087 1007 1138 976 q 960 1038 1036 1038 q 779 1008 863 1038 q 624 928 696 978 q 488 815 551 879 q 365 681 424 750 q 538 649 446 654 q 763 654 631 643 q 918 683 849 661 q 1036 740 988 706 q 1111 818 1085 774 q 1138 914 1138 863 z "},"B":{"ha":1446,"x_min":8,"x_max":1515,"o":"m 1481 678 q 1422 613 1458 640 q 1341 569 1385 586 q 1252 543 1297 551 q 1168 533 1207 535 q 1244 505 1203 522 q 1322 463 1285 488 q 1390 407 1360 439 q 1431 336 1419 375 q 1435 217 1449 272 q 1383 117 1421 163 q 1290 37 1346 71 q 1170 -19 1235 3 q 1038 -49 1106 -40 q 907 -49 969 -57 q 688 -7 775 -32 q 538 47 601 18 q 368 -37 457 -12 q 183 -50 279 -62 q 72 -12 113 -42 q 20 56 32 18 q 22 131 8 93 q 74 194 36 168 q 171 225 111 219 q 308 203 231 231 q 395 160 347 188 q 510 100 443 132 q 636 265 579 167 q 751 475 693 364 q 876 701 810 586 q 1032 914 943 815 l 1111 1004 q 858 1022 994 1024 q 579 989 721 1019 q 409 929 483 968 q 283 842 335 890 q 205 742 232 794 q 176 644 178 690 q 198 561 174 597 q 274 510 222 525 q 383 506 335 490 q 463 551 431 522 q 512 613 496 581 q 525 661 528 646 q 530 667 525 664 q 540 669 535 669 q 549 665 544 669 q 554 650 554 661 l 554 649 q 516 558 546 597 q 444 494 486 518 q 354 465 403 471 q 260 476 306 460 q 152 549 189 501 q 113 653 115 596 q 139 772 110 710 q 229 890 168 835 q 383 988 290 946 q 597 1047 475 1029 q 883 1065 743 1068 q 1144 1035 1022 1061 q 1183 1063 1163 1050 q 1221 1082 1203 1075 q 1257 1086 1254 1096 q 1235 1061 1260 1076 q 1209 1040 1221 1051 q 1194 1024 1197 1029 q 1353 966 1283 1000 q 1463 888 1422 932 q 1509 791 1503 844 q 1481 678 1515 738 m 1308 946 q 1247 970 1281 960 q 1178 989 1214 981 q 1038 774 1108 893 q 899 535 968 654 q 760 306 829 415 q 621 122 690 197 q 594 97 607 108 q 568 72 582 85 q 715 22 633 44 q 906 -11 797 0 q 1073 3 996 -19 q 1207 65 1150 25 q 1298 159 1264 106 q 1336 267 1332 213 q 1312 370 1340 321 q 1217 451 1283 419 q 1133 485 1176 471 q 1052 510 1089 499 q 990 532 1015 522 q 958 553 964 542 q 974 576 958 571 q 1018 580 990 581 q 1083 576 1046 579 q 1160 572 1119 572 q 1249 592 1203 572 q 1332 644 1294 613 q 1394 715 1369 675 q 1422 797 1419 756 q 1398 876 1424 838 q 1308 946 1372 915 m 479 74 q 383 121 431 97 q 274 167 336 144 q 183 180 221 185 q 124 156 146 175 q 98 109 103 136 q 105 56 93 82 q 144 10 117 29 q 218 -11 172 -8 q 359 9 294 -14 q 479 74 424 32 z "},"C":{"ha":986,"x_min":81,"x_max":1186,"o":"m 1083 254 q 1040 169 1061 208 q 993 95 1018 131 q 936 28 968 60 q 860 -35 904 -4 q 744 -97 807 -71 q 612 -135 681 -124 q 469 -137 543 -146 q 319 -97 394 -129 q 180 2 232 -60 q 104 141 128 64 q 83 304 81 218 q 106 475 85 390 q 165 638 128 560 q 251 776 203 715 q 238 848 243 808 q 230 929 232 888 q 231 1013 228 971 q 246 1094 235 1056 q 253 1108 247 1103 q 265 1114 260 1114 q 273 1108 269 1114 q 274 1088 276 1101 q 268 951 263 1021 q 285 824 274 881 q 547 1033 397 969 q 863 1078 697 1097 q 1032 1029 964 1067 q 1136 940 1100 992 q 1179 825 1172 888 q 1166 701 1186 763 q 1101 583 1146 639 q 988 489 1056 528 q 831 433 919 450 q 635 432 742 417 q 435 501 526 447 q 290 668 344 556 q 254 598 278 651 q 210 472 231 544 q 178 316 189 400 q 181 156 167 232 q 239 18 194 79 q 374 -71 283 -43 q 610 -90 486 -104 q 839 -12 735 -75 q 917 44 885 14 q 976 110 950 75 q 1024 184 1003 144 q 1067 268 1044 224 q 1085 281 1075 286 q 1083 254 1094 275 m 875 1025 q 720 1018 797 1036 q 571 958 643 1000 q 434 854 499 917 q 318 713 369 792 q 453 535 365 593 q 656 465 542 478 q 874 483 781 451 q 1025 573 967 515 q 1106 703 1083 631 q 1110 842 1128 775 q 1035 959 1093 908 q 875 1025 976 1010 z "},"D":{"ha":1408,"x_min":-1,"x_max":1431,"o":"m 1421 332 q 1363 159 1411 235 q 1243 33 1315 83 q 1081 -38 1171 -17 q 897 -49 990 -60 q 774 -29 829 -40 q 674 -6 719 -18 q 592 21 629 7 q 521 50 554 35 q 359 -37 444 -12 q 174 -50 274 -62 q 63 -12 103 -42 q 10 54 22 17 q 13 130 -1 92 q 64 193 26 168 q 161 224 101 218 q 299 203 221 229 q 347 182 318 196 q 407 153 376 168 q 465 123 438 138 q 510 100 493 108 q 648 277 586 174 q 769 493 710 381 q 892 717 828 606 q 1038 921 956 829 q 813 1005 935 983 q 560 999 690 1026 q 390 938 464 978 q 267 849 317 899 q 190 747 217 800 q 163 647 164 694 q 188 562 163 599 q 264 510 213 525 q 372 505 325 490 q 450 548 418 519 q 498 610 482 576 q 515 661 514 643 q 531 670 517 672 q 543 649 546 668 q 506 558 536 597 q 435 494 476 518 q 344 465 393 471 q 250 476 296 460 q 151 542 189 497 q 102 644 113 588 q 113 763 92 700 q 192 881 133 825 q 347 982 250 938 q 588 1047 444 1026 q 842 1044 717 1067 q 1076 964 968 1022 l 1111 1004 q 1135 1024 1119 1013 q 1169 1048 1151 1036 q 1203 1069 1188 1060 q 1228 1082 1219 1079 q 1264 1086 1261 1096 q 1242 1061 1267 1076 q 1216 1040 1228 1051 q 1201 1024 1204 1028 q 1169 978 1186 1001 q 1136 929 1153 954 q 1264 820 1207 882 q 1359 683 1321 758 q 1414 519 1397 607 q 1421 332 1431 431 m 1333 329 q 1329 493 1342 414 q 1286 642 1317 572 q 1208 771 1256 711 q 1103 876 1161 831 q 978 674 1042 781 q 851 467 915 568 q 726 276 788 365 q 607 125 664 186 q 581 98 593 110 q 554 75 568 86 q 701 23 619 46 q 896 -11 783 0 q 1063 6 986 -19 q 1197 78 1139 31 q 1290 192 1254 126 q 1333 329 1325 257 m 474 72 q 375 120 424 96 q 264 167 326 144 q 178 178 214 185 q 122 153 143 172 q 97 107 101 135 q 103 54 92 79 q 140 10 114 29 q 208 -11 165 -10 q 349 8 283 -14 q 474 72 415 31 z "},"E":{"ha":1132,"x_min":28,"x_max":1211,"o":"m 1101 357 q 1153 309 1139 338 q 1161 247 1168 281 q 1126 178 1154 214 q 1053 106 1099 142 q 933 31 1001 65 q 785 -26 864 -3 q 622 -63 707 -50 q 450 -76 536 -76 q 218 -39 310 -76 q 80 58 126 -1 q 31 191 33 118 q 65 335 28 264 q 180 465 103 406 q 371 560 257 525 q 511 583 444 581 q 451 610 482 593 q 396 650 421 628 q 356 699 371 672 q 344 757 342 726 q 385 868 350 817 q 473 961 419 919 q 594 1034 526 1003 q 731 1085 661 1065 q 869 1113 801 1106 q 993 1114 938 1119 q 1123 1079 1074 1104 q 1192 1022 1172 1054 q 1205 951 1211 989 q 1168 877 1199 913 q 1085 813 1138 842 q 964 768 1033 783 q 922 763 935 761 q 909 771 908 765 q 923 783 910 776 q 960 793 936 790 q 1024 817 992 796 q 1080 867 1056 838 q 1117 932 1104 897 q 1122 997 1129 967 q 1083 1051 1114 1028 q 988 1081 1051 1074 q 816 1069 906 1089 q 649 1010 726 1050 q 517 915 572 971 q 450 792 463 858 q 460 705 440 738 q 513 653 479 672 q 590 624 547 633 q 667 604 632 614 q 725 582 703 594 q 742 544 747 569 q 702 522 735 524 q 619 521 669 519 q 506 521 568 522 q 376 501 443 519 q 249 433 304 482 q 162 324 193 385 q 128 197 131 263 q 158 78 125 132 q 264 -11 192 24 q 456 -46 336 -46 q 614 -29 536 -46 q 761 14 692 -12 q 891 74 831 40 q 996 143 951 108 q 1062 206 1035 174 q 1101 265 1089 238 q 1107 312 1113 292 q 1072 339 1101 332 q 1044 351 1049 344 q 1046 363 1039 358 q 1069 366 1053 367 q 1101 357 1085 365 z "},"F":{"ha":1456,"x_min":57,"x_max":1932,"o":"m 1925 794 q 1908 756 1922 774 q 1869 726 1893 738 q 1815 709 1846 714 q 1749 710 1783 704 q 1633 738 1688 719 q 1535 776 1579 757 q 1463 810 1492 794 q 1424 829 1433 825 q 1363 743 1390 792 q 1313 646 1335 694 q 1272 551 1290 597 q 1239 471 1253 504 q 1308 465 1271 467 q 1380 462 1344 463 q 1447 461 1415 461 q 1500 463 1479 461 q 1535 454 1536 465 q 1503 435 1535 443 q 1449 428 1485 431 q 1371 424 1413 425 q 1289 424 1329 422 q 1222 428 1249 425 q 1169 292 1199 363 q 1099 155 1139 222 q 1008 26 1060 88 q 886 -81 956 -35 q 728 -153 817 -126 q 528 -181 640 -181 q 310 -137 407 -181 q 153 -20 213 -94 q 75 153 93 54 q 94 367 57 253 q 122 421 104 396 q 161 464 140 446 q 203 494 182 482 q 239 511 224 507 q 259 515 256 517 q 258 509 263 514 q 240 495 253 504 q 213 475 228 486 q 184 452 200 465 q 153 420 168 439 q 124 375 138 401 q 106 314 111 349 q 120 133 88 211 q 214 0 153 54 q 355 -83 275 -54 q 511 -115 435 -112 q 726 -78 626 -121 q 908 40 825 -36 q 1056 217 990 115 q 1172 432 1122 318 q 1112 434 1153 432 q 1025 431 1071 436 q 937 409 979 425 q 869 358 894 393 q 849 351 857 342 q 847 371 842 360 q 909 451 871 424 q 993 489 947 479 q 1090 495 1039 499 q 1192 483 1142 492 q 1247 603 1217 543 q 1307 714 1278 664 q 1360 800 1336 764 q 1393 847 1383 836 q 1211 928 1304 892 q 1015 979 1118 964 q 843 977 921 993 q 707 926 765 961 q 611 845 649 892 q 557 753 574 799 q 547 667 540 707 q 586 608 554 628 q 691 578 639 575 q 785 602 743 582 q 851 649 826 622 q 876 692 876 676 q 883 713 876 703 q 895 725 889 722 q 903 722 901 728 q 900 697 906 715 q 847 613 885 647 q 763 562 810 578 q 666 549 717 546 q 574 576 615 553 q 496 665 515 610 q 490 781 476 719 q 549 902 504 843 q 664 1001 593 961 q 830 1052 735 1040 q 1039 1032 925 1064 q 1250 956 1154 1000 q 1411 871 1346 911 q 1427 887 1417 876 q 1452 906 1438 897 q 1485 917 1467 914 q 1528 914 1504 921 q 1547 899 1542 910 q 1553 881 1553 889 q 1546 870 1553 872 q 1528 881 1539 868 q 1482 879 1504 890 q 1444 854 1460 868 q 1507 826 1468 842 q 1592 794 1546 810 q 1688 767 1639 779 q 1779 754 1736 756 q 1854 763 1822 753 q 1900 801 1886 774 q 1924 828 1915 835 q 1925 794 1932 821 z "},"G":{"ha":971,"x_min":-74,"x_max":1114,"o":"m 1069 -156 q 1092 -165 1085 -160 q 1099 -176 1100 -171 q 1088 -183 1097 -182 q 1058 -181 1078 -185 q 999 -169 1035 -175 q 920 -161 963 -164 q 833 -157 878 -158 q 746 -156 788 -156 q 642 -274 701 -219 q 517 -373 583 -329 q 382 -449 451 -417 q 249 -498 313 -481 q 129 -518 185 -515 q 35 -507 74 -521 q -52 -451 -31 -483 q -62 -381 -74 -418 q -8 -307 -50 -344 q 95 -237 33 -269 q 236 -179 157 -204 q 401 -142 315 -154 q 465 -134 428 -137 q 543 -127 503 -131 q 623 -122 583 -124 q 696 -119 663 -119 q 742 -35 721 -76 q 781 47 764 6 q 811 131 797 88 q 836 222 825 174 l 842 246 q 786 199 821 226 q 706 143 751 171 q 608 90 661 115 q 499 49 556 64 q 383 33 442 35 q 267 50 324 31 q 151 131 201 72 q 78 276 101 190 q 66 468 56 361 q 133 693 76 575 q 69 785 93 735 q 42 888 46 835 q 59 994 39 940 q 128 1096 79 1047 q 153 1109 143 1111 q 146 1085 163 1107 q 97 996 111 1042 q 85 905 82 950 q 106 816 88 860 q 156 735 124 772 q 170 762 163 749 q 186 789 178 775 q 319 949 242 879 q 483 1063 396 1018 q 663 1125 571 1107 q 838 1131 754 1143 q 1008 1065 944 1114 q 1093 951 1072 1015 q 1092 817 1114 888 q 1007 686 1071 746 q 838 587 943 626 q 585 546 732 547 q 483 551 535 544 q 385 571 432 558 q 295 601 338 583 q 219 642 253 619 q 160 453 174 543 q 160 290 146 363 q 213 166 174 217 q 314 96 253 115 q 460 86 382 74 q 606 129 538 99 q 724 201 674 160 q 789 276 774 242 q 850 376 819 347 q 905 405 881 404 q 944 385 929 406 q 954 339 958 365 q 890 115 939 224 q 765 -119 842 6 q 933 -131 858 -121 q 1069 -156 1007 -140 m 844 1089 q 695 1078 774 1099 q 541 1012 617 1057 q 397 901 465 967 q 281 754 329 835 q 258 716 269 735 q 238 678 247 697 q 401 603 303 629 q 607 589 500 578 q 810 639 724 601 q 952 728 897 676 q 1029 838 1007 779 q 1038 947 1051 896 q 977 1038 1025 999 q 844 1089 929 1076 m 674 -157 q 542 -165 607 -160 q 418 -179 476 -169 q 293 -211 357 -189 q 174 -262 229 -233 q 76 -323 118 -290 q 15 -385 33 -356 q 8 -437 -3 -414 q 71 -471 19 -460 q 147 -474 101 -478 q 247 -454 193 -469 q 358 -412 300 -439 q 472 -348 415 -385 q 581 -263 529 -311 q 674 -157 633 -215 z "},"H":{"ha":1918,"x_min":-28,"x_max":2135,"o":"m 2115 1042 q 2075 996 2106 1036 q 2003 885 2044 956 q 1916 715 1963 814 q 1828 494 1869 615 q 1853 494 1838 494 q 1885 496 1869 494 q 1916 499 1901 497 q 1939 504 1931 501 q 1963 506 1958 511 q 1950 488 1968 500 q 1884 460 1922 468 q 1815 450 1846 453 q 1797 394 1808 429 q 1772 315 1785 358 q 1747 224 1758 271 q 1729 136 1735 178 q 1726 61 1724 94 q 1743 11 1728 28 q 1777 -5 1757 -4 q 1821 11 1797 -6 q 1872 60 1847 31 q 1917 123 1896 89 q 1958 193 1939 157 q 1994 263 1978 229 q 2016 282 2006 286 q 2015 253 2026 278 q 1967 156 1988 196 q 1927 88 1946 117 q 1889 36 1908 58 q 1846 -8 1869 14 q 1767 -55 1810 -44 q 1689 -46 1725 -65 q 1646 7 1657 -29 q 1637 90 1635 43 q 1651 190 1639 138 q 1680 293 1664 243 q 1711 385 1696 343 q 1735 450 1726 426 q 1653 452 1711 450 q 1524 457 1594 454 q 1382 463 1453 460 q 1264 468 1311 465 q 1156 229 1224 347 q 997 15 1089 111 q 792 -149 906 -82 q 543 -232 678 -215 q 313 -222 424 -247 q 122 -133 201 -196 q 7 28 42 -69 q 6 257 -28 126 q 35 322 14 290 q 83 378 57 354 q 133 418 108 403 q 175 433 158 433 q 193 426 197 433 q 178 414 189 418 q 139 388 161 407 q 96 340 117 368 q 58 274 75 311 q 36 194 42 238 q 46 62 26 119 q 103 -36 65 4 q 195 -102 142 -76 q 306 -140 249 -128 q 422 -151 364 -151 q 529 -139 481 -150 q 784 -40 675 -106 q 972 108 893 25 q 1104 286 1051 192 q 1192 471 1157 381 q 1149 465 1169 471 q 1108 449 1128 458 q 1093 443 1103 446 q 1076 440 1083 440 q 1065 445 1068 440 q 1071 464 1063 450 q 1105 497 1081 479 q 1157 517 1129 514 l 1211 517 q 1268 652 1238 582 q 1328 785 1299 722 q 1380 896 1357 847 q 1414 967 1403 944 q 1274 953 1346 958 q 1133 939 1203 949 q 999 910 1064 929 q 879 858 935 892 q 781 770 824 824 q 714 636 739 717 q 703 530 696 579 q 735 447 710 481 q 801 402 760 414 q 896 410 843 390 q 961 460 935 424 q 1002 538 988 497 q 1021 613 1017 578 q 1018 657 1025 647 q 1013 671 1013 665 q 1018 678 1014 676 q 1027 677 1022 679 q 1036 667 1032 675 q 1051 579 1056 624 q 1024 496 1046 535 q 969 427 1003 457 q 897 383 935 397 q 777 374 835 360 q 678 429 719 389 q 620 530 638 469 q 619 658 603 590 q 692 803 642 746 q 809 897 742 861 q 958 951 876 933 q 1122 978 1039 969 q 1285 990 1204 986 q 1433 1000 1365 993 q 1448 1022 1438 1006 q 1474 1057 1458 1039 q 1506 1090 1489 1075 q 1540 1111 1524 1106 q 1595 1110 1571 1119 q 1619 1072 1619 1101 q 1601 1028 1619 1047 q 1558 997 1583 1010 q 1505 976 1533 983 q 1456 969 1476 969 q 1426 904 1443 943 q 1391 820 1408 865 q 1356 727 1374 775 q 1322 638 1338 679 q 1294 564 1306 596 q 1276 517 1282 532 q 1415 513 1346 517 q 1545 505 1483 510 q 1659 497 1607 500 q 1747 493 1711 493 q 1769 551 1753 508 q 1810 652 1786 594 q 1865 774 1835 710 q 1928 894 1896 839 q 1991 990 1960 950 q 2050 1040 2022 1031 q 2090 1052 2071 1047 q 2122 1058 2110 1057 q 2135 1056 2135 1060 q 2115 1042 2135 1051 m 1554 1071 q 1540 1067 1549 1074 q 1519 1049 1531 1060 q 1498 1026 1508 1039 q 1481 1004 1488 1014 q 1544 1022 1525 1011 q 1568 1044 1564 1033 q 1566 1063 1572 1056 q 1554 1071 1560 1071 z "},"I":{"ha":1267,"x_min":-43,"x_max":1661,"o":"m 1661 1118 q 1652 1082 1661 1097 q 1628 1055 1643 1067 q 1593 1035 1613 1043 q 1554 1021 1574 1028 q 1524 1015 1542 1021 q 1496 1008 1506 1008 q 1424 856 1453 931 q 1371 708 1394 781 q 1325 563 1347 635 q 1274 419 1303 490 q 1208 278 1246 349 q 1115 138 1171 208 q 859 -94 1000 -10 q 567 -203 718 -178 q 295 -208 419 -228 q 90 -130 171 -189 q -17 26 10 -71 q 6 253 -43 122 q 44 319 18 288 q 97 377 69 351 q 152 418 125 403 q 196 435 179 433 q 213 428 218 436 q 197 415 207 421 q 155 388 179 407 q 106 339 131 368 q 61 272 82 310 q 29 192 40 235 q 26 57 11 117 q 80 -46 42 -3 q 174 -117 118 -89 q 292 -160 229 -146 q 420 -173 356 -174 q 540 -158 485 -172 q 728 -85 642 -133 q 886 26 814 -36 q 1016 160 958 89 q 1118 301 1074 231 q 1194 438 1163 372 q 1244 553 1225 503 q 1308 708 1275 635 q 1369 840 1340 781 q 1419 940 1397 899 q 1453 1001 1442 982 q 1251 951 1358 981 q 1046 873 1143 922 q 875 748 949 824 q 776 560 801 672 q 772 469 765 510 q 801 403 779 428 q 859 371 824 378 q 939 381 894 364 q 1022 440 993 403 q 1060 516 1050 478 q 1067 585 1071 554 q 1056 624 1064 615 q 1056 632 1053 626 q 1064 642 1058 638 q 1075 646 1069 646 q 1085 636 1081 646 q 1101 553 1106 597 q 1076 469 1097 510 q 1019 397 1054 429 q 940 349 983 365 q 833 335 885 328 q 743 372 781 342 q 688 450 706 401 q 683 560 669 499 q 749 706 701 642 q 862 819 796 769 q 1008 905 928 869 q 1169 967 1088 940 q 1331 1010 1251 993 q 1475 1038 1410 1026 q 1490 1063 1479 1046 q 1516 1097 1501 1079 q 1548 1131 1531 1115 q 1582 1151 1565 1146 q 1637 1153 1614 1161 q 1661 1118 1660 1146 m 1594 1113 q 1580 1108 1589 1114 q 1560 1090 1571 1101 q 1538 1066 1549 1079 q 1519 1043 1528 1053 q 1585 1065 1565 1053 q 1608 1087 1604 1076 q 1606 1105 1613 1097 q 1594 1113 1600 1113 z "},"J":{"ha":1342,"x_min":-106,"x_max":1764,"o":"m 1764 1075 q 1753 1039 1764 1054 q 1727 1013 1743 1024 q 1692 994 1711 1001 q 1651 981 1672 986 q 1620 975 1639 981 q 1592 969 1601 969 q 1478 729 1524 854 q 1385 472 1432 604 q 1281 201 1339 340 q 1129 -83 1222 61 q 986 -252 1068 -178 q 816 -380 904 -326 q 642 -465 728 -433 q 489 -506 557 -496 q 217 -503 340 -526 q 16 -417 94 -479 q -84 -258 -62 -356 q -51 -29 -106 -160 q -11 36 -37 4 q 44 92 15 68 q 101 132 74 117 q 146 147 129 147 q 162 141 168 149 q 144 128 156 133 q 101 101 126 121 q 51 54 76 82 q 3 -10 25 26 q -31 -90 -18 -47 q -40 -227 -53 -167 q 11 -333 -26 -287 q 104 -408 49 -378 q 223 -454 160 -439 q 351 -472 286 -469 q 472 -461 417 -474 q 696 -369 594 -435 q 881 -217 797 -304 q 1033 -27 965 -129 q 1156 177 1101 75 q 1253 374 1211 279 q 1328 542 1294 469 q 1399 692 1364 622 q 1464 815 1435 761 q 1516 908 1493 869 q 1550 964 1539 946 q 1427 936 1494 954 q 1290 890 1360 918 q 1155 824 1221 861 q 1035 738 1089 786 q 943 633 981 690 q 894 508 906 575 q 895 421 888 460 q 924 358 903 382 q 977 326 944 333 q 1054 336 1010 319 q 1140 392 1110 356 q 1181 467 1169 429 q 1192 537 1193 506 q 1182 576 1190 568 q 1174 588 1174 582 q 1180 598 1175 594 q 1194 599 1185 601 q 1211 588 1203 597 q 1222 503 1228 547 q 1192 420 1215 460 q 1133 349 1169 381 q 1053 303 1096 318 q 947 292 997 283 q 862 329 897 300 q 809 407 826 358 q 801 517 792 456 q 858 662 814 597 q 967 778 903 726 q 1111 867 1032 829 q 1272 931 1190 904 q 1431 975 1353 958 q 1574 1000 1510 992 q 1590 1024 1578 1008 q 1617 1058 1601 1040 q 1651 1091 1633 1076 q 1686 1111 1669 1106 q 1741 1111 1718 1119 q 1764 1075 1764 1103 m 1697 1071 q 1681 1067 1692 1074 q 1660 1049 1671 1060 q 1637 1026 1649 1039 q 1617 1004 1625 1014 q 1683 1024 1663 1013 q 1709 1045 1704 1035 q 1708 1063 1714 1056 q 1697 1071 1703 1071 z "},"K":{"ha":1589,"x_min":-17,"x_max":2261,"o":"m 2251 1133 q 2122 952 2196 1042 q 1966 782 2049 863 q 1795 631 1883 701 q 1622 506 1707 561 q 1461 413 1538 450 q 1325 360 1385 375 q 1321 332 1318 363 q 1334 252 1324 301 q 1363 142 1344 203 q 1408 21 1382 81 q 1514 -138 1453 -81 q 1657 -196 1575 -196 q 1740 -187 1697 -196 q 1822 -160 1783 -178 q 1893 -115 1861 -143 q 1944 -50 1925 -87 q 1955 -35 1949 -40 q 1965 -31 1961 -29 q 1969 -40 1969 -32 q 1963 -61 1969 -47 q 1909 -134 1943 -99 q 1832 -197 1875 -169 q 1742 -240 1789 -224 q 1650 -256 1694 -256 q 1542 -235 1593 -256 q 1449 -181 1492 -215 q 1372 -98 1406 -146 q 1313 4 1338 -50 q 1265 135 1283 68 q 1240 257 1247 201 q 1233 349 1232 313 q 1244 389 1235 385 q 1331 412 1269 388 q 1477 485 1393 436 q 1660 601 1561 533 q 1859 756 1760 669 q 2051 941 1958 842 q 2217 1151 2144 1040 q 2239 1174 2229 1169 q 2255 1175 2249 1179 q 2260 1159 2261 1171 q 2251 1133 2260 1147 m 1540 1111 q 1602 1105 1579 1122 q 1621 1060 1625 1088 q 1578 1006 1617 1033 q 1456 969 1539 978 q 1361 756 1403 875 q 1274 512 1319 638 q 1174 263 1229 386 q 1038 38 1118 140 q 847 -135 958 -64 q 578 -231 735 -207 q 419 -235 499 -242 q 269 -202 340 -228 q 140 -135 199 -176 q 44 -35 81 -93 q -5 97 7 24 q 6 257 -17 169 q 37 324 15 294 q 82 376 58 354 q 128 410 106 397 q 165 424 151 422 q 183 417 182 426 q 175 404 183 408 q 145 384 165 400 q 103 342 125 368 q 61 278 81 315 q 36 194 42 242 q 45 61 26 119 q 102 -40 64 3 q 192 -109 140 -82 q 302 -150 244 -136 q 417 -165 360 -164 q 524 -154 475 -165 q 782 -47 672 -121 q 972 121 892 28 q 1108 316 1053 214 q 1203 507 1163 418 q 1224 556 1210 522 q 1258 632 1239 589 q 1300 724 1278 675 q 1344 819 1322 772 q 1383 904 1365 865 q 1414 967 1401 943 q 1317 957 1368 961 q 1215 947 1267 953 q 1111 933 1163 942 q 1011 911 1060 925 q 842 828 908 882 q 742 712 776 775 q 703 586 707 649 q 720 478 699 524 q 786 413 742 433 q 896 417 831 393 q 956 459 931 429 q 995 526 981 489 q 1013 603 1010 564 q 1011 676 1017 643 q 1019 685 1008 688 q 1036 667 1029 682 q 1046 588 1050 631 q 1023 506 1042 546 q 974 436 1004 467 q 906 392 943 406 q 765 385 828 363 q 664 458 701 407 q 620 581 626 510 q 650 725 614 653 q 769 859 686 797 q 994 953 853 921 q 1110 973 1051 965 q 1225 985 1168 981 q 1335 992 1282 989 q 1433 1000 1388 996 q 1448 1022 1438 1006 q 1474 1057 1458 1039 q 1506 1090 1489 1075 q 1540 1111 1524 1106 m 1542 1021 q 1572 1045 1564 1032 q 1578 1067 1581 1058 q 1563 1076 1575 1075 q 1535 1063 1551 1076 q 1506 1034 1521 1051 q 1481 1004 1492 1017 q 1542 1021 1521 1010 z "},"L":{"ha":989,"x_min":-15,"x_max":1335,"o":"m 1329 1088 q 1315 947 1335 1018 q 1256 808 1296 875 q 1160 682 1217 742 q 1038 575 1104 622 q 897 495 971 528 q 750 450 824 463 q 692 333 719 389 q 628 211 665 278 q 613 188 621 199 q 599 164 606 176 q 709 131 650 151 q 828 85 768 111 q 947 27 889 60 q 1054 -43 1006 -6 q 1135 -129 1104 -82 q 1180 -222 1165 -176 q 1194 -307 1194 -268 q 1181 -368 1193 -346 q 1146 -406 1165 -396 q 1117 -416 1124 -418 q 1110 -406 1110 -414 q 1117 -385 1111 -397 q 1128 -364 1124 -372 q 1140 -312 1136 -346 q 1138 -241 1143 -279 q 1113 -163 1132 -203 q 1060 -93 1094 -124 q 949 -17 1010 -49 q 824 36 889 14 q 691 74 758 58 q 557 101 624 89 q 441 -34 503 25 q 311 -125 379 -93 q 176 -160 239 -160 q 70 -138 114 -161 q 6 -76 26 -115 q -3 6 -15 -37 q 56 91 8 49 q 197 161 104 133 q 279 178 235 172 q 370 187 324 185 q 463 186 417 189 q 546 176 508 183 q 620 303 586 239 q 692 444 654 367 q 516 472 592 442 q 395 551 440 501 q 338 663 350 601 q 354 785 326 725 q 452 894 382 844 q 642 972 522 944 q 676 976 664 978 q 688 969 688 974 q 678 958 689 964 q 644 949 667 951 q 519 899 574 940 q 435 800 465 857 q 403 681 406 743 q 433 570 401 619 q 532 493 464 521 q 711 479 600 465 q 737 541 718 493 q 776 642 756 589 q 829 776 801 703 q 941 998 883 913 q 1053 1128 999 1083 q 1157 1185 1108 1174 q 1243 1185 1206 1196 q 1303 1147 1281 1174 q 1329 1088 1326 1119 m 1272 1057 q 1242 1104 1272 1092 q 1162 1086 1213 1117 q 1042 972 1111 1056 q 892 729 972 888 q 851 653 872 693 q 812 575 833 618 q 769 488 790 532 q 953 564 863 508 q 1115 697 1044 619 q 1229 867 1186 774 q 1272 1057 1272 961 m 503 110 q 358 124 433 125 q 214 104 282 122 q 85 52 131 83 q 28 -10 40 21 q 31 -69 15 -42 q 82 -110 46 -96 q 172 -120 118 -124 q 289 -86 225 -117 q 503 110 404 -31 z "},"M":{"ha":1846,"x_min":21,"x_max":2025,"o":"m 1908 -136 q 1935 -139 1928 -135 q 1938 -148 1942 -143 q 1920 -157 1933 -153 q 1886 -158 1907 -161 q 1825 -148 1865 -157 q 1747 -112 1785 -139 q 1685 -33 1710 -85 q 1668 106 1660 18 q 1697 239 1674 168 q 1751 385 1719 310 q 1818 538 1782 460 q 1888 693 1854 615 q 1924 834 1929 789 q 1876 871 1918 879 q 1761 801 1835 863 q 1594 622 1688 739 q 1540 549 1572 596 q 1469 447 1507 503 q 1393 329 1432 390 q 1320 211 1354 268 q 1260 106 1286 154 q 1221 28 1233 58 q 1175 -34 1201 -18 q 1128 -47 1149 -50 q 1096 -30 1107 -44 q 1094 0 1085 -15 q 1139 81 1103 17 q 1220 249 1175 144 q 1308 494 1265 353 q 1371 807 1350 635 q 1363 907 1379 874 q 1317 942 1347 940 q 1247 918 1288 944 q 1165 840 1207 892 q 1057 699 1104 765 q 970 569 1010 633 q 895 441 931 506 q 824 302 860 376 q 750 142 789 228 q 664 -50 711 56 q 635 -79 656 -69 q 593 -90 614 -89 q 558 -83 572 -92 q 550 -58 544 -75 q 614 55 579 -12 q 683 201 649 122 q 751 367 718 281 q 813 535 785 453 q 860 692 840 618 q 889 824 881 767 q 884 989 903 928 q 823 1076 865 1050 q 720 1099 781 1103 q 592 1067 660 1094 q 453 991 524 1039 q 322 883 383 943 q 210 756 260 824 q 136 618 161 688 q 101 408 92 497 q 152 267 110 319 q 259 199 194 214 q 393 208 324 183 q 476 262 438 225 q 544 344 515 299 q 587 436 572 389 q 597 520 601 483 q 565 578 592 557 q 482 592 538 599 q 463 594 472 590 q 451 602 454 597 q 456 613 449 607 q 489 621 464 618 q 583 608 547 629 q 633 549 619 588 q 640 460 647 511 q 602 358 632 410 q 519 260 572 307 q 392 182 467 213 q 286 163 340 161 q 184 188 232 165 q 98 251 136 210 q 40 350 60 293 q 24 478 21 407 q 63 632 28 549 q 161 797 100 719 q 296 936 222 874 q 451 1043 369 999 q 610 1109 532 1088 q 758 1127 689 1131 q 878 1090 828 1124 q 953 991 928 1057 q 969 821 979 925 q 943 684 963 754 q 897 544 924 614 q 890 500 883 504 q 915 529 897 496 q 971 626 946 583 q 1022 708 996 669 q 1076 783 1047 746 q 1142 865 1104 821 q 1239 945 1182 914 q 1347 976 1296 976 q 1431 940 1399 976 q 1456 814 1464 903 q 1403 553 1443 681 q 1319 294 1363 425 q 1370 371 1340 328 q 1435 463 1400 414 q 1511 566 1471 513 q 1594 672 1551 619 q 1744 833 1675 772 q 1868 919 1814 894 q 1959 938 1922 944 q 2010 897 1996 932 q 2015 803 2025 863 q 1964 664 2004 743 q 1895 520 1933 604 q 1824 347 1857 436 q 1769 169 1790 257 q 1752 12 1749 81 q 1792 -99 1756 -57 q 1908 -136 1828 -140 z "},"N":{"ha":1443,"x_min":-7,"x_max":1651,"o":"m 1650 928 q 1619 790 1649 865 q 1542 626 1589 715 q 1440 437 1496 538 q 1333 224 1385 336 q 1270 38 1286 119 q 1266 -94 1254 -43 q 1316 -162 1278 -146 q 1414 -150 1354 -178 q 1464 -140 1450 -133 q 1472 -162 1478 -147 q 1444 -190 1467 -176 q 1383 -203 1421 -204 q 1199 -104 1240 -196 q 1214 157 1157 -12 q 1253 253 1226 193 q 1315 385 1281 314 q 1388 535 1350 457 q 1457 685 1425 614 q 1512 817 1489 757 q 1540 913 1535 876 q 1534 968 1546 949 q 1498 992 1522 988 q 1440 990 1474 997 q 1371 964 1407 982 q 1215 864 1293 928 q 1063 711 1138 800 q 926 519 989 622 q 808 313 863 415 q 710 115 754 210 q 633 -50 667 21 q 604 -79 625 -69 q 563 -90 583 -89 q 528 -83 542 -90 q 518 -58 514 -75 q 563 17 535 -33 q 625 135 592 68 q 694 283 658 203 q 764 446 731 363 q 825 613 797 529 q 869 769 853 696 q 882 921 890 861 q 845 1014 874 981 q 771 1057 817 1047 q 670 1057 725 1067 q 554 1022 615 1047 q 433 958 493 996 q 258 813 331 894 q 143 647 186 732 q 85 481 100 563 q 85 337 71 400 q 140 235 99 274 q 251 196 182 196 q 385 227 324 196 q 492 306 447 258 q 563 406 538 353 q 588 503 588 460 q 559 574 588 547 q 469 592 531 600 q 455 593 458 590 q 452 600 451 596 q 457 608 453 604 q 467 614 461 613 q 590 608 549 633 q 638 534 632 583 q 619 422 644 485 q 541 302 593 358 q 414 208 489 246 q 247 169 339 169 q 124 201 181 169 q 33 294 67 233 q -4 439 -1 354 q 38 631 -7 524 q 103 746 63 690 q 193 851 143 801 q 301 943 243 901 q 418 1018 358 985 q 540 1071 475 1050 q 669 1099 606 1092 q 790 1095 733 1106 q 888 1053 847 1085 q 949 964 929 1021 q 960 822 969 907 q 915 660 950 742 q 844 499 881 578 q 811 424 817 440 q 811 417 806 408 q 829 447 817 425 q 851 483 842 468 q 935 606 889 542 q 1035 733 982 671 q 1115 825 1074 781 q 1199 907 1157 869 q 1282 974 1240 944 q 1364 1022 1324 1004 q 1464 1054 1413 1044 q 1557 1055 1515 1064 q 1625 1015 1599 1046 q 1650 928 1651 985 z "},"O":{"ha":1008,"x_min":61,"x_max":1264,"o":"m 1256 760 q 1166 646 1217 699 q 1049 551 1115 593 q 1038 479 1046 515 q 1017 403 1029 443 q 956 270 996 338 q 864 143 917 203 q 747 34 811 83 q 613 -46 683 -15 q 469 -83 543 -76 q 321 -67 394 -90 q 218 3 261 -47 q 154 125 175 54 q 138 283 133 196 q 178 460 142 369 q 105 533 133 490 q 71 635 76 576 q 99 815 61 735 q 206 951 136 894 q 366 1039 275 1007 q 553 1075 457 1071 q 741 1053 649 1079 q 905 970 833 1028 q 1018 821 976 913 q 1054 600 1060 729 q 1160 681 1111 638 q 1235 775 1208 724 q 1245 785 1239 782 q 1256 788 1251 789 q 1263 779 1261 786 q 1256 760 1264 772 m 969 556 q 950 790 982 693 q 858 945 918 886 q 719 1029 799 1004 q 556 1049 639 1054 q 392 1012 472 1044 q 253 924 313 979 q 164 792 194 868 q 147 622 133 715 q 203 517 156 557 q 254 608 222 557 q 328 710 286 660 q 419 806 369 761 q 521 878 468 851 q 628 910 574 906 q 735 886 682 915 q 744 870 750 878 q 724 867 738 863 q 634 865 681 881 q 542 817 588 850 q 455 738 497 783 q 377 643 413 692 q 315 548 342 594 q 274 469 288 501 q 419 431 335 439 q 598 436 504 424 q 788 479 692 449 q 969 556 885 510 m 961 507 q 779 431 875 461 q 590 390 683 401 q 408 386 496 379 q 253 421 321 393 q 217 288 228 356 q 213 159 206 219 q 248 51 221 99 q 325 -22 275 3 q 448 -51 386 -53 q 570 -24 510 -50 q 686 47 631 1 q 789 149 742 92 q 874 274 836 207 q 936 408 913 340 q 951 458 944 432 q 961 507 958 483 z "},"P":{"ha":1236,"x_min":-42,"x_max":1492,"o":"m 1339 979 q 1459 867 1426 928 q 1483 746 1492 807 q 1434 626 1475 685 q 1333 518 1393 567 q 1201 433 1274 469 q 1061 379 1129 396 q 890 350 975 358 q 750 346 806 342 q 653 215 704 278 q 542 93 601 151 q 349 -27 453 10 q 133 -50 246 -64 q 22 -12 63 -42 q -30 53 -18 17 q -28 128 -42 90 q 24 192 -14 167 q 120 223 61 217 q 258 203 179 229 q 276 186 281 194 q 254 185 272 178 q 158 200 199 206 q 91 174 117 194 q 56 122 65 153 q 56 63 47 92 q 92 13 65 33 q 168 -11 119 -8 q 339 25 261 -15 q 488 133 417 65 q 613 299 556 200 q 728 508 669 397 q 855 733 788 619 q 1011 947 922 847 q 1048 988 1031 968 q 1085 1025 1065 1007 q 963 1036 1025 1033 q 840 1037 900 1039 q 726 1029 781 1035 q 628 1015 671 1024 q 481 976 563 1003 q 326 908 400 950 q 198 806 253 865 q 131 669 143 747 q 134 601 125 633 q 162 546 143 569 q 208 508 181 522 q 267 493 235 494 q 332 505 300 492 q 392 541 364 518 q 441 595 419 564 q 475 661 463 626 q 486 676 478 676 q 494 660 494 675 q 474 576 494 613 q 419 514 453 539 q 345 476 386 489 q 264 465 304 464 q 184 481 222 467 q 117 522 146 494 q 72 588 89 549 q 58 681 56 628 q 90 793 61 743 q 166 883 119 843 q 271 953 213 924 q 391 1005 329 983 q 513 1040 453 1026 q 622 1061 572 1054 q 869 1081 739 1078 q 1122 1060 999 1085 q 1170 1092 1146 1078 q 1226 1118 1194 1107 q 1263 1122 1260 1132 q 1240 1097 1265 1113 q 1213 1077 1229 1090 q 1178 1046 1196 1064 q 1339 979 1267 1022 m 1307 950 q 1235 986 1275 971 q 1151 1013 1196 1001 q 1051 858 1099 938 q 958 697 1004 778 q 866 534 913 615 q 769 375 819 453 q 886 383 822 372 q 1017 413 950 393 q 1158 474 1092 435 q 1274 560 1224 513 q 1357 661 1325 608 q 1396 766 1389 714 q 1382 866 1403 818 q 1307 950 1361 914 z "},"Q":{"ha":1044,"x_min":39,"x_max":1169,"o":"m 735 886 q 744 870 750 878 q 724 867 738 863 q 605 856 669 883 q 478 769 540 828 q 360 631 415 711 q 267 460 304 550 q 215 281 229 371 q 224 113 201 190 q 300 -14 249 26 q 417 -59 351 -54 q 556 -36 482 -64 q 699 44 629 -8 q 892 252 821 136 q 985 486 963 368 q 982 715 1007 604 q 888 906 957 825 q 705 1026 818 986 q 439 1047 592 1067 q 299 1000 357 1036 q 209 908 242 964 q 169 781 176 853 q 182 629 163 710 q 175 599 188 606 q 149 621 163 593 q 117 776 110 700 q 165 914 124 851 q 276 1019 207 976 q 433 1078 346 1063 q 701 1085 588 1104 q 892 1015 815 1067 q 1013 886 969 964 q 1066 716 1056 808 q 1057 524 1076 624 q 990 328 1038 424 q 870 146 943 232 q 701 -3 797 60 q 553 -70 633 -47 q 399 -85 474 -93 q 261 -35 324 -78 q 164 96 199 8 q 133 299 125 192 q 183 506 142 406 q 289 693 224 607 q 431 835 354 779 q 587 908 507 892 q 735 886 667 925 m 924 -512 q 712 -484 801 -512 q 555 -412 622 -456 q 437 -319 488 -369 q 342 -226 386 -269 q 253 -155 297 -183 q 154 -126 208 -126 q 126 -131 142 -126 q 97 -144 110 -136 q 74 -165 83 -153 q 63 -192 64 -176 q 49 -208 60 -212 q 40 -183 39 -204 q 51 -152 42 -169 q 75 -120 60 -135 q 110 -95 90 -106 q 154 -85 131 -85 q 268 -108 215 -85 q 372 -167 321 -131 q 476 -247 422 -203 q 594 -335 529 -292 q 739 -415 658 -378 q 924 -471 819 -451 q 1044 -473 999 -486 q 1110 -431 1090 -460 q 1124 -362 1129 -401 q 1090 -285 1118 -322 q 1014 -217 1063 -247 q 899 -176 965 -187 q 882 -170 888 -175 q 876 -160 876 -165 q 880 -152 875 -156 q 894 -150 885 -149 q 1033 -194 975 -162 q 1124 -267 1092 -226 q 1163 -351 1157 -307 q 1146 -430 1169 -394 q 1067 -489 1122 -465 q 924 -512 1013 -512 z "},"R":{"ha":1422,"x_min":19,"x_max":1550,"o":"m 1522 260 q 1501 213 1515 244 q 1467 145 1486 182 q 1425 73 1447 108 q 1381 13 1403 38 q 1235 -58 1315 -58 q 1086 14 1154 -57 q 1003 134 1039 64 q 944 276 968 204 q 905 410 919 347 q 885 507 890 474 q 780 312 835 408 q 640 122 725 215 q 437 -22 549 22 q 203 -50 325 -65 q 88 -12 129 -42 q 33 56 46 18 q 33 131 19 93 q 86 194 47 169 q 186 225 125 219 q 328 203 247 231 q 342 188 347 196 q 319 186 338 179 q 223 201 264 207 q 157 175 182 196 q 124 123 132 154 q 124 63 115 92 q 161 13 133 35 q 238 -11 189 -8 q 406 26 329 -15 q 548 138 482 67 q 672 301 614 208 q 786 492 731 393 q 869 640 828 565 q 950 783 910 714 q 1031 913 990 851 q 1115 1021 1072 974 q 869 1026 997 1032 q 599 989 740 1019 q 440 938 510 971 q 322 865 371 906 q 242 777 272 824 q 203 686 213 731 q 203 603 193 639 q 237 542 214 567 q 293 506 260 518 q 363 495 326 493 q 436 513 400 497 q 503 561 472 529 q 542 613 529 589 q 556 651 554 638 q 560 667 557 664 q 566 669 563 671 q 572 660 569 667 q 574 649 574 654 q 519 536 564 582 q 441 479 485 499 q 352 457 397 460 q 265 468 307 454 q 192 510 224 482 q 144 583 161 539 q 132 686 126 628 q 170 799 138 742 q 264 906 203 856 q 413 993 325 956 q 617 1047 501 1031 q 893 1069 763 1068 q 1146 1054 1024 1071 q 1181 1087 1168 1079 q 1199 1091 1194 1094 q 1203 1076 1204 1088 q 1197 1047 1203 1064 q 1269 1035 1235 1040 q 1335 1021 1303 1029 q 1479 951 1429 993 q 1540 863 1529 910 q 1524 765 1550 815 q 1441 669 1499 714 q 1297 590 1383 625 q 1100 536 1210 554 q 1028 527 1060 529 q 972 524 996 525 q 985 465 975 508 q 1013 362 994 421 q 1060 236 1032 303 q 1126 110 1088 169 q 1179 42 1153 69 q 1235 5 1206 15 q 1296 5 1264 -6 q 1365 53 1328 15 q 1412 109 1390 78 q 1451 170 1433 140 q 1481 224 1468 200 q 1499 260 1493 249 q 1520 280 1508 278 q 1522 260 1532 282 m 1317 986 q 1252 1000 1286 994 q 1181 1013 1218 1006 q 1044 789 1115 897 q 914 560 974 681 q 997 569 954 567 q 1089 578 1039 571 q 1225 615 1161 588 q 1337 681 1289 643 q 1413 765 1385 719 q 1443 852 1442 810 q 1415 930 1444 894 q 1317 986 1385 965 z "},"S":{"ha":1251,"x_min":-6,"x_max":1304,"o":"m 1250 864 q 1157 819 1215 836 q 1136 819 1143 815 q 1129 828 1129 822 q 1138 839 1129 833 q 1164 847 1147 844 q 1229 881 1207 853 q 1249 946 1251 910 q 1220 1018 1247 982 q 1140 1075 1193 1054 q 1004 1094 1086 1096 q 811 1053 922 1093 q 703 992 749 1031 q 641 908 657 954 q 645 814 625 863 q 736 722 665 765 q 809 684 768 703 q 894 645 850 665 q 981 603 938 625 q 1064 558 1025 582 q 1168 465 1135 515 q 1206 363 1201 415 q 1190 257 1211 310 q 1129 155 1168 204 q 1038 61 1090 106 q 926 -18 985 17 q 750 -92 847 -65 q 551 -125 653 -119 q 353 -113 450 -131 q 178 -53 256 -96 q 52 58 101 -11 q -3 225 3 126 q 13 332 -6 275 q 63 443 31 389 q 139 542 94 497 q 235 610 183 586 q 251 615 242 613 q 266 615 261 617 q 268 608 271 614 q 249 589 265 601 q 197 541 221 567 q 153 485 172 515 q 96 359 115 426 q 75 225 76 292 q 112 78 74 139 q 213 -22 150 17 q 356 -76 275 -60 q 524 -90 438 -93 q 694 -67 610 -87 q 849 -11 779 -47 q 997 99 936 35 q 1081 233 1057 164 q 1090 368 1106 301 q 1013 486 1075 435 q 932 535 981 513 q 831 581 883 558 q 726 626 778 603 q 636 675 675 649 q 540 788 558 726 q 544 907 521 849 q 624 1014 567 965 q 758 1090 682 1063 q 872 1119 810 1108 q 996 1131 935 1129 q 1112 1124 1057 1132 q 1204 1097 1167 1115 q 1265 1050 1242 1079 q 1297 989 1289 1021 q 1293 924 1304 957 q 1250 864 1282 890 z "},"T":{"ha":1275,"x_min":33,"x_max":1944,"o":"m 1944 847 q 1899 787 1944 807 q 1788 775 1854 767 q 1650 798 1710 785 q 1547 824 1590 811 q 1476 849 1503 838 q 1438 864 1449 860 q 1336 659 1375 764 q 1260 451 1297 554 q 1178 248 1224 347 q 1056 61 1132 149 q 921 -44 1000 -1 q 751 -108 842 -86 q 564 -130 660 -129 q 381 -109 468 -131 q 220 -44 293 -87 q 102 64 147 -1 q 45 217 57 129 q 68 417 33 306 q 113 499 83 465 q 172 551 143 533 q 222 567 201 568 q 239 544 242 567 q 210 521 231 533 q 167 488 190 508 q 124 435 144 467 q 96 353 104 403 q 94 222 83 282 q 135 113 106 161 q 207 28 164 64 q 301 -33 250 -8 q 408 -70 353 -58 q 517 -81 463 -82 q 667 -62 599 -79 q 794 -18 736 -46 q 901 47 853 10 q 989 128 949 85 q 1073 241 1031 174 q 1156 385 1115 308 q 1234 542 1197 463 q 1303 689 1271 621 q 1358 808 1335 757 q 1397 878 1382 858 q 1188 931 1288 913 q 976 954 1088 949 q 798 931 876 958 q 664 860 719 904 q 576 759 608 815 q 540 651 544 703 q 560 556 536 599 q 638 497 583 514 q 751 493 701 476 q 836 541 801 510 q 888 606 871 572 q 903 654 904 639 l 903 657 q 922 663 914 667 q 931 646 931 660 q 893 549 924 590 q 819 482 863 507 q 724 451 775 457 q 624 463 672 446 q 515 542 553 488 q 471 663 476 596 q 494 799 465 729 q 583 922 522 868 q 740 1006 644 976 q 967 1025 836 1036 q 1095 1003 1029 1019 q 1222 969 1161 988 q 1335 932 1283 950 q 1419 904 1386 914 q 1436 924 1424 910 q 1464 952 1449 938 q 1495 978 1479 967 q 1522 989 1511 989 l 1521 989 q 1547 987 1538 994 q 1559 969 1557 979 q 1554 951 1561 958 q 1531 949 1547 943 q 1517 947 1526 953 q 1497 931 1507 940 q 1476 911 1486 922 q 1458 893 1465 900 q 1533 870 1488 883 q 1630 845 1579 857 q 1731 824 1681 833 q 1823 815 1782 815 q 1890 823 1864 814 q 1915 856 1915 832 q 1931 876 1915 876 q 1941 865 1938 876 q 1944 847 1944 853 z "},"U":{"ha":1308,"x_min":-12,"x_max":1396,"o":"m 1369 679 q 1395 643 1394 667 q 1384 590 1396 619 q 1353 528 1372 561 q 1319 464 1333 496 q 1281 374 1306 435 q 1236 239 1256 314 q 1211 126 1221 182 q 1202 24 1201 69 q 1215 -50 1203 -22 q 1256 -76 1226 -78 q 1288 -81 1281 -75 q 1292 -93 1296 -86 q 1275 -106 1288 -100 q 1246 -108 1263 -111 q 1175 -58 1197 -100 q 1147 39 1153 -17 q 1149 154 1142 94 q 1164 258 1156 214 q 1127 199 1149 232 q 1079 133 1106 167 q 941 -1 1010 44 q 816 -53 872 -47 q 720 -26 760 -58 q 669 72 681 6 q 674 178 663 119 q 708 303 685 238 q 761 439 731 369 q 821 576 792 508 q 876 705 850 643 q 914 817 901 767 q 933 915 926 867 q 937 1003 939 963 q 922 1073 935 1043 q 885 1118 910 1103 q 787 1151 842 1144 q 670 1147 732 1157 q 545 1114 608 1138 q 422 1056 482 1090 q 245 922 318 994 q 128 774 172 850 q 65 622 83 697 q 52 481 47 547 q 83 362 57 415 q 153 276 110 308 q 257 238 197 244 q 389 258 317 231 q 478 317 436 276 q 551 409 521 358 q 595 512 581 460 q 601 603 610 564 q 560 663 593 643 q 460 668 526 683 q 426 664 432 661 q 425 672 421 667 q 439 684 429 678 q 453 692 449 690 q 568 708 524 722 q 631 653 613 694 q 643 553 650 613 q 605 431 636 493 q 519 314 574 369 q 388 226 464 258 q 242 198 310 193 q 123 237 175 203 q 38 328 71 271 q -3 459 6 386 q 6 615 -12 532 q 76 784 25 699 q 213 951 126 869 q 425 1101 299 1032 q 665 1185 544 1168 q 878 1163 785 1203 q 959 1104 929 1140 q 1001 1022 989 1068 q 1011 922 1014 976 q 996 811 1008 868 q 959 694 983 757 q 905 567 935 632 q 845 435 875 501 q 792 306 815 369 q 756 182 769 242 q 749 72 743 122 q 782 -4 754 18 q 852 -15 810 -26 q 948 43 894 -3 q 1058 172 1001 89 q 1126 282 1093 222 q 1188 401 1158 342 q 1244 513 1218 460 q 1292 606 1271 567 q 1336 663 1315 646 q 1369 679 1357 679 z "},"V":{"ha":1354,"x_min":-18,"x_max":1463,"o":"m 1433 540 q 1348 367 1400 453 q 1233 203 1296 281 q 1102 61 1171 126 q 967 -49 1033 -4 q 840 -117 900 -94 q 736 -131 781 -139 q 842 569 561 -99 q 879 664 860 613 q 915 769 899 715 q 941 874 931 822 q 952 972 951 926 q 942 1051 953 1017 q 904 1101 931 1085 q 774 1138 847 1136 q 622 1117 701 1140 q 463 1047 543 1093 q 312 940 382 1001 q 187 806 242 879 q 104 656 132 733 q 68 466 64 547 q 104 331 72 385 q 189 250 136 276 q 300 224 242 224 q 416 252 358 224 q 519 326 474 281 q 592 430 564 372 q 621 544 621 488 q 614 597 621 572 q 592 639 607 622 q 553 660 578 656 q 494 656 529 665 q 472 652 479 651 q 465 656 465 653 q 472 665 465 660 q 488 675 478 671 q 568 693 532 696 q 629 672 604 690 q 668 619 654 653 q 682 547 682 586 q 643 417 682 481 q 545 301 604 353 q 415 219 486 250 q 278 188 343 188 q 140 226 206 188 q 34 333 75 264 q -12 495 -7 401 q 31 700 -18 589 q 130 860 68 786 q 267 992 192 933 q 428 1092 343 1050 q 598 1154 514 1133 q 760 1173 682 1175 q 899 1144 838 1171 q 1005 1045 975 1111 q 1032 897 1035 979 q 1001 725 1029 815 q 933 553 974 635 q 871 413 900 485 q 819 270 842 340 q 780 138 796 200 q 756 28 764 75 q 755 -58 746 -31 q 786 -88 764 -85 q 841 -76 808 -92 q 910 -33 874 -60 q 983 26 946 -7 q 1051 91 1019 60 q 1107 147 1083 122 q 1139 183 1131 172 q 1244 322 1194 249 q 1327 469 1293 394 q 1377 615 1361 543 q 1383 751 1393 688 q 1372 792 1379 778 q 1357 812 1365 806 q 1339 819 1349 818 q 1317 822 1329 819 q 1290 835 1299 826 q 1281 850 1281 843 q 1291 861 1281 857 q 1322 860 1301 865 q 1379 831 1347 853 q 1433 771 1411 810 q 1458 674 1454 732 q 1433 540 1463 617 z "},"W":{"ha":1867,"x_min":-28,"x_max":1919,"o":"m 1869 313 q 1769 145 1835 222 q 1624 12 1703 68 q 1464 -74 1546 -44 q 1313 -100 1382 -104 q 1198 -52 1244 -96 q 1144 83 1151 -8 q 1151 188 1142 135 q 1172 282 1160 240 q 1122 204 1153 250 q 1055 109 1092 158 q 976 10 1018 60 q 890 -80 933 -40 q 803 -145 846 -119 q 722 -172 760 -171 q 683 -167 701 -174 q 650 -144 664 -161 q 629 -99 636 -128 q 625 -28 622 -71 q 679 196 632 60 q 806 519 726 332 q 842 614 824 563 q 878 719 861 665 q 906 824 894 772 q 918 922 917 876 q 908 1001 919 967 q 871 1051 897 1035 q 743 1088 814 1086 q 596 1064 672 1089 q 444 992 519 1039 q 301 882 368 944 q 181 746 233 819 q 100 594 129 672 q 60 375 51 464 q 112 237 68 286 q 223 177 156 188 q 360 192 290 167 q 449 250 408 210 q 519 340 490 290 q 560 442 547 390 q 564 534 572 493 q 524 597 556 575 q 431 608 492 618 q 401 613 399 603 q 428 631 404 624 q 553 638 504 654 q 622 582 601 622 q 635 483 642 542 q 594 365 628 425 q 501 250 561 306 q 357 158 442 194 q 246 139 303 136 q 139 166 189 142 q 50 235 89 190 q -8 341 11 279 q -22 480 -28 403 q 22 646 -17 557 q 119 806 60 732 q 252 940 179 881 q 407 1040 325 999 q 570 1103 489 1082 q 728 1124 651 1125 q 865 1096 804 1122 q 970 1001 940 1063 q 998 860 1000 939 q 969 695 996 782 q 906 525 943 608 q 844 377 875 456 q 785 222 813 299 q 736 77 757 146 q 706 -42 715 8 q 701 -99 699 -78 q 713 -129 703 -121 q 740 -135 724 -137 q 778 -119 757 -132 q 863 -47 819 -94 q 951 62 907 1 q 1036 190 994 122 q 1117 324 1078 258 q 1192 449 1157 390 q 1258 550 1228 508 q 1308 601 1285 588 q 1346 608 1332 615 q 1362 573 1360 600 q 1350 503 1364 546 q 1315 415 1336 464 q 1273 316 1294 367 q 1234 214 1251 265 q 1211 119 1217 163 q 1228 -23 1199 19 q 1311 -66 1257 -65 q 1435 -31 1365 -67 q 1572 60 1504 4 q 1697 185 1640 115 q 1783 325 1754 256 q 1841 522 1826 428 q 1839 685 1856 615 q 1774 791 1822 754 q 1643 817 1726 828 q 1584 810 1596 804 q 1582 826 1572 815 q 1615 845 1592 836 q 1663 850 1639 854 q 1788 820 1729 856 q 1882 714 1847 785 q 1918 541 1917 643 q 1869 313 1919 439 z "},"X":{"ha":1121,"x_min":-169,"x_max":1560,"o":"m 1499 1067 q 1390 979 1460 1029 q 1228 867 1321 929 q 1025 730 1136 804 q 792 568 914 656 q 790 423 790 496 q 791 285 789 350 q 797 168 793 221 q 810 83 801 115 q 880 -26 833 -6 q 982 -17 926 -47 q 1094 88 1038 14 q 1194 263 1150 161 q 1205 276 1199 271 q 1217 281 1211 281 q 1223 274 1222 281 q 1218 256 1224 268 q 1058 6 1142 96 q 901 -111 975 -85 q 772 -103 828 -137 q 697 24 717 -68 q 690 96 692 49 q 688 206 688 143 q 689 342 688 268 q 692 496 690 417 q 476 332 582 417 q 272 156 369 247 q 88 -32 174 65 q -65 -235 1 -129 q -117 -297 -93 -279 q -156 -312 -142 -315 q -168 -288 -169 -308 q -143 -235 -167 -268 q 37 -15 -61 -121 q 242 190 135 92 q 463 377 349 288 q 690 549 576 467 q 689 740 692 649 q 671 897 686 832 q 630 977 658 950 q 562 1012 601 1004 q 477 1010 522 1019 q 386 979 432 1000 q 329 944 357 965 q 275 899 301 924 q 223 849 249 875 q 172 797 197 822 q 162 796 169 794 q 148 802 154 797 q 140 817 142 807 q 150 842 139 826 q 188 878 156 849 q 269 942 219 907 q 379 1011 318 976 q 503 1065 440 1046 q 626 1081 567 1085 q 729 1035 685 1076 q 759 978 747 1018 q 778 884 771 939 q 788 761 785 829 q 790 621 790 693 q 988 755 894 693 q 1160 872 1081 817 q 1306 976 1240 926 q 1422 1075 1372 1026 q 1494 1133 1461 1114 q 1544 1152 1528 1153 q 1551 1131 1560 1151 q 1499 1067 1542 1110 z "},"Y":{"ha":1332,"x_min":21,"x_max":1564,"o":"m 1556 -40 q 1542 -111 1564 -68 q 1456 -182 1519 -154 q 1390 -199 1428 -193 q 1308 -208 1353 -206 q 1213 -212 1264 -211 q 1110 -214 1163 -214 q 935 -394 1039 -319 q 725 -510 832 -469 q 556 -550 635 -544 q 419 -540 476 -556 q 328 -494 361 -525 q 297 -425 296 -464 q 337 -345 297 -386 q 464 -268 376 -304 q 609 -222 535 -239 q 759 -194 683 -204 q 912 -182 835 -185 q 1064 -179 989 -179 q 1167 87 1118 -44 q 1254 358 1217 218 q 1206 263 1235 315 q 1142 159 1178 211 q 1063 60 1106 107 q 972 -19 1021 14 q 859 -68 919 -56 q 750 -66 799 -81 q 673 -6 701 -51 q 656 118 644 39 q 685 228 663 169 q 736 347 707 288 q 797 463 765 407 q 858 567 829 519 q 940 725 904 642 q 993 882 976 808 q 1003 1014 1010 956 q 956 1097 996 1072 q 828 1135 900 1133 q 677 1113 756 1138 q 519 1043 599 1089 q 369 935 439 997 q 242 801 299 874 q 153 651 185 728 q 109 497 117 565 q 113 377 101 429 q 155 291 125 325 q 224 240 185 257 q 309 222 264 222 q 400 238 354 221 q 492 296 449 256 q 569 387 536 336 q 619 490 601 438 q 633 583 636 542 q 600 646 629 624 q 511 657 571 668 q 487 655 493 653 q 483 661 481 657 q 492 669 485 665 q 508 676 499 674 q 624 678 582 696 q 678 618 665 660 q 678 519 692 576 q 627 402 664 461 q 531 290 590 343 q 394 206 472 238 q 283 185 339 182 q 177 213 226 188 q 91 282 128 238 q 38 388 54 326 q 29 524 21 449 q 81 688 38 600 q 185 846 121 772 q 325 979 249 919 q 485 1082 401 1039 q 653 1147 569 1125 q 813 1169 736 1169 q 950 1142 889 1169 q 1057 1045 1026 1107 q 1083 908 1088 983 q 1048 748 1079 832 q 969 585 1017 664 q 900 461 935 525 q 836 335 865 397 q 785 215 807 272 q 753 110 763 157 q 753 13 739 47 q 799 -33 768 -22 q 871 -31 829 -43 q 953 10 913 -19 q 1075 137 1017 56 q 1180 308 1133 218 q 1260 484 1226 399 q 1310 624 1293 569 q 1320 643 1311 632 q 1341 661 1329 654 q 1364 669 1353 668 q 1383 657 1375 669 q 1390 615 1390 644 q 1378 535 1389 586 q 1333 358 1360 454 q 1274 166 1307 263 q 1206 -20 1242 69 q 1131 -178 1169 -110 q 1231 -176 1182 -178 q 1321 -171 1279 -175 q 1396 -160 1363 -167 q 1449 -142 1429 -153 q 1488 -119 1471 -129 q 1517 -97 1506 -108 q 1533 -72 1528 -86 q 1539 -39 1539 -58 q 1542 -18 1536 -24 q 1556 -40 1547 -12 m 1044 -214 q 902 -219 974 -214 q 760 -236 831 -224 q 622 -271 689 -249 q 492 -329 554 -293 q 397 -400 424 -368 q 376 -456 371 -432 q 413 -494 382 -479 q 490 -512 443 -508 q 592 -509 536 -517 q 704 -481 649 -501 q 890 -380 797 -446 q 1044 -214 982 -314 z "},"Z":{"ha":940,"x_min":11,"x_max":1499,"o":"m 1453 918 q 1362 894 1421 890 q 1228 918 1303 899 q 1145 829 1190 883 q 1053 713 1100 775 q 960 590 1006 651 q 875 481 914 529 q 754 344 815 407 q 636 230 693 282 q 528 136 579 178 q 440 64 478 94 q 649 -22 549 17 q 736 -56 692 -39 q 824 -88 781 -74 q 904 -114 867 -103 q 969 -131 942 -125 q 1071 -141 1008 -139 q 1193 -131 1133 -143 q 1299 -88 1253 -119 q 1354 3 1346 -57 q 1363 29 1357 19 q 1376 38 1369 39 q 1385 24 1382 38 q 1386 -18 1389 11 q 1371 -71 1383 -37 q 1323 -137 1358 -104 q 1224 -194 1288 -169 q 1060 -219 1161 -218 q 972 -210 1021 -221 q 871 -180 924 -199 q 763 -137 818 -161 q 656 -89 707 -114 q 406 44 535 -31 q 245 -42 314 -21 q 128 -51 176 -62 q 58 -16 85 -42 q 21 41 31 10 q 19 104 11 72 q 51 159 26 136 q 115 191 75 182 q 214 185 156 200 q 293 153 246 176 q 413 85 340 131 q 607 313 515 206 q 686 406 646 358 q 763 497 726 453 q 831 577 800 540 q 882 639 861 614 q 947 711 911 674 q 1020 787 982 749 q 1099 862 1058 825 q 1178 931 1139 899 q 1042 962 1117 947 q 888 983 967 976 q 735 988 810 990 q 597 969 660 986 q 510 932 553 958 q 443 871 467 906 q 426 798 419 836 q 486 724 432 760 q 506 705 504 711 q 501 697 507 699 q 485 695 494 694 q 469 697 475 696 q 445 710 461 700 q 414 739 429 721 q 378 822 385 771 q 397 923 371 872 q 492 1013 424 974 q 681 1063 560 1053 q 813 1058 744 1068 q 949 1030 881 1047 q 1081 991 1017 1013 q 1204 951 1146 969 q 1287 1009 1247 985 q 1358 1044 1326 1033 q 1435 1053 1401 1060 q 1483 1026 1468 1046 q 1493 976 1499 1006 q 1453 918 1488 947 m 1428 929 q 1449 956 1443 939 q 1453 989 1456 972 q 1441 1017 1451 1006 q 1413 1029 1431 1029 q 1339 1004 1381 1029 q 1249 939 1297 979 q 1354 917 1308 922 q 1428 929 1400 913 m 386 58 q 371 71 378 65 q 357 81 364 76 q 344 90 350 86 q 203 144 260 138 q 109 127 140 151 q 78 72 78 103 q 111 13 79 40 q 208 -11 143 -14 q 258 -3 232 -10 q 307 13 283 3 q 351 34 331 22 q 386 58 371 46 z "},"[":{"ha":813,"x_min":53,"x_max":810,"o":"m 810 947 q 800 925 810 928 q 775 922 790 922 q 724 925 749 922 q 672 928 699 928 q 639 928 660 928 q 607 921 618 928 q 524 846 572 903 q 422 710 475 789 q 318 541 369 632 q 226 364 267 450 q 160 206 185 278 q 135 94 135 135 q 143 62 135 74 q 165 44 151 50 q 196 35 179 38 q 228 33 213 33 q 278 36 253 33 q 328 39 303 39 q 344 38 335 39 q 364 33 354 36 q 380 24 374 29 q 386 8 386 18 q 364 -12 386 -6 q 313 -21 342 -18 q 255 -24 283 -24 q 214 -24 226 -24 q 172 -23 199 -24 q 118 -16 144 -22 q 72 3 92 -10 q 53 39 53 15 q 73 171 53 97 q 127 324 93 244 q 205 486 161 404 q 295 643 249 568 q 387 783 342 718 q 471 892 432 847 q 510 935 492 915 q 550 968 529 954 q 597 990 571 982 q 656 997 622 997 l 683 997 q 717 997 696 997 q 759 991 739 996 q 794 976 779 986 q 810 947 810 965 z "},"\\":{"ha":1204,"x_min":28,"x_max":1193,"o":"m 1183 -56 q 1074 14 1136 -42 q 942 150 1013 69 q 794 329 871 231 q 638 528 717 428 q 483 724 560 629 q 335 894 406 819 q 204 1013 265 968 q 96 1057 143 1057 q 67 1049 81 1057 q 38 1038 53 1042 l 28 1047 q 69 1088 39 1078 q 128 1097 99 1097 q 247 1065 186 1097 q 368 978 307 1032 q 488 854 429 924 q 601 713 547 785 q 741 521 674 615 q 878 334 808 426 q 1022 151 947 242 q 1181 -26 1096 61 q 1188 -36 1185 -32 q 1193 -47 1192 -40 l 1183 -56 z "},"]":{"ha":772,"x_min":24,"x_max":761,"o":"m 761 931 q 746 785 761 864 q 704 623 731 706 q 642 456 678 540 q 565 296 607 372 q 476 153 522 219 q 382 40 429 88 q 328 4 358 17 q 263 -15 297 -8 q 194 -22 229 -21 q 128 -24 158 -24 q 102 -24 117 -24 q 73 -24 88 -24 q 45 -22 58 -24 q 24 -17 32 -21 q 47 19 28 8 q 92 33 65 29 q 152 37 119 36 q 219 42 185 38 q 288 62 254 47 q 349 107 321 76 q 419 203 382 144 q 494 330 457 261 q 564 475 531 399 q 623 625 597 551 q 664 765 649 699 q 679 882 679 831 q 675 924 679 903 q 652 928 664 928 q 629 929 640 929 q 552 926 590 929 q 475 924 514 924 l 471 926 q 502 967 478 953 q 558 987 526 981 q 621 994 589 993 q 674 994 653 994 q 708 993 692 994 q 735 985 724 992 q 754 966 747 979 q 761 931 761 953 z "},"^":{"ha":514,"x_min":164,"x_max":560,"o":"m 560 543 q 554 533 560 536 q 543 531 549 531 q 499 545 526 531 q 445 581 472 560 q 394 623 418 601 q 361 658 371 644 q 323 631 350 650 q 265 591 296 611 q 208 554 235 571 q 172 536 182 538 l 164 546 q 181 567 165 551 q 218 601 196 582 q 267 640 240 619 q 319 676 294 660 q 364 704 344 693 q 392 717 383 715 l 400 713 q 471 629 432 668 q 553 554 510 590 l 560 543 l 560 543 z "},"_":{"ha":1119,"x_min":11,"x_max":1101,"o":"m 1092 -83 q 698 -86 893 -83 q 304 -93 503 -89 q 169 -98 236 -94 q 35 -101 103 -101 q 17 -86 22 -101 q 11 -61 11 -71 q 17 -42 11 -50 q 35 -35 24 -35 l 1063 -35 q 1089 -47 1078 -35 q 1101 -74 1100 -58 l 1092 -83 z "},"`":{"ha":293,"x_min":13,"x_max":268,"o":"m 268 567 q 254 554 268 554 q 223 567 250 554 q 164 597 196 581 q 103 630 132 614 q 64 650 74 646 q 28 674 44 660 q 13 713 13 689 q 20 733 13 725 q 39 742 28 742 q 65 729 46 742 q 110 698 85 717 q 164 658 136 679 q 215 617 192 636 q 253 583 238 597 q 268 567 268 569 z "},"a":{"ha":486,"x_min":29,"x_max":594,"o":"m 585 256 q 547 181 569 224 q 496 97 524 138 q 437 28 468 57 q 375 -3 406 0 q 339 3 358 -4 q 307 31 319 11 q 292 87 294 51 q 306 176 290 122 q 263 112 289 149 q 206 46 236 75 q 131 0 165 7 q 74 10 97 -7 q 40 65 50 28 q 36 153 29 103 q 70 265 43 204 q 150 388 97 325 q 224 451 181 425 q 313 489 268 478 q 401 492 358 500 q 472 451 443 483 q 481 422 488 436 q 457 411 475 408 q 412 458 446 450 q 339 446 378 467 q 242 365 292 419 q 154 247 192 310 q 142 225 150 240 q 124 190 133 210 q 108 148 115 169 q 97 107 100 126 q 102 54 92 71 q 131 38 113 38 q 175 53 150 38 q 225 99 200 69 q 291 192 261 143 q 349 293 321 242 q 391 361 372 338 q 443 382 410 385 q 472 377 457 381 q 501 376 486 374 q 472 335 490 365 q 433 267 453 306 q 396 189 413 229 q 372 117 379 149 q 386 33 356 33 q 435 60 408 32 q 487 126 461 88 q 533 205 513 165 q 565 267 554 244 q 585 281 575 285 q 585 256 594 276 z "},"b":{"ha":479,"x_min":-40,"x_max":522,"o":"m 364 790 q 457 858 413 860 l 464 858 q 492 853 478 857 q 522 853 507 850 q 466 784 503 833 q 385 670 429 735 q 297 532 342 606 q 217 389 251 458 q 168 277 190 336 q 137 166 146 218 q 136 77 128 114 q 181 33 144 40 q 300 113 226 24 q 358 195 329 147 q 404 285 386 243 q 424 351 418 319 q 424 408 429 383 q 402 447 419 433 q 351 457 385 460 q 328 461 336 456 q 322 473 321 467 q 335 484 324 479 q 371 485 347 489 q 433 460 408 479 q 472 415 458 442 q 487 355 485 388 q 482 289 489 322 q 452 200 472 244 q 403 117 432 156 q 336 49 374 78 q 256 10 299 21 q 155 -1 196 -7 q 91 25 114 4 q 61 78 68 46 q 64 149 54 111 q 88 219 72 181 q 125 301 104 258 q 79 215 101 256 q 38 142 57 175 q 3 87 19 110 q -22 54 -12 64 q -35 55 -31 47 q -33 72 -40 63 q 21 156 -10 103 q 85 274 51 210 q 156 411 119 339 q 229 553 193 483 q 299 684 265 622 q 364 790 333 746 z "},"c":{"ha":361,"x_min":47,"x_max":479,"o":"m 469 254 q 419 153 444 200 q 363 70 394 106 q 291 15 332 35 q 193 -6 250 -6 q 107 14 139 -6 q 61 65 75 33 q 49 136 47 96 q 65 219 51 176 q 99 304 78 263 q 146 379 121 346 q 233 460 185 432 q 332 489 282 489 q 409 463 385 489 q 428 393 433 436 q 415 358 425 376 q 390 328 404 340 q 361 312 376 315 q 335 319 346 308 q 359 352 346 333 q 378 390 372 371 q 378 442 388 426 q 350 458 369 458 q 311 447 331 458 q 272 419 292 436 q 233 381 251 403 q 201 339 215 360 q 178 301 192 325 q 153 249 165 278 q 133 189 142 221 q 125 126 125 157 q 144 52 125 85 q 207 19 163 19 q 288 42 253 19 q 353 101 324 65 q 406 179 382 136 q 450 264 429 222 q 469 279 460 283 q 469 254 479 275 z "},"d":{"ha":510,"x_min":31,"x_max":767,"o":"m 767 864 q 731 813 757 854 q 672 713 706 772 q 598 582 638 654 q 522 438 558 510 q 452 299 485 365 q 400 185 419 232 q 386 148 394 172 q 374 99 378 124 q 377 55 371 74 q 408 36 383 36 q 462 64 435 36 q 513 129 489 92 q 557 206 538 167 q 588 267 576 244 q 607 283 596 286 q 608 258 618 279 q 575 185 596 229 q 525 100 554 142 q 460 29 496 58 q 383 0 425 0 q 351 9 367 0 q 321 38 335 18 q 303 86 310 56 q 308 160 297 117 q 273 103 293 135 q 228 47 253 72 q 172 9 203 22 q 106 6 142 -4 q 44 63 57 19 q 42 164 31 107 q 85 281 54 221 q 153 388 115 342 q 218 446 182 421 q 294 483 254 471 q 374 493 333 496 q 451 468 414 490 q 544 652 501 564 q 613 797 588 740 q 653 858 632 844 q 707 869 674 872 q 736 865 721 868 q 767 864 751 861 m 440 446 q 375 459 414 471 q 294 412 336 447 q 212 326 251 376 q 144 224 172 275 q 106 113 110 158 q 121 50 103 67 q 174 51 139 33 q 254 132 210 69 q 342 270 293 186 q 440 446 392 354 z "},"e":{"ha":342,"x_min":43,"x_max":447,"o":"m 442 260 q 400 172 422 218 q 347 85 378 125 q 276 20 317 46 q 176 -6 235 -6 q 84 28 124 -6 q 43 128 44 61 q 51 193 43 158 q 73 262 58 228 q 107 328 88 296 q 150 388 126 360 q 208 443 176 418 q 272 481 240 468 q 334 494 304 494 q 388 478 364 494 q 410 439 407 463 q 403 387 414 415 q 368 329 392 358 q 311 275 344 300 q 272 251 294 263 q 224 232 249 240 q 176 219 199 224 q 140 214 154 214 q 126 163 132 194 q 122 100 119 131 q 138 47 124 69 q 188 24 153 24 q 270 51 233 24 q 335 115 307 78 q 384 193 364 153 q 417 261 404 233 q 427 276 421 271 q 438 281 433 281 q 445 276 443 281 q 442 260 447 271 m 297 299 q 344 351 325 322 q 369 406 363 381 q 372 447 376 431 q 351 463 368 464 q 306 441 335 463 q 233 368 276 419 q 183 296 206 335 q 150 238 160 257 q 176 241 160 238 q 214 252 193 244 q 256 272 235 260 q 297 299 278 283 z "},"f":{"ha":275,"x_min":-164,"x_max":504,"o":"m 504 863 q 423 760 471 832 q 320 592 375 689 q 207 379 265 494 q 97 147 149 264 q 123 105 111 131 q 142 43 135 79 q 144 34 143 39 q 146 25 144 29 q 207 47 176 22 q 265 110 238 72 q 315 191 292 147 q 354 271 338 235 q 372 281 361 285 q 375 261 382 276 q 332 171 356 217 q 280 86 308 125 q 219 23 251 47 q 149 -1 186 -1 q 139 -160 154 -75 q 92 -317 124 -244 q 13 -438 60 -390 q -90 -483 -35 -486 q -140 -467 -119 -482 q -162 -411 -161 -453 q -153 -330 -164 -378 q -122 -224 -142 -282 q -76 -99 -103 -165 q -19 40 -50 -32 q -34 76 -31 57 q -35 112 -37 94 q -26 143 -33 129 q -10 164 -19 157 q 40 179 14 183 q 116 347 78 264 q 191 506 154 429 q 262 651 228 583 q 325 772 296 718 q 374 843 349 817 q 443 869 399 869 q 472 865 456 869 q 504 863 489 860 m 117 19 q 104 82 114 54 q 83 115 96 100 q 68 81 75 96 q 53 46 61 65 q 74 27 60 35 q 108 19 89 19 l 117 19 m 119 -7 q 76 -3 99 -10 q 39 15 53 4 q -28 -167 3 -76 q -76 -328 -60 -258 q -87 -416 -90 -389 q -71 -447 -85 -443 q -37 -434 -57 -450 q 4 -390 -17 -418 q 51 -310 29 -357 q 88 -212 72 -264 q 113 -106 104 -160 q 119 -7 121 -53 z "},"g":{"ha":544,"x_min":-147,"x_max":653,"o":"m 643 256 q 594 158 617 201 q 548 83 572 115 q 496 26 524 50 q 429 -17 468 1 q 362 -156 406 -82 q 259 -293 318 -231 q 129 -397 200 -356 q -17 -439 58 -439 q -147 -332 -147 -439 q -112 -241 -147 -281 q -26 -172 -76 -201 q 74 -121 25 -142 q 169 -83 122 -100 q 259 -53 215 -67 q 343 -22 303 -39 q 363 52 356 14 q 375 132 371 90 q 379 203 379 172 q 376 246 379 235 q 331 167 360 214 q 267 81 303 121 q 192 17 232 40 q 110 6 151 -7 q 44 73 57 28 q 43 173 31 118 q 87 285 56 228 q 157 388 118 342 q 227 451 188 425 q 310 487 267 476 q 397 490 353 497 q 479 451 440 482 q 499 422 497 436 q 495 401 501 408 q 479 394 489 393 q 464 411 469 396 q 426 458 450 449 q 371 458 401 468 q 306 421 340 447 q 240 360 272 394 q 171 267 203 317 q 122 172 139 217 q 105 92 104 126 q 133 46 106 58 q 202 60 164 33 q 276 133 240 88 q 339 228 311 178 q 376 311 367 278 q 394 344 383 335 q 418 357 406 354 q 442 360 431 360 q 463 367 454 360 q 472 198 476 283 q 444 29 467 113 q 495 69 469 47 q 542 119 521 92 q 594 206 576 165 q 622 267 611 247 q 642 281 632 285 q 643 256 653 276 m 329 -62 q 306 -71 318 -67 q 281 -79 293 -75 q 123 -137 204 -106 q -25 -212 42 -168 q -83 -269 -58 -235 q -115 -334 -107 -303 q -108 -388 -122 -365 q -50 -411 -93 -411 q -2 -403 -28 -411 q 47 -385 24 -396 q 92 -361 71 -374 q 125 -339 113 -349 q 189 -277 157 -312 q 250 -203 221 -242 q 329 -62 301 -131 z "},"h":{"ha":461,"x_min":-56,"x_max":569,"o":"m 558 254 q 519 173 542 218 q 467 88 496 128 q 406 22 439 49 q 333 -6 372 -6 q 296 1 315 -6 q 263 27 276 8 q 247 77 250 46 q 260 157 244 108 q 288 220 268 185 q 336 303 307 256 q 350 339 349 324 q 340 357 351 354 q 303 346 328 360 q 238 294 278 332 q 152 199 201 263 q 43 19 103 135 q 25 1 36 4 q -8 -1 14 -1 q -34 -3 -24 -3 q -56 -10 -44 -3 q 33 174 -14 78 q 127 367 79 269 q 226 564 175 465 q 326 756 276 663 q 371 823 350 800 q 425 843 392 846 q 453 838 439 842 q 483 838 468 835 q 444 785 468 822 q 390 697 419 747 q 326 584 360 646 q 257 457 292 522 q 189 326 222 392 q 128 203 156 261 q 184 270 156 239 q 240 325 213 301 q 302 373 265 347 q 376 419 339 399 q 447 450 414 439 q 497 456 479 461 q 421 313 456 381 q 391 253 406 283 q 364 194 376 222 q 342 140 351 165 q 331 97 333 115 q 330 40 322 54 q 351 24 338 25 q 403 51 375 22 q 458 122 432 81 q 506 204 485 163 q 539 268 528 246 q 559 282 549 288 q 558 254 569 276 z "},"i":{"ha":242,"x_min":25,"x_max":347,"o":"m 271 515 q 247 475 267 492 q 204 458 228 458 q 167 475 181 458 q 156 515 153 492 q 179 556 160 539 q 222 572 199 572 q 260 556 246 572 q 271 515 275 539 m 97 118 q 92 58 88 83 q 126 31 97 33 q 160 37 142 28 q 189 57 178 46 q 257 150 224 92 q 319 267 290 208 q 338 281 328 286 q 338 254 347 275 q 303 182 324 225 q 253 98 282 139 q 192 28 225 57 q 119 0 158 0 q 60 18 81 0 q 32 63 39 36 q 29 122 25 90 q 44 181 33 153 l 133 407 q 133 443 142 426 q 119 465 124 460 l 196 467 q 233 455 229 467 q 225 418 236 443 l 114 158 q 107 142 111 149 q 101 128 104 135 q 97 118 99 121 z "},"j":{"ha":246,"x_min":-551,"x_max":354,"o":"m 82 225 q 69 229 75 225 q 69 247 63 233 l 143 407 q 143 443 153 426 q 129 465 133 460 l 206 467 q 242 455 239 467 q 235 418 246 443 l 124 158 q 83 67 104 113 q 38 -25 61 21 q 95 -1 68 -12 q 147 25 122 10 q 195 63 172 40 q 242 119 218 85 q 294 208 275 168 q 325 268 314 249 q 344 281 335 286 q 344 256 354 276 q 281 133 308 183 q 219 47 253 83 q 137 -16 185 11 q 14 -69 89 -43 q -62 -193 -19 -128 q -157 -313 -104 -258 q -275 -403 -210 -368 q -417 -439 -340 -439 q -499 -424 -469 -439 q -540 -383 -528 -408 q -547 -328 -551 -358 q -528 -269 -543 -299 q -473 -203 -508 -231 q -397 -156 -437 -175 q -235 -101 -326 -122 q -60 -56 -144 -79 q -37 -15 -49 -36 q -15 25 -25 6 q 10 78 -3 50 q 37 132 24 106 q 62 183 50 158 q 82 225 74 207 m -86 -100 q -158 -118 -119 -108 q -234 -139 -196 -128 q -308 -162 -272 -150 q -374 -186 -344 -174 q -462 -247 -428 -210 q -510 -322 -497 -285 q -508 -385 -522 -358 q -450 -411 -494 -411 q -355 -383 -404 -411 q -260 -314 -306 -354 q -178 -229 -215 -274 q -117 -151 -140 -185 q -101 -127 -108 -140 q -86 -100 -93 -114 m 293 518 q 269 478 289 494 q 226 461 250 461 q 189 478 203 461 q 178 518 175 494 q 201 558 182 542 q 244 575 221 575 q 283 558 268 575 q 293 518 297 542 z "},"k":{"ha":504,"x_min":-40,"x_max":611,"o":"m 364 790 q 457 858 413 860 l 464 858 q 492 853 478 857 q 522 853 507 850 q 458 783 496 832 q 378 670 419 735 q 294 532 336 606 q 217 389 251 458 q 190 332 203 361 q 167 271 178 303 q 215 327 189 297 q 272 384 242 357 q 332 433 301 411 q 393 465 363 454 q 492 478 460 490 q 528 437 525 467 q 510 368 532 407 q 450 301 489 329 q 387 265 418 279 q 310 247 356 251 q 295 147 290 199 q 324 64 300 96 q 386 31 347 32 q 474 81 425 29 q 528 159 500 108 q 586 271 557 210 q 603 281 594 288 q 604 258 611 275 q 526 109 563 164 q 455 27 489 54 q 390 -6 421 0 q 328 -8 358 -11 q 261 26 290 -4 q 221 110 232 56 q 219 172 214 143 q 236 222 225 201 q 261 256 247 243 q 286 269 275 268 q 341 279 310 267 q 396 311 372 292 q 435 365 429 338 q 422 405 440 393 q 363 406 404 417 q 263 343 322 394 q 206 288 235 319 q 149 217 176 257 q 128 165 139 199 q 111 98 118 132 q 103 35 104 64 q 110 0 101 7 l 22 0 q 7 8 7 0 q 11 31 7 17 q 62 166 31 103 q 125 301 93 229 q 79 215 101 256 q 38 142 57 175 q 3 87 19 110 q -22 54 -12 64 q -35 55 -31 47 q -33 72 -40 63 q 21 156 -10 103 q 85 274 51 210 q 156 411 119 339 q 229 553 193 483 q 299 684 265 622 q 364 790 333 746 z "},"l":{"ha":294,"x_min":46,"x_max":478,"o":"m 440 685 q 325 469 392 576 q 156 268 258 361 q 142 226 150 250 q 126 176 133 203 q 121 78 111 114 q 155 31 131 42 q 210 35 179 21 q 269 89 242 50 q 302 139 286 114 q 331 188 318 164 q 355 231 344 211 q 372 265 365 251 q 392 281 382 283 q 393 258 403 279 q 360 186 381 231 q 309 100 339 142 q 239 28 279 58 q 146 -3 199 -3 q 85 12 107 -3 q 55 50 64 26 q 47 103 46 74 q 53 163 47 132 q 67 222 58 193 q 81 271 75 250 q 121 394 97 329 q 172 524 144 460 q 231 650 200 589 q 292 761 261 711 q 371 851 329 824 q 440 869 413 878 q 473 814 468 860 q 440 685 478 768 m 419 706 q 436 757 429 729 q 441 801 443 785 q 426 813 439 817 q 386 768 414 808 q 329 672 361 732 q 267 547 297 613 q 210 417 236 481 q 167 313 183 354 q 240 398 204 350 q 310 498 276 446 q 371 603 343 550 q 419 706 399 657 z "},"m":{"ha":704,"x_min":-51,"x_max":813,"o":"m 803 256 q 765 179 788 224 q 713 94 742 135 q 648 24 683 53 q 574 -6 613 -6 q 535 1 554 -6 q 502 27 515 8 q 486 77 489 46 q 499 157 483 108 q 526 220 507 185 q 575 303 546 256 q 589 339 588 324 q 578 357 590 354 q 542 346 567 360 q 476 294 517 332 q 423 237 454 274 q 363 158 392 200 q 310 73 333 115 q 281 0 288 31 q 244 23 257 0 q 236 76 231 46 q 260 159 243 122 q 294 235 276 196 q 325 303 311 269 q 338 351 339 336 q 315 356 338 367 q 239 294 293 346 q 155 200 203 263 q 47 24 107 138 q 29 5 40 8 q -6 1 18 1 q -31 0 -21 0 q -51 -7 -40 0 q 42 189 -1 93 q 138 379 86 285 q 183 449 164 429 q 236 467 203 468 q 265 462 250 465 q 294 461 279 458 q 258 425 279 453 q 213 360 236 397 q 167 280 190 322 q 126 200 144 238 q 178 262 147 226 q 242 325 210 297 q 295 373 267 347 q 351 419 324 399 q 402 450 378 439 q 444 456 426 461 q 469 432 464 449 q 465 394 475 415 q 417 301 446 350 q 364 200 389 251 q 416 262 385 226 q 479 325 447 297 q 541 373 504 347 q 615 419 578 399 q 686 450 653 439 q 736 456 719 461 q 660 313 694 381 q 631 253 644 283 q 604 194 617 222 q 583 140 592 165 q 569 97 574 115 q 571 41 563 54 q 593 28 579 28 q 649 56 619 28 q 704 124 678 85 q 751 203 731 163 q 783 268 772 244 q 802 281 792 286 q 803 256 813 276 z "},"n":{"ha":465,"x_min":-54,"x_max":574,"o":"m 564 256 q 526 179 549 224 q 474 94 503 135 q 410 24 444 53 q 335 -6 375 -6 q 297 1 317 -6 q 265 27 278 8 q 249 77 251 46 q 261 157 246 108 q 289 220 269 185 q 338 303 308 256 q 351 339 350 324 q 341 357 353 354 q 304 346 329 360 q 239 294 279 332 q 153 199 203 263 q 46 19 104 135 q 26 1 38 4 q -7 -1 15 -1 q -33 -3 -22 -3 q -54 -10 -43 -3 q 41 188 -4 90 q 138 379 86 285 q 183 449 164 429 q 236 467 203 468 q 265 462 250 465 q 294 461 279 458 q 258 425 279 453 q 213 360 236 397 q 167 280 190 322 q 126 200 144 238 q 178 262 147 226 q 242 325 210 297 q 303 373 267 347 q 378 419 340 399 q 448 450 415 439 q 499 456 481 461 q 422 313 457 381 q 392 253 407 283 q 365 194 378 222 q 344 140 353 165 q 332 97 335 115 q 332 41 324 54 q 354 28 340 28 q 410 57 381 28 q 465 126 439 86 q 513 206 492 165 q 544 268 533 246 q 563 281 553 286 q 564 256 574 276 z "},"o":{"ha":465,"x_min":38,"x_max":574,"o":"m 567 261 q 540 200 558 242 q 493 117 521 158 q 428 43 465 75 q 349 11 392 11 q 295 22 317 11 q 260 47 274 32 q 200 12 231 25 q 139 0 169 -1 q 76 24 99 1 q 45 81 53 46 q 44 162 38 117 q 71 253 51 207 q 122 343 92 300 q 188 418 153 386 q 261 469 224 450 q 335 486 299 488 q 397 464 374 486 q 428 406 421 442 q 429 324 436 369 q 403 233 422 279 q 357 152 388 197 q 286 69 326 107 q 351 35 304 35 q 415 63 385 35 q 469 129 444 90 q 514 208 494 168 q 546 274 533 249 q 563 281 551 285 q 567 261 574 276 m 364 440 q 315 434 342 446 q 263 397 289 422 q 211 335 236 371 q 167 258 186 300 q 134 177 146 215 q 119 108 122 139 q 124 58 117 78 q 150 32 131 38 q 194 36 169 26 q 244 67 219 46 q 228 101 233 83 q 222 135 222 119 q 234 176 224 158 q 271 194 244 194 q 301 182 289 194 q 313 153 313 169 q 312 145 313 149 q 310 138 311 142 q 353 213 333 172 q 385 294 374 256 q 397 364 396 333 q 390 415 399 394 q 364 440 382 435 z "},"p":{"ha":467,"x_min":-201,"x_max":501,"o":"m 426 486 q 489 428 476 472 q 490 328 501 385 q 448 212 479 272 q 379 106 417 151 q 314 46 350 71 q 239 9 278 21 q 160 0 200 -3 q 82 25 119 3 l -50 -304 q -90 -364 -71 -349 q -143 -376 -108 -379 q -172 -371 -157 -375 q -201 -369 -186 -367 q -169 -322 -193 -361 q -115 -224 -146 -282 q -50 -99 -85 -167 q 15 35 -15 -31 q 66 155 44 100 q 94 242 88 210 q 69 219 83 224 q 63 229 56 214 q 76 260 68 240 q 90 292 85 279 q 108 343 100 314 q 117 399 115 372 q 115 444 119 425 q 99 465 111 463 q 128 471 114 468 q 151 474 139 474 q 167 476 163 475 q 192 478 182 478 q 208 475 201 479 q 216 458 214 471 q 217 419 218 444 q 203 337 215 385 q 178 253 192 289 q 221 322 193 278 q 283 405 249 365 q 353 470 317 444 q 426 486 390 496 m 389 269 q 427 379 424 333 q 413 442 431 425 q 359 441 394 458 q 279 361 324 424 q 190 222 239 307 q 93 46 142 138 q 157 33 118 21 q 238 80 196 44 q 321 167 281 115 q 389 269 361 218 z "},"q":{"ha":475,"x_min":31,"x_max":508,"o":"m 508 351 q 448 245 482 311 q 378 103 414 179 q 310 -53 343 26 q 249 -203 276 -133 q 203 -325 221 -272 q 182 -399 185 -378 q 163 -376 175 -386 q 142 -357 150 -367 q 124 -301 118 -332 q 150 -225 129 -271 q 222 -65 192 -128 q 275 46 251 -1 q 318 132 299 93 q 360 219 338 171 q 343 193 357 214 q 313 149 329 172 q 281 104 296 125 q 263 78 267 83 q 230 45 247 61 q 193 18 213 29 q 152 3 174 7 q 108 6 131 -1 q 44 73 57 28 q 43 173 31 118 q 87 285 56 228 q 157 388 118 342 q 227 451 188 425 q 310 487 267 476 q 396 490 353 497 q 478 451 439 482 q 499 422 496 436 q 495 401 501 408 q 479 394 489 393 q 464 411 469 396 q 422 460 449 451 q 360 453 394 468 q 290 406 326 439 q 219 331 253 372 q 159 244 186 289 q 118 158 132 199 q 106 88 104 118 q 133 46 108 57 q 174 49 151 38 q 218 81 196 60 q 263 133 240 103 q 306 192 286 163 q 340 247 325 221 q 365 288 356 272 q 389 324 379 310 q 408 347 399 339 q 426 356 417 354 q 450 357 436 358 q 478 353 463 357 q 508 351 493 349 z "},"r":{"ha":361,"x_min":-43,"x_max":469,"o":"m 458 254 q 422 182 443 222 q 376 104 401 142 q 321 38 351 67 q 257 1 290 10 q 217 3 239 -3 q 181 31 196 10 q 163 87 165 51 q 181 176 160 122 q 201 221 189 197 q 226 267 213 244 q 250 308 239 289 q 267 340 261 328 q 250 390 282 375 q 160 406 218 404 l 143 361 q 113 285 131 328 q 72 199 94 243 q 25 117 50 156 q -25 54 0 79 q -38 55 -33 47 q -36 72 -43 63 q 40 191 6 126 q 102 323 75 256 q 148 457 129 390 q 178 582 167 524 q 200 620 183 611 q 233 621 217 629 q 259 590 249 613 q 263 532 269 567 q 230 477 256 503 q 186 439 204 451 q 276 438 225 436 q 378 444 326 439 q 380 424 382 438 q 373 397 378 411 q 361 366 368 382 q 349 338 354 350 q 330 300 343 326 q 301 241 317 274 q 270 172 285 208 q 249 106 256 136 q 245 57 242 76 q 269 36 249 38 q 316 64 290 36 q 366 129 342 92 q 410 206 390 167 q 442 268 431 246 q 460 281 451 286 q 458 254 469 275 z "},"s":{"ha":356,"x_min":-18,"x_max":463,"o":"m 457 263 q 412 167 438 219 q 351 74 386 115 q 269 12 315 33 q 165 8 224 -10 q 108 -6 133 -6 q 17 24 46 -6 q -15 91 -11 54 q -2 158 -18 128 q 39 190 14 189 q 99 307 67 243 q 158 431 131 371 q 181 472 168 451 q 208 508 193 492 q 239 536 222 525 q 274 550 256 547 q 325 543 303 554 q 342 522 344 533 q 319 519 339 510 q 297 525 308 524 q 275 521 286 526 q 241 488 251 510 q 229 440 231 465 q 233 388 228 414 q 246 344 238 363 q 281 265 263 304 q 296 181 299 226 q 265 97 293 140 q 197 26 238 54 l 207 25 q 274 38 243 19 q 332 89 306 57 q 358 126 344 103 q 385 174 371 149 q 412 224 399 199 q 436 271 425 250 q 452 278 442 282 q 457 263 463 274 m 211 181 q 208 250 213 214 q 199 322 204 286 q 192 389 194 357 q 193 444 189 421 q 162 381 179 417 q 126 310 144 346 q 92 242 108 275 q 63 188 75 210 q 78 182 72 188 q 88 169 83 178 q 92 143 92 160 q 108 75 89 103 q 150 36 126 47 q 191 90 174 54 q 211 181 208 125 m 126 24 q 89 63 104 38 q 71 128 74 88 q 49 92 54 111 q 47 56 43 72 q 65 29 51 40 q 99 18 78 18 q 126 24 115 18 z "},"t":{"ha":278,"x_min":39,"x_max":453,"o":"m 421 528 q 428 523 426 528 q 430 513 431 518 q 426 502 429 507 q 418 497 424 497 l 338 497 q 258 381 301 436 q 153 268 215 325 q 142 231 147 254 q 132 183 138 207 q 121 126 126 157 q 119 72 113 92 q 140 43 126 51 q 174 38 154 35 q 210 54 193 42 q 294 149 258 90 q 357 264 329 207 q 376 280 365 283 q 375 256 386 276 q 335 175 351 207 q 303 119 318 143 q 274 76 289 94 q 239 39 258 58 q 174 3 211 11 q 107 6 138 -6 q 58 52 76 18 q 47 143 39 86 q 63 223 51 178 q 90 315 75 268 q 122 410 104 363 q 156 497 139 457 l 83 497 q 75 502 78 497 q 73 513 72 507 q 77 523 74 518 q 86 528 81 528 l 169 528 q 219 631 193 581 q 271 725 244 681 q 348 815 307 788 q 417 833 389 842 q 449 777 444 824 q 414 647 453 731 q 354 528 385 586 l 421 528 m 393 669 q 410 721 403 692 q 415 767 417 750 q 399 781 413 785 q 353 731 385 776 q 304 641 328 694 q 254 528 281 588 l 324 528 q 393 669 363 597 m 240 497 q 199 397 218 446 q 165 313 181 349 q 240 400 206 353 q 306 497 275 447 l 240 497 z "},"u":{"ha":496,"x_min":31,"x_max":604,"o":"m 594 256 q 556 176 578 219 q 506 93 533 132 q 444 28 478 54 q 374 1 411 1 q 332 13 350 1 q 305 48 314 25 q 296 104 296 71 q 310 179 296 138 q 270 116 292 147 q 224 59 249 85 q 174 17 200 33 q 122 1 147 1 q 98 3 111 1 q 72 13 85 6 q 49 32 60 19 q 35 64 39 44 q 33 107 31 86 q 44 148 36 128 q 62 187 51 168 q 82 225 72 206 q 69 229 75 225 q 69 247 63 233 q 82 271 76 258 q 94 296 88 283 q 136 376 115 336 q 172 449 157 417 q 194 472 181 465 q 226 478 207 478 l 311 478 q 289 460 299 469 q 269 439 279 451 q 247 408 258 426 q 222 361 236 390 q 188 292 203 325 q 158 232 172 263 q 135 182 144 201 q 107 92 110 128 q 117 41 104 56 q 157 37 131 26 q 217 86 183 47 q 274 165 246 119 q 329 260 303 211 q 380 358 356 310 q 424 449 404 407 q 445 472 432 465 q 478 478 458 478 l 553 478 q 526 455 538 465 q 505 430 515 444 q 483 394 494 415 q 457 340 472 372 q 427 280 442 311 q 399 219 413 249 q 376 163 386 189 q 364 119 367 138 q 365 56 354 75 q 390 36 375 38 q 441 58 415 36 q 490 115 467 81 q 535 190 514 149 q 575 268 557 231 q 594 281 583 286 q 594 256 604 276 z "},"v":{"ha":364,"x_min":49,"x_max":454,"o":"m 444 467 q 442 460 442 464 q 419 388 433 435 q 382 285 404 340 q 331 174 360 231 q 267 74 303 118 q 190 7 232 31 q 101 -7 149 -17 q 59 24 69 -1 q 51 83 49 49 q 65 160 53 118 q 92 242 76 201 q 70 227 81 224 q 67 246 60 231 q 79 269 74 257 q 92 293 85 281 q 109 342 101 314 q 118 396 117 369 q 115 442 119 422 q 96 465 110 461 q 125 471 111 468 q 148 474 136 474 q 164 476 160 475 q 189 478 179 478 q 205 475 199 479 q 213 458 211 471 q 214 419 215 444 q 200 335 213 385 q 174 251 188 286 q 149 182 161 217 q 130 118 136 147 q 125 67 124 89 q 140 40 126 46 q 192 44 165 29 q 243 90 218 58 q 292 168 268 122 q 338 265 317 214 q 319 337 322 297 q 326 404 317 376 q 365 474 340 450 q 410 505 389 499 q 442 500 431 511 q 444 467 454 489 z "},"w":{"ha":661,"x_min":31,"x_max":704,"o":"m 694 468 q 692 461 692 465 q 671 390 685 438 q 636 288 657 343 q 588 178 615 233 q 525 79 560 122 q 447 13 490 36 q 354 0 404 -11 q 313 28 326 6 q 295 78 299 50 q 295 135 292 106 q 306 188 299 165 q 274 133 293 165 q 230 72 254 101 q 178 21 206 42 q 121 0 150 0 q 67 17 92 0 q 35 64 42 33 q 33 107 31 86 q 44 148 36 128 q 62 187 51 168 q 82 225 72 206 q 69 229 75 225 q 69 247 63 233 q 82 271 76 258 q 94 296 88 283 q 136 376 115 336 q 172 449 157 417 q 194 472 181 465 q 226 478 207 478 l 311 478 q 289 460 299 469 q 269 439 279 451 q 247 408 258 426 q 222 361 236 390 q 188 292 203 325 q 158 232 172 263 q 135 182 144 201 q 108 99 113 133 q 113 47 104 64 q 142 31 122 29 q 189 58 163 33 q 256 144 221 89 q 322 259 290 200 q 377 371 353 318 q 414 449 401 424 q 434 472 421 465 q 467 478 447 478 l 551 478 q 526 459 543 469 q 496 426 508 449 q 476 394 485 408 q 460 364 468 379 q 442 329 451 349 q 419 281 433 310 q 406 250 415 272 q 385 200 396 228 q 365 142 374 172 q 355 86 357 111 q 360 44 353 61 q 390 25 368 26 q 448 41 419 22 q 502 93 476 60 q 551 172 528 126 q 594 267 575 217 q 577 338 579 299 q 583 406 575 378 q 619 476 597 451 q 662 506 642 500 q 693 501 682 511 q 694 468 704 490 z "},"x":{"ha":463,"x_min":-47,"x_max":569,"o":"m 563 260 q 524 181 546 225 q 474 96 503 136 q 408 28 446 56 q 321 0 371 0 q 275 13 294 0 q 243 45 256 25 q 224 89 231 65 q 219 136 218 113 q 219 150 219 143 q 221 164 219 157 q 142 40 185 94 q 61 -33 99 -15 q 7 -47 36 -46 q -43 -28 -22 -49 q -46 -17 -47 -22 q -40 -7 -44 -11 q -30 -1 -36 -3 q -19 -6 -24 0 q 51 -6 4 -26 q 99 33 72 4 q 151 101 125 61 q 199 189 176 142 q 238 285 222 236 q 247 338 243 313 q 250 390 251 364 q 243 417 250 407 q 224 428 236 428 q 196 415 213 428 q 160 369 179 401 q 141 337 153 358 q 117 290 129 315 q 92 243 104 265 q 74 210 79 221 q 57 199 64 193 q 61 228 50 206 q 85 278 71 249 q 117 339 100 308 q 150 395 133 369 q 181 433 167 421 q 219 458 200 449 q 258 465 239 468 q 301 446 286 463 q 320 404 315 429 q 322 349 325 379 q 314 290 319 319 q 354 359 332 325 q 399 421 376 393 q 443 467 422 449 q 479 490 464 486 q 501 492 490 493 q 521 486 513 492 q 533 472 529 481 q 535 449 538 463 q 515 417 531 429 q 479 404 499 404 q 444 428 451 404 q 401 381 424 408 q 359 321 379 353 q 322 254 339 289 q 294 186 306 219 q 294 83 283 125 q 332 35 306 40 q 394 49 365 28 q 450 106 424 69 q 499 185 476 142 q 542 267 522 229 q 561 281 553 286 q 563 260 569 275 z "},"y":{"ha":554,"x_min":-244,"x_max":661,"o":"m 651 253 q 588 131 615 181 q 526 47 560 82 q 444 -16 492 11 q 321 -69 396 -43 q 245 -193 288 -128 q 150 -313 203 -258 q 32 -403 97 -368 q -110 -439 -33 -439 q -192 -424 -162 -439 q -233 -383 -221 -408 q -240 -328 -244 -358 q -221 -269 -236 -299 q -166 -203 -201 -231 q -90 -156 -131 -175 q 72 -101 -19 -122 q 247 -56 163 -79 q 285 22 267 -21 q 318 108 303 65 q 346 190 333 151 q 367 257 358 229 q 324 181 349 225 q 267 98 299 138 q 199 30 236 58 q 122 1 163 1 q 98 3 111 1 q 72 13 85 6 q 49 32 60 19 q 35 64 39 44 q 33 107 31 86 q 44 148 36 128 q 62 187 51 168 q 82 225 72 206 q 69 229 75 225 q 69 247 63 233 q 82 271 76 258 q 94 296 88 283 q 136 376 115 336 q 172 449 157 417 q 194 472 181 465 q 226 478 207 478 l 311 478 q 287 460 301 469 q 260 428 272 450 q 194 306 224 367 q 135 182 164 244 q 107 92 110 128 q 117 41 104 56 q 157 37 131 26 q 217 86 183 47 q 276 165 246 119 q 335 260 307 211 q 390 358 364 310 q 435 449 415 407 q 456 472 443 465 q 489 478 469 478 l 564 478 q 530 447 544 464 q 503 407 515 429 q 479 356 490 385 q 456 293 468 328 q 402 140 429 222 q 344 -25 375 58 q 394 -7 367 -18 q 447 21 421 4 q 499 60 474 38 q 544 113 524 83 q 599 203 576 160 q 632 265 621 246 q 651 278 642 283 q 651 253 661 274 m 222 -100 q 151 -118 189 -108 q 74 -139 113 -128 q -1 -162 35 -150 q -67 -186 -37 -174 q -155 -247 -119 -210 q -202 -322 -190 -285 q -200 -385 -214 -358 q -142 -411 -186 -411 q -47 -383 -96 -411 q 47 -314 1 -354 q 130 -229 92 -274 q 192 -151 168 -185 q 206 -127 199 -140 q 222 -100 214 -114 z "},"z":{"ha":474,"x_min":-269,"x_max":582,"o":"m 572 256 q 524 162 549 207 q 472 80 500 117 q 409 17 443 43 q 331 -17 375 -8 q 173 -270 278 -164 q -83 -421 68 -376 q -178 -426 -136 -436 q -243 -390 -219 -417 q -268 -323 -267 -362 q -242 -240 -269 -283 q -159 -166 -214 -199 q -36 -107 -104 -133 q 106 -58 32 -81 q 246 -15 179 -36 q 262 45 254 10 q 270 112 269 81 q 260 163 271 143 q 219 178 250 183 q 190 165 206 171 q 158 151 175 158 q 144 151 150 149 q 135 159 138 154 q 136 169 133 164 q 147 178 139 175 q 208 204 182 188 q 252 239 233 221 q 283 273 271 257 q 303 300 296 289 q 318 369 328 338 q 280 412 308 400 q 214 409 251 424 q 144 340 176 394 q 128 313 138 329 q 109 277 119 296 q 89 238 99 258 q 71 201 79 218 q 53 188 63 183 q 54 217 43 193 q 93 293 74 253 q 136 375 113 333 q 213 460 168 433 q 299 488 258 488 q 368 466 340 489 q 394 401 396 443 q 358 303 392 356 q 258 210 325 250 q 332 185 311 211 q 354 119 353 158 q 353 99 354 113 q 349 69 351 85 q 344 40 347 54 q 339 18 342 26 q 403 49 374 25 q 460 106 433 72 q 509 182 486 140 q 553 267 532 224 q 572 281 563 285 q 572 256 582 276 m 233 -50 q 139 -78 188 -65 q 45 -106 90 -92 q -40 -137 0 -121 q -111 -171 -81 -153 q -185 -240 -157 -197 q -219 -322 -214 -283 q -203 -385 -225 -361 q -126 -397 -181 -408 q -35 -361 -86 -389 q 66 -289 15 -333 q 161 -184 117 -244 q 233 -50 206 -124 z "},"{":{"ha":513,"x_min":11,"x_max":600,"o":"m 585 1008 q 599 1003 597 1008 q 597 992 600 999 q 588 981 594 986 q 578 976 582 976 q 435 939 476 976 q 385 854 401 910 q 356 736 368 799 q 327 613 343 674 q 278 511 311 553 q 93 422 225 446 q 236 347 204 401 q 249 278 250 322 q 239 186 247 233 q 220 94 231 139 q 204 25 210 50 q 214 -115 183 -81 q 339 -151 244 -151 q 347 -156 344 -151 q 348 -166 349 -160 q 344 -177 347 -172 q 335 -182 340 -182 l 328 -182 q 146 -133 192 -182 q 122 -60 122 -108 q 130 42 121 -11 q 152 143 139 94 q 169 215 165 192 q 160 356 190 318 q 111 392 140 379 q 21 404 79 404 q 12 410 11 404 q 17 422 13 415 q 29 442 22 431 q 189 490 147 454 q 254 631 233 524 q 269 712 261 665 q 291 805 278 758 q 324 893 304 851 q 376 960 344 935 q 579 1008 442 1008 l 585 1008 l 585 1008 z "},"|":{"ha":674,"x_min":307,"x_max":367,"o":"m 307 -321 l 307 1040 l 367 1040 l 367 -321 l 307 -321 z "},"}":{"ha":674,"x_min":24,"x_max":671,"o":"m 663 422 q 670 415 671 421 q 665 403 669 410 q 650 385 660 394 q 485 336 547 385 q 437 278 456 314 q 403 198 418 242 q 376 106 389 154 q 348 13 364 58 q 308 -71 332 -32 q 247 -135 283 -110 q 43 -182 179 -182 l 36 -182 q 28 -166 24 -181 q 47 -151 33 -151 q 194 -114 149 -151 q 253 -26 232 -83 q 294 96 275 31 q 338 224 314 161 q 407 326 363 286 q 588 403 467 379 q 454 478 483 421 q 446 548 442 504 q 461 638 450 592 q 486 727 472 685 q 507 794 500 769 q 514 933 539 897 q 389 971 489 971 q 378 975 378 971 q 382 986 378 979 q 397 1003 388 993 l 404 1003 q 583 954 547 1003 q 602 889 603 929 q 590 802 601 849 q 561 706 578 756 q 531 610 544 656 q 515 528 518 565 q 529 468 513 490 q 663 422 556 432 z "},"~":{"ha":674,"x_min":218,"x_max":631,"o":"m 629 686 q 606 647 619 667 q 576 610 593 626 q 538 583 558 593 q 492 575 517 572 q 449 585 469 576 q 407 603 428 593 q 365 620 386 613 q 324 629 344 628 q 281 617 299 632 q 251 583 263 603 q 244 579 250 581 q 233 578 239 578 q 223 581 228 579 q 219 586 218 583 q 243 623 229 604 q 274 658 257 642 q 311 683 290 674 q 356 690 332 692 q 399 681 378 689 q 442 665 421 674 q 483 649 463 657 q 524 640 503 642 q 570 651 551 638 q 600 689 589 665 q 606 692 601 692 q 617 692 611 693 q 626 690 622 692 q 629 686 631 688 z "},"":{"ha":360,"x_min":0,"x_max":0,"o":""},"":{"ha":557,"x_min":-61,"x_max":526,"o":"m -61 -401 q -39 -362 -58 -393 q 11 -285 -19 -332 q 80 -182 42 -239 q 158 -65 118 -125 q 238 53 199 -6 q 312 162 278 113 q 370 247 346 211 q 404 299 394 283 l 418 297 l 417 288 l 64 -385 q 43 -405 57 -399 q 13 -412 29 -411 q -21 -413 -4 -414 q -51 -412 -37 -412 l -58 -410 l -61 -401 m 408 410 q 432 450 413 433 q 475 467 451 467 q 513 450 499 467 q 522 410 526 433 q 499 369 519 386 q 456 353 479 353 q 418 369 432 353 q 408 410 404 386 z "},"":{"ha":439,"x_min":43,"x_max":469,"o":"m 467 1140 q 432 1055 458 1118 q 371 906 406 992 q 424 866 404 894 q 443 801 444 838 q 422 741 442 767 q 368 715 401 715 q 321 735 340 715 q 303 782 301 754 q 322 828 304 810 q 368 844 340 846 q 397 836 382 844 q 415 819 413 828 q 408 859 419 843 q 385 878 396 875 q 344 874 367 882 q 297 850 321 867 q 250 810 274 833 q 207 761 226 788 q 147 653 171 711 q 126 533 124 596 q 151 462 129 482 q 203 442 172 442 q 285 473 246 442 q 357 544 325 504 q 367 551 363 551 q 374 547 372 551 q 376 537 376 543 q 374 526 376 531 q 297 450 340 479 q 196 418 254 421 q 178 376 192 407 q 147 303 164 344 q 115 215 131 261 q 91 131 99 169 q 87 64 83 92 q 114 31 90 36 q 126 23 124 28 q 126 13 129 18 q 117 6 124 8 q 101 6 110 3 q 58 46 68 17 q 51 115 47 75 q 71 201 56 156 q 103 288 86 246 q 137 365 121 331 q 158 418 153 400 q 87 446 113 422 q 52 504 61 469 q 48 581 43 539 q 67 666 53 624 q 101 746 81 708 q 143 810 121 783 q 181 847 160 828 q 227 880 203 865 q 277 903 251 894 q 328 913 303 913 l 336 913 q 385 1035 361 975 q 432 1147 410 1094 q 448 1169 440 1165 q 460 1170 456 1174 q 467 1158 465 1167 q 467 1140 469 1149 z "},"":{"ha":796,"x_min":33,"x_max":1136,"o":"m 1136 738 q 1119 671 1136 706 q 1076 604 1101 636 q 1022 544 1051 572 q 969 500 993 517 q 953 493 963 493 q 946 499 946 493 q 954 510 946 504 q 1003 554 975 528 q 1057 612 1032 581 q 1099 676 1082 643 q 1117 739 1117 708 q 1102 774 1117 764 q 1064 785 1088 785 q 990 767 1026 785 q 919 722 953 749 q 858 663 886 694 q 811 604 831 632 q 771 538 789 572 q 738 468 753 504 q 714 414 726 440 q 689 360 701 388 q 754 356 719 356 q 794 360 774 356 q 808 364 797 361 q 819 367 818 367 q 826 359 825 367 q 826 349 826 351 q 826 342 826 346 q 822 338 825 339 q 789 329 808 332 q 754 326 769 326 q 715 328 735 326 q 674 332 694 329 q 555 152 621 231 q 388 15 489 74 q 446 -19 410 0 q 522 -54 482 -37 q 601 -85 563 -71 q 664 -104 639 -99 q 732 -112 697 -112 q 788 -106 758 -112 q 843 -87 818 -100 q 885 -51 868 -74 q 901 4 901 -29 q 907 11 901 11 q 913 1 913 11 l 913 -1 q 890 -62 908 -37 q 845 -100 872 -86 q 786 -119 818 -114 q 724 -125 754 -125 q 657 -120 690 -125 q 592 -108 624 -115 q 531 -92 571 -104 q 449 -65 492 -79 q 369 -35 407 -50 q 314 -10 332 -19 q 258 -30 286 -22 q 199 -37 229 -37 q 149 -32 178 -37 q 95 -14 121 -26 q 51 17 69 -1 q 33 63 33 36 q 43 99 33 83 q 69 124 53 114 q 103 140 85 135 q 140 144 122 144 q 201 135 172 144 q 256 110 229 125 q 307 77 282 96 q 356 40 332 58 q 418 106 389 68 q 473 183 447 143 q 522 266 499 224 q 568 346 546 308 q 544 348 557 347 q 521 349 532 349 q 483 347 501 349 q 446 342 465 346 l 421 333 q 416 331 418 332 q 411 329 414 329 q 406 337 407 329 q 404 347 404 344 q 408 358 404 356 q 463 374 433 371 q 521 378 493 378 q 583 374 551 378 q 633 457 604 410 q 696 553 661 504 q 770 649 731 601 q 853 733 810 696 q 943 792 897 769 q 1036 815 989 815 q 1072 810 1054 815 q 1104 797 1090 806 q 1127 773 1118 788 q 1136 738 1136 758 m 293 3 q 248 32 275 14 q 192 68 221 50 q 135 99 163 86 q 88 111 107 111 q 57 101 69 111 q 44 72 44 92 q 56 35 44 51 q 86 6 68 18 q 125 -15 104 -7 q 164 -24 146 -22 q 176 -25 171 -25 q 189 -25 182 -25 q 293 3 244 -25 z "},"":{"ha":932,"x_min":1,"x_max":908,"o":"m 654 507 q 672 426 675 472 q 652 355 671 389 q 610 293 633 321 l 757 65 l 540 242 q 415 208 479 208 q 301 240 351 208 l 1 58 l 251 294 q 235 371 232 331 q 253 447 236 411 q 297 511 269 483 l 153 736 l 367 564 q 429 588 396 579 q 494 597 463 597 q 553 590 524 597 q 606 564 582 582 l 908 744 l 654 507 m 457 544 q 405 534 431 544 q 360 504 379 524 q 328 458 340 485 q 314 401 315 432 q 323 344 313 369 q 352 299 333 318 q 396 269 371 279 q 447 258 421 258 q 500 269 474 258 q 547 298 526 279 q 580 343 567 317 q 594 401 593 369 q 585 458 596 432 q 554 504 574 485 q 509 534 535 524 q 457 544 483 544 z "},"":{"ha":1003,"x_min":69,"x_max":1011,"o":"m 1011 761 q 1010 745 1011 756 q 1000 735 1008 735 q 990 744 990 735 q 992 753 990 749 q 993 761 993 757 q 971 813 993 790 q 919 836 949 836 q 862 814 893 836 q 800 757 831 792 q 739 678 769 722 q 683 593 708 635 q 636 515 657 551 q 603 457 615 478 l 747 457 q 750 453 750 457 q 741 436 750 446 q 725 426 732 426 l 586 426 q 549 360 567 393 q 513 296 532 328 l 653 296 q 657 292 657 296 q 648 275 657 285 q 632 265 639 265 l 493 265 q 419 160 461 217 q 328 53 378 103 q 219 -28 278 4 q 96 -61 161 -61 q 79 -61 89 -61 q 69 -51 69 -61 q 76 -43 69 -43 q 89 -43 83 -43 q 187 -8 138 -43 q 281 75 236 26 q 362 176 325 124 q 422 265 399 229 l 107 265 q 103 269 103 265 q 112 286 103 276 q 128 296 121 296 l 443 296 l 450 307 q 447 367 450 338 q 440 426 444 396 l 439 426 l 244 426 q 240 429 240 426 q 249 447 240 436 q 265 457 258 457 l 436 457 q 415 544 429 492 q 375 646 400 597 q 315 730 350 694 q 233 765 279 765 q 185 750 207 765 q 149 712 164 735 q 125 662 133 689 q 117 611 117 635 q 122 572 117 590 q 135 538 128 553 q 147 515 142 524 q 153 504 153 506 q 143 494 153 494 q 136 499 140 494 q 109 552 118 522 q 100 611 100 582 q 109 669 100 639 q 135 725 118 700 q 177 767 153 750 q 233 783 201 783 q 317 760 279 783 q 384 703 354 738 q 435 626 414 668 q 469 547 457 585 q 490 466 483 507 q 500 385 497 425 q 514 406 507 396 q 528 428 521 417 q 532 441 526 436 q 542 451 538 446 q 572 497 557 471 q 600 546 586 524 q 658 631 622 579 q 738 733 694 683 q 828 819 781 783 q 919 854 875 854 q 984 826 957 854 q 1011 761 1011 799 z "},"":{"ha":674,"x_min":233,"x_max":594,"o":"m 464 447 l 397 454 l 522 1040 l 594 1040 l 464 447 m 306 -321 l 233 -321 l 367 306 l 432 300 l 306 -321 z "},"":{"ha":1311,"x_min":113,"x_max":1304,"o":"m 926 -18 q 890 -39 908 -29 q 851 -57 871 -49 q 886 -158 888 -106 q 856 -258 885 -210 q 774 -344 826 -306 q 658 -407 722 -383 q 544 -435 606 -425 q 421 -447 482 -446 q 305 -441 360 -449 q 213 -414 250 -433 q 151 -367 175 -396 q 120 -306 128 -337 q 124 -240 113 -274 q 167 -181 135 -207 q 260 -136 201 -153 q 281 -135 274 -132 q 288 -144 288 -139 q 278 -156 288 -150 q 253 -164 269 -162 q 188 -198 210 -169 q 167 -262 165 -226 q 197 -335 169 -299 q 277 -392 224 -371 q 412 -411 331 -412 q 606 -369 493 -410 q 714 -309 668 -347 q 776 -225 760 -271 q 772 -131 792 -179 q 681 -39 751 -82 q 608 -1 649 -19 q 523 38 567 18 q 435 80 479 58 q 353 125 392 101 q 249 219 282 169 q 210 321 215 268 q 227 426 206 374 q 288 528 249 479 q 379 622 326 578 q 490 701 432 667 q 565 739 525 722 q 530 840 529 788 q 560 940 531 892 q 641 1027 589 988 q 758 1090 693 1067 q 872 1119 810 1108 q 996 1131 935 1129 q 1112 1124 1057 1132 q 1204 1097 1167 1115 q 1265 1050 1242 1079 q 1297 989 1289 1021 q 1293 924 1304 957 q 1250 864 1282 890 q 1157 819 1215 836 q 1136 819 1143 815 q 1129 828 1129 822 q 1138 839 1129 833 q 1164 847 1147 844 q 1229 881 1207 853 q 1249 946 1251 910 q 1220 1018 1247 982 q 1140 1075 1193 1054 q 1004 1094 1086 1096 q 811 1053 922 1093 q 703 992 749 1031 q 641 908 657 954 q 645 814 625 863 q 736 722 665 765 q 809 684 768 703 q 894 645 850 665 q 981 603 938 625 q 1064 558 1025 582 q 1168 465 1135 515 q 1206 363 1201 415 q 1190 257 1211 310 q 1129 155 1168 204 q 1038 61 1090 106 q 926 -18 985 17 m 636 675 q 594 707 613 689 l 568 694 q 420 584 481 649 q 335 451 360 519 q 326 315 311 382 q 404 197 342 249 q 485 148 436 171 q 586 103 533 125 q 690 58 639 81 q 781 8 742 35 q 822 -24 801 -4 l 849 -11 q 997 99 936 35 q 1081 233 1057 164 q 1090 368 1106 301 q 1013 486 1075 435 q 932 535 981 513 q 831 581 883 558 q 726 626 778 603 q 636 675 675 649 z "},"":{"ha":386,"x_min":53,"x_max":324,"o":"m 324 644 q 311 612 324 625 q 279 599 299 599 q 246 611 260 599 q 232 644 232 624 q 244 677 232 664 q 276 690 257 690 q 310 678 296 690 q 324 644 324 665 m 144 644 q 132 612 144 625 q 100 599 119 599 q 67 611 81 599 q 53 644 53 624 q 65 677 53 664 q 97 690 78 690 q 131 678 117 690 q 144 644 144 665 z "},"":{"ha":996,"x_min":26,"x_max":974,"o":"m 97 367 q 112 219 89 288 q 183 101 135 151 q 302 22 232 50 q 456 -3 372 -6 q 615 31 539 -1 q 752 117 692 64 q 852 240 813 169 q 901 389 892 310 q 886 537 910 468 q 814 656 863 606 q 696 735 765 707 q 543 761 626 763 q 383 726 460 758 q 245 641 306 694 q 145 517 185 588 q 97 367 106 446 m 36 367 q 90 524 46 450 q 204 655 135 599 q 362 745 274 711 q 546 782 450 779 q 723 754 642 783 q 861 672 804 725 q 946 547 918 618 q 964 392 974 475 q 910 234 954 308 q 796 103 865 160 q 638 13 726 47 q 454 -22 550 -21 q 278 4 358 -25 q 140 86 197 33 q 55 211 83 139 q 36 367 26 283 m 592 293 q 613 305 604 313 q 613 282 622 297 q 540 203 582 233 q 432 172 499 172 q 333 208 361 172 q 308 294 306 243 q 334 403 310 346 q 392 504 358 460 q 467 574 425 549 q 551 600 508 600 q 618 576 597 600 q 635 517 639 553 q 623 486 632 501 q 602 460 614 471 q 577 446 590 449 q 554 453 564 443 q 576 481 565 464 q 592 514 588 499 q 592 560 600 546 q 568 574 585 574 q 534 564 551 574 q 499 540 517 554 q 467 506 482 525 q 439 469 451 488 q 419 438 431 458 q 398 392 408 417 q 381 340 388 367 q 374 286 374 313 q 390 222 374 250 q 444 193 406 193 q 528 223 493 193 q 592 293 564 253 z "},"":{"ha":519,"x_min":67,"x_max":353,"o":"m 347 715 q 328 678 339 700 q 303 637 317 657 q 274 602 289 617 q 242 586 258 588 q 224 590 233 586 q 208 603 214 593 q 200 630 201 613 q 207 675 199 647 q 185 643 199 661 q 157 610 172 625 q 105 586 128 581 q 74 619 82 592 q 78 690 67 647 q 129 781 90 733 q 166 813 144 799 q 210 831 188 826 q 254 833 233 836 q 290 813 275 829 q 294 798 297 806 q 283 793 292 790 q 260 817 276 813 q 224 810 243 821 q 176 769 200 797 q 132 711 151 742 q 117 682 128 704 q 103 640 106 660 q 106 614 100 622 q 120 606 111 606 q 142 614 129 606 q 167 636 154 622 q 201 683 186 658 q 229 733 215 708 q 250 768 240 756 q 276 778 260 781 q 291 776 283 778 q 306 775 299 774 q 290 755 300 769 q 271 721 281 740 q 253 681 261 701 q 242 646 244 661 q 247 604 232 604 q 272 618 258 604 q 297 651 285 632 q 321 690 310 669 q 338 721 332 710 q 347 728 342 731 q 347 715 353 726 z "},"":{"ha":626,"x_min":156,"x_max":663,"o":"m 663 413 q 622 371 651 396 q 557 320 592 346 q 489 272 522 294 q 439 236 456 249 l 438 47 l 431 33 l 421 29 l 410 33 q 395 75 403 46 q 381 137 388 104 q 367 201 374 169 q 357 249 361 232 q 388 268 364 253 q 444 303 413 283 q 511 344 476 322 q 576 385 546 367 q 628 415 607 403 q 653 426 649 426 l 661 422 l 663 413 m 463 413 q 422 372 453 397 q 356 319 392 346 q 285 270 319 293 q 238 236 251 247 l 236 47 l 229 33 l 219 29 q 208 33 213 29 q 178 139 189 82 q 156 249 168 196 q 187 268 163 253 q 242 303 211 283 q 309 344 274 322 q 375 385 344 367 q 426 415 406 403 q 451 426 447 426 l 461 422 l 463 413 z "},"":{"ha":1122,"x_min":99,"x_max":929,"o":"m 858 50 q 846 28 856 36 q 821 19 836 19 q 801 29 810 19 q 794 50 792 39 l 851 318 q 489 319 669 319 q 126 318 308 318 q 108 322 118 318 q 99 336 99 325 q 103 350 99 342 q 113 366 107 358 q 127 379 119 374 q 140 385 135 385 l 929 385 l 858 50 z "},"":{"ha":564,"x_min":203,"x_max":564,"o":"m 539 293 q 367 285 443 293 q 228 269 290 276 q 214 278 221 268 q 205 301 207 289 q 208 325 203 314 q 228 336 213 336 q 342 335 271 336 q 533 331 413 333 q 553 324 546 331 q 563 311 561 318 q 558 299 564 304 q 539 293 553 293 z "},"":{"ha":996,"x_min":26,"x_max":974,"o":"m 97 367 q 112 219 89 288 q 183 101 135 151 q 302 22 232 50 q 456 -3 372 -6 q 615 31 539 -1 q 752 117 692 64 q 852 240 813 169 q 901 389 892 310 q 886 537 910 468 q 814 656 863 606 q 696 735 765 707 q 543 761 626 763 q 383 726 460 758 q 245 641 306 694 q 145 517 185 588 q 97 367 106 446 m 36 367 q 90 524 46 450 q 204 655 135 599 q 362 745 274 711 q 546 782 450 779 q 723 754 642 783 q 861 672 804 725 q 946 547 918 618 q 964 392 974 475 q 910 234 954 308 q 796 103 865 160 q 638 13 726 47 q 454 -22 550 -21 q 278 4 358 -25 q 140 86 197 33 q 55 211 83 139 q 36 367 26 283 m 793 306 q 784 286 790 299 q 769 258 778 274 q 752 228 761 243 q 733 203 743 213 q 701 181 719 188 q 665 175 683 175 q 628 183 646 175 q 596 206 610 190 q 565 254 576 226 q 546 309 553 282 q 535 360 539 336 q 531 399 532 385 q 487 317 510 357 q 428 239 464 278 q 342 183 390 197 q 243 176 294 169 q 181 206 197 182 q 173 252 164 229 q 214 287 182 275 q 296 282 246 299 q 301 276 303 279 q 292 275 299 272 q 236 277 257 288 q 210 249 215 267 q 217 213 206 231 q 258 193 228 194 q 328 208 296 190 q 388 254 360 225 q 439 322 415 283 q 486 401 463 361 q 555 523 522 464 q 624 622 588 582 q 521 624 575 626 q 408 608 467 621 q 292 556 333 593 q 243 483 251 519 q 249 435 238 454 q 281 408 261 415 q 325 406 301 400 q 368 431 349 411 q 385 452 379 442 q 390 468 390 463 q 395 476 392 479 q 397 467 399 472 q 375 421 393 436 q 324 390 353 397 q 269 392 294 383 q 228 423 244 400 q 214 483 211 446 q 229 530 215 506 q 269 575 243 554 q 331 611 294 596 q 415 633 367 626 q 636 636 539 650 q 658 651 656 656 q 657 633 661 647 q 687 628 672 631 q 714 622 701 625 q 795 576 774 606 q 805 516 817 546 q 750 460 793 486 q 639 422 707 433 q 598 417 622 419 q 564 415 574 415 q 569 390 565 408 q 581 347 574 372 q 600 295 589 322 q 628 243 611 268 q 673 199 650 210 q 728 219 696 188 q 763 268 749 240 q 782 306 778 296 q 792 314 786 313 q 793 306 797 315 m 711 606 q 688 610 700 608 q 661 615 675 613 q 610 526 636 569 q 561 433 585 482 q 592 436 575 435 q 628 440 608 438 q 701 467 668 446 q 749 515 733 489 q 757 567 764 542 q 711 606 750 593 z "},"":{"ha":674,"x_min":247,"x_max":568,"o":"m 544 560 l 247 560 l 272 613 l 568 613 l 544 560 z "},"":{"ha":449,"x_min":138,"x_max":315,"o":"m 315 956 q 289 892 315 918 q 226 867 263 867 q 161 893 185 867 q 138 956 138 919 q 164 1018 138 992 q 226 1044 190 1044 q 289 1018 263 1044 q 315 956 315 992 m 289 954 q 271 1000 289 982 q 225 1018 253 1018 q 180 1000 199 1018 q 161 954 161 982 q 169 920 161 933 q 187 899 176 907 q 208 890 197 892 q 225 888 219 888 q 269 908 250 888 q 289 954 289 929 z "},"":{"ha":636,"x_min":182,"x_max":672,"o":"m 649 399 q 667 392 661 399 q 672 379 672 386 q 665 367 672 372 q 644 361 658 361 q 555 358 604 361 q 460 353 506 356 q 441 247 451 301 q 428 163 431 193 q 415 149 426 156 q 390 140 403 142 q 367 142 376 138 q 361 163 357 147 q 369 195 364 175 q 381 240 374 215 q 395 294 388 265 q 410 350 403 322 q 356 346 385 347 q 301 343 328 344 q 251 340 274 342 q 213 338 228 339 q 201 347 206 336 q 198 369 197 357 q 206 393 199 382 q 229 404 214 404 q 262 403 240 404 q 310 402 283 403 q 365 401 336 401 q 422 400 394 400 q 434 445 428 419 q 447 499 440 471 q 459 553 453 526 q 471 601 465 581 q 481 622 474 614 q 497 631 489 629 q 508 626 504 632 q 510 607 513 621 q 500 561 506 588 q 489 506 494 535 q 478 449 483 476 q 468 399 472 421 q 556 399 508 399 q 649 399 604 400 m 574 49 q 474 47 525 49 q 374 43 422 46 q 281 38 325 40 q 207 31 238 35 q 193 40 200 29 q 184 63 186 50 q 187 86 182 75 q 207 97 192 97 q 349 93 251 97 q 568 86 446 89 q 588 81 581 86 q 597 67 596 75 q 593 54 599 60 q 574 49 588 49 z "},"":{"ha":440,"x_min":-8,"x_max":454,"o":"m 454 785 q 438 735 454 763 q 397 676 422 707 q 340 615 372 646 q 274 554 307 583 q 211 499 242 525 q 158 456 181 474 l 146 444 q 190 417 160 431 q 246 403 219 403 q 269 408 256 403 q 298 422 283 414 q 325 441 313 431 q 346 461 338 451 q 358 472 351 468 q 369 476 365 476 q 373 469 374 475 q 363 447 372 463 q 336 415 351 433 q 303 381 321 397 q 265 353 285 365 q 225 342 244 342 q 142 355 181 340 q 79 385 103 369 l 18 338 q -6 335 -4 331 q -1 354 -8 339 q 33 382 13 365 q 75 416 53 399 q 117 450 97 433 q 147 478 136 467 q 213 540 175 503 q 285 618 251 576 q 344 701 319 660 q 368 778 368 743 q 353 815 368 807 q 319 819 339 824 q 280 802 300 815 q 249 776 260 789 q 196 692 221 744 q 175 679 189 676 q 167 697 161 682 q 195 756 176 726 q 239 810 214 786 q 295 849 264 835 q 363 864 326 864 q 428 844 401 864 q 454 785 454 824 z "},"":{"ha":414,"x_min":6,"x_max":439,"o":"m 439 804 q 423 751 439 775 q 383 706 407 726 q 329 671 358 686 q 274 644 300 656 q 336 619 308 639 q 364 560 364 600 q 340 478 364 518 q 277 406 315 438 q 190 356 239 375 q 94 338 142 338 q 42 349 64 338 q 10 389 21 361 q 6 408 6 400 q 24 407 7 415 q 49 374 31 388 q 89 360 67 360 q 165 380 129 360 q 229 431 201 400 q 273 499 257 463 q 289 569 289 536 q 277 606 289 592 q 246 621 265 621 q 215 613 236 621 q 182 603 194 606 q 163 601 169 600 q 154 606 156 603 q 156 613 153 610 q 163 619 158 617 q 222 640 189 625 q 285 679 256 656 q 333 733 314 703 q 353 799 353 764 q 340 815 353 810 q 317 821 328 821 q 258 799 288 821 q 207 754 228 778 q 193 747 200 747 q 189 764 186 746 q 264 835 221 803 q 360 867 307 867 q 415 852 392 867 q 439 804 439 838 z "},"":{"ha":371,"x_min":71,"x_max":349,"o":"m 343 697 q 321 680 340 692 q 273 654 301 668 q 213 625 244 640 q 153 598 181 610 q 106 579 125 586 q 83 574 86 572 q 79 592 71 581 q 105 614 81 596 q 158 653 129 632 q 215 692 188 674 q 250 718 242 711 q 288 738 267 731 q 331 735 310 746 q 345 719 342 729 q 343 697 349 708 z "},"":{"ha":450,"x_min":-181,"x_max":574,"o":"m 574 224 q 541 157 561 197 q 494 79 521 117 q 437 15 468 42 q 372 -11 406 -11 q 318 12 336 -11 q 300 69 300 35 q 314 143 300 104 q 282 97 301 122 q 240 47 263 71 q 190 8 217 24 q 138 -8 164 -8 q 100 2 118 -8 q 72 31 82 13 l -107 -361 q -116 -365 -110 -364 q -125 -365 -122 -365 q -150 -363 -136 -365 q -174 -357 -164 -361 q -178 -354 -175 -356 q -179 -350 -181 -353 l 89 176 q 157 315 124 246 q 233 447 190 383 l 236 447 q 258 440 246 440 q 293 449 274 440 q 325 469 313 458 l 328 467 q 291 415 307 443 q 260 360 275 388 q 228 305 244 332 q 196 250 213 278 q 171 204 185 231 q 144 149 157 178 q 123 93 132 121 q 114 44 114 65 q 122 17 114 28 q 149 7 129 7 q 210 37 178 7 q 273 106 243 67 q 327 187 303 146 q 364 250 351 228 q 419 351 392 300 q 471 456 447 403 l 474 456 q 508 446 490 446 q 534 453 522 446 q 551 474 546 461 l 556 472 l 447 263 q 420 213 436 243 q 389 149 404 182 q 363 83 374 115 q 351 31 351 51 q 356 11 351 19 q 375 3 361 3 q 433 30 404 3 q 488 94 463 57 q 534 168 514 131 q 563 226 554 206 l 565 226 l 571 226 l 574 224 l 574 224 z "},"":{"ha":560,"x_min":225,"x_max":839,"o":"m 814 839 l 786 839 l 479 0 l 386 0 l 693 839 l 625 839 l 318 0 l 225 0 l 410 504 q 276 553 315 504 q 274 701 238 603 q 344 813 296 763 q 458 889 392 863 q 530 906 494 903 q 600 908 565 908 l 839 908 l 814 839 z "},"":{"ha":363,"x_min":169,"x_max":292,"o":"m 288 322 q 264 282 283 299 q 221 265 244 265 q 183 282 197 265 q 174 322 169 299 q 197 363 176 346 q 240 379 217 379 q 278 363 264 379 q 288 322 292 346 z "},"":{"ha":526,"x_min":100,"x_max":453,"o":"m 453 -160 q 430 -220 453 -193 q 381 -265 407 -247 q 329 -285 358 -281 q 275 -289 300 -289 q 233 -285 263 -289 q 174 -275 204 -282 q 122 -256 144 -268 q 100 -225 100 -243 q 108 -215 100 -215 q 120 -221 115 -215 q 129 -231 125 -226 q 185 -258 149 -250 q 249 -265 222 -265 q 284 -263 265 -265 q 322 -255 303 -261 q 356 -240 340 -249 q 382 -215 372 -231 q 396 -188 390 -203 q 401 -158 401 -174 q 392 -123 401 -137 q 367 -99 382 -108 q 333 -84 351 -89 q 297 -79 315 -79 q 261 -85 278 -79 q 232 -97 244 -90 q 211 -108 219 -103 q 197 -112 203 -112 q 179 -107 188 -112 q 171 -92 171 -101 q 176 -79 171 -85 q 197 -62 181 -75 q 231 -35 213 -50 q 265 -10 250 -21 q 283 1 281 1 q 290 -3 288 1 q 294 -10 293 -7 q 281 -19 292 -12 q 260 -34 271 -26 q 242 -49 250 -42 q 233 -58 233 -56 q 288 -54 260 -54 q 340 -60 311 -54 q 393 -78 368 -65 q 435 -110 418 -90 q 453 -160 453 -131 z "},"":{"ha":342,"x_min":44,"x_max":375,"o":"m 340 856 q 368 856 361 858 q 368 835 375 854 q 244 596 301 715 q 121 356 188 476 q 103 344 117 349 q 77 340 90 340 q 54 340 64 339 q 44 347 44 342 l 251 732 q 200 699 231 715 q 144 664 169 683 q 131 657 138 660 q 119 655 124 654 q 117 660 115 656 q 129 676 118 665 l 151 693 q 224 756 185 718 q 293 825 263 794 q 313 844 300 833 q 340 856 325 854 z "},"":{"ha":379,"x_min":76,"x_max":344,"o":"m 342 722 q 326 686 335 707 q 303 646 317 665 q 271 613 289 626 q 229 599 253 599 q 190 617 206 599 q 129 593 158 592 q 83 633 89 594 q 96 719 76 672 q 121 765 106 743 q 154 802 136 786 q 191 827 172 818 q 228 836 210 836 q 259 824 247 836 q 274 795 271 813 q 274 755 278 778 q 261 710 271 732 q 238 668 254 690 q 203 628 222 646 q 236 611 211 611 q 271 626 254 611 q 300 662 288 642 q 321 701 313 682 q 333 729 329 721 q 340 733 336 735 q 342 722 344 731 m 242 813 q 191 791 219 819 q 143 721 163 763 q 119 646 124 678 q 135 608 115 614 q 182 625 157 604 q 171 660 171 643 q 177 681 172 672 q 196 689 182 689 q 210 683 204 689 q 217 669 217 678 q 216 665 217 667 q 215 661 215 664 q 226 678 221 669 q 236 699 232 688 q 259 774 257 742 q 242 813 261 807 z "},"":{"ha":626,"x_min":38,"x_max":546,"o":"m 261 31 l 250 29 l 240 32 l 240 44 q 281 86 251 61 q 347 136 311 111 q 415 184 382 161 q 464 219 447 207 q 463 263 464 233 q 463 325 463 293 q 465 385 463 357 q 471 421 467 413 l 482 426 l 493 421 q 506 385 499 415 q 522 320 514 356 q 537 252 531 285 q 546 208 543 219 l 261 31 m 60 31 l 50 29 q 39 32 44 29 l 38 38 q 53 60 38 44 q 94 97 69 76 q 148 138 119 117 q 201 177 176 160 q 244 206 226 194 q 263 219 261 218 l 264 408 q 267 415 267 411 q 271 421 268 418 l 282 426 l 294 421 q 324 316 314 372 q 344 208 333 260 l 60 31 z "},"":{"ha":864,"x_min":44,"x_max":850,"o":"m 757 842 q 778 854 765 850 q 803 857 792 858 q 820 850 814 856 q 818 835 826 844 q 731 726 788 797 q 605 567 675 654 q 459 387 535 479 q 314 214 383 294 q 189 75 244 133 q 106 -1 133 17 q 83 -7 88 -12 q 90 13 79 -1 q 192 131 131 58 q 321 288 253 204 q 459 460 389 372 q 590 626 529 549 q 696 760 651 703 q 757 842 740 818 m 340 856 q 368 856 361 858 q 368 835 375 854 q 244 596 301 715 q 121 356 188 476 q 103 344 117 349 q 77 340 90 340 q 54 340 64 339 q 44 347 44 342 l 251 732 q 200 699 231 715 q 144 664 169 683 q 131 657 138 660 q 119 655 124 654 q 117 660 115 656 q 129 676 118 665 l 151 693 q 224 756 185 718 q 293 825 263 794 q 313 844 300 833 q 340 856 325 854 m 733 472 q 758 494 742 486 q 793 503 775 501 q 827 503 811 506 q 850 496 843 500 q 822 460 850 488 q 755 398 794 433 q 670 324 715 363 q 589 254 625 285 q 558 227 572 240 q 529 194 544 214 l 697 199 q 708 222 703 211 q 720 244 714 232 q 733 269 726 256 q 750 303 740 283 q 774 318 758 311 q 806 327 790 325 q 830 325 821 329 q 831 308 839 321 q 824 294 831 307 q 810 265 818 282 q 792 231 801 249 q 778 201 783 213 l 785 201 q 811 188 811 197 q 779 167 811 179 l 758 167 l 678 10 q 665 3 675 7 q 641 -3 654 0 q 614 -6 628 -6 q 590 -1 600 -7 q 601 22 590 0 q 627 70 613 43 q 656 124 642 97 q 676 163 669 150 l 472 158 l 478 185 q 515 227 494 206 q 557 269 535 249 q 586 299 572 285 q 614 329 600 314 q 675 399 644 364 q 733 472 706 435 z "},"":{"ha":864,"x_min":38,"x_max":858,"o":"m 715 842 q 737 854 724 850 q 761 857 750 858 q 778 850 772 856 q 776 835 785 844 q 690 726 746 797 q 563 567 633 654 q 417 387 493 479 q 272 214 342 294 q 147 75 203 133 q 64 -1 92 17 q 42 -7 46 -12 q 49 13 38 -1 q 150 131 89 58 q 279 288 211 204 q 418 460 347 372 q 549 626 489 549 q 654 760 610 703 q 715 842 699 818 m 340 856 q 368 856 361 858 q 368 835 375 854 q 244 596 301 715 q 121 356 188 476 q 103 344 117 349 q 77 340 90 340 q 54 340 64 339 q 44 347 44 342 l 251 732 q 200 699 231 715 q 144 664 169 683 q 131 657 138 660 q 119 655 124 654 q 117 660 115 656 q 129 676 118 665 l 151 693 q 224 756 185 718 q 293 825 263 794 q 313 844 300 833 q 340 856 325 854 m 858 438 q 842 388 858 415 q 801 329 826 360 q 744 267 776 299 q 678 207 711 236 q 615 152 646 178 q 563 108 585 126 l 550 97 q 594 69 564 83 q 650 56 624 56 q 674 61 660 56 q 702 75 688 67 q 729 94 717 83 q 750 114 742 104 q 763 125 756 121 q 774 128 769 129 q 777 122 778 128 q 767 100 776 115 q 740 68 756 86 q 707 34 725 50 q 669 6 689 18 q 629 -6 649 -6 q 546 8 585 -7 q 483 38 507 22 l 422 -10 q 398 -12 400 -17 q 403 7 396 -8 q 437 35 417 18 q 479 69 457 51 q 521 103 501 86 q 551 131 540 119 q 617 192 579 156 q 690 271 656 229 q 748 354 724 313 q 772 431 772 396 q 758 468 772 460 q 724 472 743 476 q 684 455 704 468 q 653 429 664 442 q 600 344 625 397 q 579 332 593 329 q 571 350 565 335 q 599 409 581 379 q 643 463 618 439 q 699 502 668 488 q 767 517 731 517 q 832 497 806 517 q 858 438 858 476 z "},"":{"ha":864,"x_min":6,"x_max":850,"o":"m 733 472 q 758 494 742 486 q 793 503 775 501 q 827 503 811 506 q 850 496 843 500 q 822 460 850 488 q 755 398 794 433 q 670 324 715 363 q 589 254 625 285 q 558 227 572 240 q 529 194 544 214 l 697 199 q 708 222 703 211 q 720 244 714 232 q 733 269 726 256 q 750 303 740 283 q 774 318 758 311 q 806 327 790 325 q 830 325 821 329 q 831 308 839 321 q 824 294 831 307 q 810 265 818 282 q 792 231 801 249 q 778 201 783 213 l 785 201 q 811 188 811 197 q 779 167 811 179 l 758 167 l 678 10 q 665 3 675 7 q 641 -3 654 0 q 614 -6 628 -6 q 590 -1 600 -7 q 601 22 590 0 q 627 70 613 43 q 656 124 642 97 q 676 163 669 150 l 472 158 l 478 185 q 515 227 494 206 q 557 269 535 249 q 586 299 572 285 q 614 329 600 314 q 675 399 644 364 q 733 472 706 435 m 757 842 q 778 854 765 850 q 803 857 792 858 q 820 850 814 856 q 818 835 826 844 q 731 726 788 797 q 605 567 675 654 q 459 387 535 479 q 314 214 383 294 q 189 75 244 133 q 106 -1 133 17 q 83 -7 88 -12 q 90 13 79 -1 q 192 131 131 58 q 321 288 253 204 q 459 460 389 372 q 590 626 529 549 q 696 760 651 703 q 757 842 740 818 m 439 804 q 423 751 439 775 q 383 706 407 726 q 329 671 358 686 q 274 644 300 656 q 336 619 308 639 q 364 560 364 600 q 340 478 364 518 q 277 406 315 438 q 190 356 239 375 q 94 338 142 338 q 42 349 64 338 q 10 389 21 361 q 6 408 6 400 q 24 407 7 415 q 49 374 31 388 q 89 360 67 360 q 165 380 129 360 q 229 431 201 400 q 273 499 257 463 q 289 569 289 536 q 277 606 289 592 q 246 621 265 621 q 215 613 236 621 q 182 603 194 606 q 163 601 169 600 q 154 606 156 603 q 156 613 153 610 q 163 619 158 617 q 222 640 189 625 q 285 679 256 656 q 333 733 314 703 q 353 799 353 764 q 340 815 353 810 q 317 821 328 821 q 258 799 288 821 q 207 754 228 778 q 193 747 200 747 q 189 764 186 746 q 264 835 221 803 q 360 867 307 867 q 415 852 392 867 q 439 804 439 838 z "},"":{"ha":550,"x_min":6,"x_max":526,"o":"m 100 -169 q 189 -76 144 -118 q 274 9 233 -35 q 349 103 314 53 q 411 225 385 154 q 428 233 417 238 q 438 215 440 229 q 394 109 425 163 q 324 2 364 56 q 241 -103 285 -51 q 158 -204 197 -156 q 110 -304 113 -262 q 132 -368 107 -346 q 203 -392 157 -390 q 299 -368 249 -393 q 356 -325 331 -353 q 376 -272 381 -297 q 358 -301 372 -289 q 328 -322 344 -312 q 276 -332 297 -339 q 245 -307 254 -325 q 242 -265 236 -289 q 272 -221 249 -240 q 328 -199 300 -200 q 375 -212 356 -197 q 401 -254 394 -226 q 392 -318 407 -282 q 348 -371 378 -349 q 290 -410 318 -393 q 194 -447 242 -437 q 107 -451 146 -457 q 42 -422 68 -444 q 10 -364 15 -400 q 26 -279 6 -328 q 100 -169 46 -231 m 408 410 q 432 450 413 433 q 475 467 451 467 q 513 450 499 467 q 522 410 526 433 q 499 369 519 386 q 456 353 479 353 q 418 369 432 353 q 408 410 404 386 z "},"":{"ha":989,"x_min":25,"x_max":1194,"o":"m 1194 897 q 1172 815 1194 860 q 1099 731 1150 771 q 966 662 1049 692 q 763 621 883 632 q 543 615 644 610 q 343 653 442 621 q 297 585 324 626 q 242 497 271 544 q 187 399 214 450 q 142 303 160 349 q 99 91 89 169 q 160 -12 108 13 q 297 -9 213 -37 q 476 99 381 19 q 583 199 531 144 q 684 312 636 254 q 772 427 732 369 q 840 536 813 485 q 900 610 872 596 q 942 610 928 624 q 953 563 957 596 q 919 497 950 531 q 862 421 890 464 q 809 329 833 378 q 766 228 785 281 q 738 125 747 176 q 735 -3 721 38 q 782 -46 750 -43 q 857 -19 814 -49 q 942 61 900 10 q 1006 154 974 103 q 1063 258 1039 206 q 1085 278 1072 278 q 1086 253 1097 278 q 1063 204 1076 232 q 1031 147 1049 176 q 995 86 1014 117 q 957 31 976 56 q 916 -15 939 7 q 867 -53 893 -36 q 811 -79 840 -69 q 753 -89 782 -89 q 690 -68 714 -89 q 656 -15 667 -47 q 643 58 644 18 q 649 138 642 99 q 668 212 656 178 q 696 267 681 246 q 628 191 668 233 q 541 106 588 149 q 442 26 494 64 q 335 -35 389 -11 q 228 -64 282 -58 q 125 -49 174 -69 q 50 26 75 -28 q 26 156 25 81 q 52 321 26 231 q 131 506 78 411 q 187 597 157 553 q 253 682 217 642 q 176 725 211 701 q 114 778 140 749 q 91 818 99 794 q 82 865 83 842 q 85 907 81 888 q 101 935 90 926 q 126 942 114 951 q 126 908 138 933 q 122 851 113 876 q 156 799 132 826 q 278 711 200 747 q 419 849 343 783 q 581 965 496 915 q 760 1044 667 1015 q 956 1074 854 1074 q 1131 1024 1068 1074 q 1194 897 1194 975 m 1138 914 q 1087 1007 1138 976 q 960 1038 1036 1038 q 779 1008 863 1038 q 624 928 696 978 q 488 815 551 879 q 365 681 424 750 q 538 649 446 654 q 763 654 631 643 q 918 683 849 661 q 1036 740 988 706 q 1111 818 1085 774 q 1138 914 1138 863 m 1096 1126 q 1082 1114 1096 1114 q 1051 1127 1078 1114 q 992 1157 1024 1140 q 931 1190 960 1174 q 892 1210 901 1206 q 856 1234 872 1219 q 840 1272 840 1249 q 848 1293 840 1285 q 867 1301 856 1301 q 893 1289 874 1301 q 938 1258 913 1276 q 992 1217 964 1239 q 1042 1176 1019 1196 q 1081 1143 1065 1157 q 1096 1126 1096 1129 z "},"":{"ha":989,"x_min":25,"x_max":1243,"o":"m 1194 897 q 1172 815 1194 860 q 1099 731 1150 771 q 966 662 1049 692 q 763 621 883 632 q 543 615 644 610 q 343 653 442 621 q 297 585 324 626 q 242 497 271 544 q 187 399 214 450 q 142 303 160 349 q 99 91 89 169 q 160 -12 108 13 q 297 -9 213 -37 q 476 99 381 19 q 583 199 531 144 q 684 312 636 254 q 772 427 732 369 q 840 536 813 485 q 900 610 872 596 q 942 610 928 624 q 953 563 957 596 q 919 497 950 531 q 862 421 890 464 q 809 329 833 378 q 766 228 785 281 q 738 125 747 176 q 735 -3 721 38 q 782 -46 750 -43 q 857 -19 814 -49 q 942 61 900 10 q 1006 154 974 103 q 1063 258 1039 206 q 1085 278 1072 278 q 1086 253 1097 278 q 1063 204 1076 232 q 1031 147 1049 176 q 995 86 1014 117 q 957 31 976 56 q 916 -15 939 7 q 867 -53 893 -36 q 811 -79 840 -69 q 753 -89 782 -89 q 690 -68 714 -89 q 656 -15 667 -47 q 643 58 644 18 q 649 138 642 99 q 668 212 656 178 q 696 267 681 246 q 628 191 668 233 q 541 106 588 149 q 442 26 494 64 q 335 -35 389 -11 q 228 -64 282 -58 q 125 -49 174 -69 q 50 26 75 -28 q 26 156 25 81 q 52 321 26 231 q 131 506 78 411 q 187 597 157 553 q 253 682 217 642 q 176 725 211 701 q 114 778 140 749 q 91 818 99 794 q 82 865 83 842 q 85 907 81 888 q 101 935 90 926 q 126 942 114 951 q 126 908 138 933 q 122 851 113 876 q 156 799 132 826 q 278 711 200 747 q 419 849 343 783 q 581 965 496 915 q 760 1044 667 1015 q 956 1074 854 1074 q 1131 1024 1068 1074 q 1194 897 1194 975 m 1138 914 q 1087 1007 1138 976 q 960 1038 1036 1038 q 779 1008 863 1038 q 624 928 696 978 q 488 815 551 879 q 365 681 424 750 q 538 649 446 654 q 763 654 631 643 q 918 683 849 661 q 1036 740 988 706 q 1111 818 1085 774 q 1138 914 1138 863 m 1238 1256 q 1215 1238 1235 1250 q 1167 1213 1196 1226 q 1107 1183 1139 1199 q 1047 1156 1075 1168 q 1000 1138 1019 1144 q 978 1132 981 1131 q 974 1150 965 1139 q 999 1172 975 1154 q 1053 1211 1024 1190 q 1109 1251 1082 1232 q 1144 1276 1136 1269 q 1183 1297 1161 1289 q 1225 1293 1204 1304 q 1240 1277 1236 1288 q 1238 1256 1243 1267 z "},"":{"ha":989,"x_min":25,"x_max":1194,"o":"m 1194 897 q 1172 815 1194 860 q 1099 731 1150 771 q 966 662 1049 692 q 763 621 883 632 q 543 615 644 610 q 343 653 442 621 q 297 585 324 626 q 242 497 271 544 q 187 399 214 450 q 142 303 160 349 q 99 91 89 169 q 160 -12 108 13 q 297 -9 213 -37 q 476 99 381 19 q 583 199 531 144 q 684 312 636 254 q 772 427 732 369 q 840 536 813 485 q 900 610 872 596 q 942 610 928 624 q 953 563 957 596 q 919 497 950 531 q 862 421 890 464 q 809 329 833 378 q 766 228 785 281 q 738 125 747 176 q 735 -3 721 38 q 782 -46 750 -43 q 857 -19 814 -49 q 942 61 900 10 q 1006 154 974 103 q 1063 258 1039 206 q 1085 278 1072 278 q 1086 253 1097 278 q 1063 204 1076 232 q 1031 147 1049 176 q 995 86 1014 117 q 957 31 976 56 q 916 -15 939 7 q 867 -53 893 -36 q 811 -79 840 -69 q 753 -89 782 -89 q 690 -68 714 -89 q 656 -15 667 -47 q 643 58 644 18 q 649 138 642 99 q 668 212 656 178 q 696 267 681 246 q 628 191 668 233 q 541 106 588 149 q 442 26 494 64 q 335 -35 389 -11 q 228 -64 282 -58 q 125 -49 174 -69 q 50 26 75 -28 q 26 156 25 81 q 52 321 26 231 q 131 506 78 411 q 187 597 157 553 q 253 682 217 642 q 176 725 211 701 q 114 778 140 749 q 91 818 99 794 q 82 865 83 842 q 85 907 81 888 q 101 935 90 926 q 126 942 114 951 q 126 908 138 933 q 122 851 113 876 q 156 799 132 826 q 278 711 200 747 q 419 849 343 783 q 581 965 496 915 q 760 1044 667 1015 q 956 1074 854 1074 q 1131 1024 1068 1074 q 1194 897 1194 975 m 1138 914 q 1087 1007 1138 976 q 960 1038 1036 1038 q 779 1008 863 1038 q 624 928 696 978 q 488 815 551 879 q 365 681 424 750 q 538 649 446 654 q 763 654 631 643 q 918 683 849 661 q 1036 740 988 706 q 1111 818 1085 774 q 1138 914 1138 863 m 1121 1126 q 1111 1118 1125 1117 q 1093 1126 1097 1119 l 1029 1225 q 944 1179 982 1200 q 883 1145 913 1161 q 846 1126 853 1129 q 833 1120 840 1122 q 819 1119 825 1118 q 810 1122 813 1119 q 811 1126 807 1124 l 1018 1274 q 1044 1276 1033 1275 q 1062 1277 1054 1278 q 1071 1274 1069 1276 l 1121 1126 z "},"":{"ha":989,"x_min":25,"x_max":1244,"o":"m 1194 897 q 1172 815 1194 860 q 1099 731 1150 771 q 966 662 1049 692 q 763 621 883 632 q 543 615 644 610 q 343 653 442 621 q 297 585 324 626 q 242 497 271 544 q 187 399 214 450 q 142 303 160 349 q 99 91 89 169 q 160 -12 108 13 q 297 -9 213 -37 q 476 99 381 19 q 583 199 531 144 q 684 312 636 254 q 772 427 732 369 q 840 536 813 485 q 900 610 872 596 q 942 610 928 624 q 953 563 957 596 q 919 497 950 531 q 862 421 890 464 q 809 329 833 378 q 766 228 785 281 q 738 125 747 176 q 735 -3 721 38 q 782 -46 750 -43 q 857 -19 814 -49 q 942 61 900 10 q 1006 154 974 103 q 1063 258 1039 206 q 1085 278 1072 278 q 1086 253 1097 278 q 1063 204 1076 232 q 1031 147 1049 176 q 995 86 1014 117 q 957 31 976 56 q 916 -15 939 7 q 867 -53 893 -36 q 811 -79 840 -69 q 753 -89 782 -89 q 690 -68 714 -89 q 656 -15 667 -47 q 643 58 644 18 q 649 138 642 99 q 668 212 656 178 q 696 267 681 246 q 628 191 668 233 q 541 106 588 149 q 442 26 494 64 q 335 -35 389 -11 q 228 -64 282 -58 q 125 -49 174 -69 q 50 26 75 -28 q 26 156 25 81 q 52 321 26 231 q 131 506 78 411 q 187 597 157 553 q 253 682 217 642 q 176 725 211 701 q 114 778 140 749 q 91 818 99 794 q 82 865 83 842 q 85 907 81 888 q 101 935 90 926 q 126 942 114 951 q 126 908 138 933 q 122 851 113 876 q 156 799 132 826 q 278 711 200 747 q 419 849 343 783 q 581 965 496 915 q 760 1044 667 1015 q 956 1074 854 1074 q 1131 1024 1068 1074 q 1194 897 1194 975 m 1138 914 q 1087 1007 1138 976 q 960 1038 1036 1038 q 779 1008 863 1038 q 624 928 696 978 q 488 815 551 879 q 365 681 424 750 q 538 649 446 654 q 763 654 631 643 q 918 683 849 661 q 1036 740 988 706 q 1111 818 1085 774 q 1138 914 1138 863 m 1243 1250 q 1220 1210 1233 1231 q 1190 1174 1207 1190 q 1151 1147 1172 1157 q 1106 1139 1131 1136 q 1063 1149 1083 1140 q 1021 1167 1042 1157 q 979 1184 1000 1176 q 938 1193 958 1192 q 894 1181 913 1196 q 865 1147 876 1167 q 858 1143 864 1144 q 847 1142 853 1142 q 837 1145 842 1143 q 833 1150 832 1147 q 857 1187 843 1168 q 888 1222 871 1206 q 925 1247 904 1238 q 969 1254 946 1256 q 1013 1245 992 1253 q 1056 1229 1035 1238 q 1097 1213 1076 1221 q 1138 1204 1117 1206 q 1184 1215 1165 1201 q 1214 1253 1203 1229 q 1220 1256 1215 1256 q 1231 1256 1225 1257 q 1240 1253 1236 1256 q 1243 1250 1244 1251 z "},"":{"ha":989,"x_min":25,"x_max":1194,"o":"m 1194 897 q 1172 815 1194 860 q 1099 731 1150 771 q 966 662 1049 692 q 763 621 883 632 q 543 615 644 610 q 343 653 442 621 q 297 585 324 626 q 242 497 271 544 q 187 399 214 450 q 142 303 160 349 q 99 91 89 169 q 160 -12 108 13 q 297 -9 213 -37 q 476 99 381 19 q 583 199 531 144 q 684 312 636 254 q 772 427 732 369 q 840 536 813 485 q 900 610 872 596 q 942 610 928 624 q 953 563 957 596 q 919 497 950 531 q 862 421 890 464 q 809 329 833 378 q 766 228 785 281 q 738 125 747 176 q 735 -3 721 38 q 782 -46 750 -43 q 857 -19 814 -49 q 942 61 900 10 q 1006 154 974 103 q 1063 258 1039 206 q 1085 278 1072 278 q 1086 253 1097 278 q 1063 204 1076 232 q 1031 147 1049 176 q 995 86 1014 117 q 957 31 976 56 q 916 -15 939 7 q 867 -53 893 -36 q 811 -79 840 -69 q 753 -89 782 -89 q 690 -68 714 -89 q 656 -15 667 -47 q 643 58 644 18 q 649 138 642 99 q 668 212 656 178 q 696 267 681 246 q 628 191 668 233 q 541 106 588 149 q 442 26 494 64 q 335 -35 389 -11 q 228 -64 282 -58 q 125 -49 174 -69 q 50 26 75 -28 q 26 156 25 81 q 52 321 26 231 q 131 506 78 411 q 187 597 157 553 q 253 682 217 642 q 176 725 211 701 q 114 778 140 749 q 91 818 99 794 q 82 865 83 842 q 85 907 81 888 q 101 935 90 926 q 126 942 114 951 q 126 908 138 933 q 122 851 113 876 q 156 799 132 826 q 278 711 200 747 q 419 849 343 783 q 581 965 496 915 q 760 1044 667 1015 q 956 1074 854 1074 q 1131 1024 1068 1074 q 1194 897 1194 975 m 1138 914 q 1087 1007 1138 976 q 960 1038 1036 1038 q 779 1008 863 1038 q 624 928 696 978 q 488 815 551 879 q 365 681 424 750 q 538 649 446 654 q 763 654 631 643 q 918 683 849 661 q 1036 740 988 706 q 1111 818 1085 774 q 1138 914 1138 863 m 1160 1161 q 1147 1128 1160 1142 q 1115 1115 1135 1115 q 1082 1128 1096 1115 q 1068 1161 1068 1140 q 1081 1194 1068 1181 q 1113 1207 1093 1207 q 1146 1194 1132 1207 q 1160 1161 1160 1182 m 981 1161 q 968 1128 981 1142 q 936 1115 956 1115 q 903 1128 917 1115 q 889 1161 889 1140 q 901 1194 889 1181 q 933 1207 914 1207 q 967 1194 953 1207 q 981 1161 981 1182 z "},"":{"ha":989,"x_min":25,"x_max":1194,"o":"m 1194 897 q 1172 815 1194 860 q 1099 731 1150 771 q 966 662 1049 692 q 763 621 883 632 q 543 615 644 610 q 343 653 442 621 q 297 585 324 626 q 242 497 271 544 q 187 399 214 450 q 142 303 160 349 q 99 91 89 169 q 160 -12 108 13 q 297 -9 213 -37 q 476 99 381 19 q 583 199 531 144 q 684 312 636 254 q 772 427 732 369 q 840 536 813 485 q 900 610 872 596 q 942 610 928 624 q 953 563 957 596 q 919 497 950 531 q 862 421 890 464 q 809 329 833 378 q 766 228 785 281 q 738 125 747 176 q 735 -3 721 38 q 782 -46 750 -43 q 857 -19 814 -49 q 942 61 900 10 q 1006 154 974 103 q 1061 258 1038 206 q 1072 274 1065 268 q 1082 281 1078 281 q 1087 276 1086 282 q 1083 258 1088 271 q 1063 212 1075 238 q 1033 158 1050 186 q 998 101 1017 129 q 960 47 979 72 q 910 -7 939 19 q 847 -52 881 -33 q 781 -79 814 -71 q 719 -78 747 -87 q 672 -41 692 -69 q 647 43 653 -12 q 657 161 640 100 q 696 267 674 222 q 628 191 668 233 q 541 106 588 149 q 442 26 494 64 q 335 -35 389 -11 q 228 -64 282 -58 q 125 -49 174 -69 q 50 26 75 -28 q 26 156 25 81 q 52 321 26 231 q 131 506 78 411 q 187 597 157 553 q 253 682 217 642 q 176 725 211 701 q 114 778 140 749 q 91 818 99 794 q 82 865 83 842 q 85 907 81 888 q 101 935 90 926 q 126 942 114 951 q 126 908 138 933 q 122 851 113 876 q 156 799 132 826 q 278 711 200 747 q 419 849 343 783 q 581 965 496 915 q 760 1044 667 1015 q 956 1074 854 1074 q 1131 1024 1068 1074 q 1194 897 1194 975 m 1138 914 q 1087 1007 1138 976 q 960 1038 1036 1038 q 779 1008 863 1038 q 624 928 696 978 q 488 815 551 879 q 365 681 424 750 q 538 649 446 654 q 763 654 631 643 q 918 683 849 661 q 1036 740 988 706 q 1111 818 1085 774 q 1138 914 1138 863 m 1047 1194 q 1057 1158 1046 1172 q 1086 1143 1068 1143 q 1118 1159 1106 1143 q 1133 1197 1131 1175 q 1124 1234 1136 1219 q 1094 1247 1113 1249 q 1063 1231 1076 1246 q 1047 1194 1050 1217 m 999 1192 q 1032 1245 1001 1224 q 1100 1269 1063 1267 q 1163 1249 1139 1271 q 1183 1197 1186 1228 q 1150 1143 1179 1165 q 1082 1119 1121 1121 q 1019 1140 1043 1118 q 999 1192 994 1161 z "},"":{"ha":1907,"x_min":25,"x_max":1881,"o":"m 1801 304 q 1863 253 1844 283 q 1876 188 1881 224 q 1846 114 1872 153 q 1774 36 1819 75 q 1652 -43 1722 -7 q 1500 -105 1582 -79 q 1328 -144 1418 -131 q 1146 -158 1238 -158 q 902 -121 1001 -158 q 746 -24 803 -83 q 675 110 689 36 q 688 258 661 185 q 619 182 658 224 q 533 99 579 140 q 435 22 486 58 q 331 -37 383 -14 q 226 -65 278 -60 q 125 -49 174 -69 q 50 26 75 -28 q 26 156 25 81 q 52 321 26 231 q 131 506 78 411 q 187 597 157 553 q 253 682 217 642 q 176 725 211 701 q 114 778 140 749 q 91 818 99 794 q 82 865 83 842 q 85 907 81 888 q 101 935 90 926 q 126 942 114 951 q 126 908 138 933 q 122 851 113 876 q 156 799 132 826 q 278 711 200 747 q 419 849 343 783 q 581 965 496 915 q 760 1044 667 1015 q 956 1074 854 1074 q 1072 1055 1022 1074 q 1153 1004 1122 1036 q 1266 1058 1206 1035 q 1388 1096 1326 1082 q 1509 1115 1450 1110 q 1618 1114 1568 1119 q 1760 1078 1706 1104 q 1838 1016 1814 1051 q 1859 940 1863 981 q 1826 861 1856 899 q 1744 792 1797 824 q 1618 744 1692 761 q 1572 740 1586 738 q 1559 748 1558 742 q 1574 761 1560 754 q 1613 771 1588 768 q 1678 797 1646 774 q 1734 851 1711 819 q 1767 919 1757 882 q 1766 990 1776 957 q 1719 1047 1756 1022 q 1615 1078 1683 1071 q 1501 1077 1560 1083 q 1386 1054 1443 1071 q 1277 1013 1329 1038 q 1183 954 1225 988 q 1194 897 1194 925 q 1166 805 1194 854 q 1071 713 1138 756 q 1110 647 1081 671 q 1177 607 1139 622 q 1256 583 1215 592 q 1331 565 1297 575 q 1384 542 1364 556 q 1401 506 1404 529 q 1361 481 1396 483 q 1272 481 1326 479 q 1151 481 1218 482 q 1015 460 1083 479 q 884 387 939 439 q 802 270 829 335 q 778 135 775 206 q 820 8 781 65 q 940 -87 860 -50 q 1149 -125 1021 -125 q 1317 -108 1233 -125 q 1476 -62 1401 -90 q 1615 3 1551 -33 q 1724 76 1679 39 q 1788 142 1761 108 q 1824 206 1814 176 q 1826 258 1835 236 q 1788 286 1818 279 q 1753 299 1761 292 q 1749 311 1744 307 q 1768 315 1754 315 q 1801 304 1782 314 m 1138 913 q 1090 845 1108 881 q 1068 769 1071 810 l 1067 764 q 1138 913 1138 828 m 1115 981 q 1053 1023 1093 1008 q 960 1038 1013 1038 q 779 1008 863 1038 q 624 928 696 978 q 488 815 551 879 q 365 681 424 750 q 538 649 446 654 q 763 654 631 643 q 871 670 821 658 q 963 699 921 682 q 958 715 960 707 q 957 733 957 724 q 1001 870 958 808 q 1115 981 1044 932 m 1151 547 q 1055 594 1104 563 q 978 667 1006 625 q 881 640 935 651 q 763 621 828 628 q 543 615 644 610 q 343 653 442 621 q 297 585 324 626 q 242 497 271 544 q 187 399 214 450 q 142 303 160 349 q 99 91 89 169 q 160 -12 108 13 q 297 -9 213 -37 q 476 99 381 19 q 583 199 531 144 q 684 312 636 254 q 772 427 732 369 q 840 536 813 485 q 900 610 872 596 q 942 610 928 624 q 953 563 957 596 q 919 497 950 531 q 913 486 918 494 q 1004 521 951 506 q 1078 538 1040 532 q 1151 547 1115 544 z "},"":{"ha":986,"x_min":81,"x_max":1186,"o":"m 1083 254 q 1040 169 1061 208 q 993 95 1018 131 q 936 28 968 60 q 860 -35 904 -4 q 744 -97 807 -71 q 612 -135 681 -124 q 469 -137 543 -146 q 319 -97 394 -129 q 180 2 232 -60 q 104 141 128 64 q 83 304 81 218 q 106 475 85 390 q 165 638 128 560 q 251 776 203 715 q 238 848 243 808 q 230 929 232 888 q 231 1013 228 971 q 246 1094 235 1056 q 253 1108 247 1103 q 265 1114 260 1114 q 273 1108 269 1114 q 274 1088 276 1101 q 268 951 263 1021 q 285 824 274 881 q 547 1033 397 969 q 863 1078 697 1097 q 1032 1029 964 1067 q 1136 940 1100 992 q 1179 825 1172 888 q 1166 701 1186 763 q 1101 583 1146 639 q 988 489 1056 528 q 831 433 919 450 q 635 432 742 417 q 435 501 526 447 q 290 668 344 556 q 254 598 278 651 q 210 472 231 544 q 178 316 189 400 q 181 156 167 232 q 239 18 194 79 q 374 -71 283 -43 q 610 -90 486 -104 q 839 -12 735 -75 q 917 44 885 14 q 976 110 950 75 q 1024 184 1003 144 q 1067 268 1044 224 q 1085 281 1075 286 q 1083 254 1094 275 m 875 1025 q 720 1018 797 1036 q 571 958 643 1000 q 434 854 499 917 q 318 713 369 792 q 453 535 365 593 q 656 465 542 478 q 874 483 781 451 q 1025 573 967 515 q 1106 703 1083 631 q 1110 842 1128 775 q 1035 959 1093 908 q 875 1025 976 1010 m 681 -290 q 658 -351 681 -324 q 608 -396 635 -378 q 557 -415 586 -411 q 503 -419 528 -419 q 461 -416 490 -419 q 402 -406 432 -412 q 350 -386 372 -399 q 328 -356 328 -374 q 336 -346 328 -346 q 348 -351 343 -346 q 357 -361 353 -357 q 413 -388 376 -381 q 476 -396 450 -396 q 512 -394 493 -396 q 549 -385 531 -392 q 584 -370 568 -379 q 610 -346 600 -361 q 624 -319 618 -333 q 629 -289 629 -304 q 619 -253 629 -268 q 594 -229 610 -239 q 561 -215 579 -219 q 525 -210 543 -210 q 489 -215 506 -210 q 460 -227 472 -221 q 439 -238 447 -233 q 425 -243 431 -243 q 407 -237 415 -243 q 399 -222 399 -232 q 404 -210 399 -215 q 424 -193 408 -206 q 459 -166 440 -181 q 493 -140 478 -151 q 511 -129 508 -129 q 518 -133 515 -129 q 522 -140 521 -137 q 509 -150 519 -143 q 488 -165 499 -157 q 469 -179 478 -172 q 461 -189 461 -186 q 515 -185 488 -185 q 567 -190 539 -185 q 621 -208 596 -196 q 663 -241 646 -221 q 681 -290 681 -261 z "},"":{"ha":1253,"x_min":28,"x_max":1211,"o":"m 1101 357 q 1153 309 1139 338 q 1161 247 1168 281 q 1126 178 1154 214 q 1053 106 1099 142 q 933 31 1001 65 q 785 -26 864 -3 q 622 -63 707 -50 q 450 -76 536 -76 q 218 -39 310 -76 q 80 58 126 -1 q 31 191 33 118 q 65 335 28 264 q 180 465 103 406 q 371 560 257 525 q 511 583 444 581 q 451 610 482 593 q 396 650 421 628 q 356 699 371 672 q 344 757 342 726 q 385 868 350 817 q 473 961 419 919 q 594 1034 526 1003 q 731 1085 661 1065 q 869 1113 801 1106 q 993 1114 938 1119 q 1123 1079 1074 1104 q 1192 1022 1172 1054 q 1205 951 1211 989 q 1168 877 1199 913 q 1085 813 1138 842 q 964 768 1033 783 q 922 763 935 761 q 909 771 908 765 q 923 783 910 776 q 960 793 936 790 q 1024 817 992 796 q 1080 867 1056 838 q 1117 932 1104 897 q 1122 997 1129 967 q 1083 1051 1114 1028 q 988 1081 1051 1074 q 816 1069 906 1089 q 649 1010 726 1050 q 517 915 572 971 q 450 792 463 858 q 460 705 440 738 q 513 653 479 672 q 590 624 547 633 q 667 604 632 614 q 725 582 703 594 q 742 544 747 569 q 702 522 735 524 q 619 521 669 519 q 506 521 568 522 q 376 501 443 519 q 249 433 304 482 q 162 324 193 385 q 128 197 131 263 q 158 78 125 132 q 264 -11 192 24 q 456 -46 336 -46 q 614 -29 536 -46 q 761 14 692 -12 q 891 74 831 40 q 996 143 951 108 q 1062 206 1035 174 q 1101 265 1089 238 q 1107 312 1113 292 q 1072 339 1101 332 q 1044 351 1049 344 q 1046 363 1039 358 q 1069 366 1053 367 q 1101 357 1085 365 m 1110 1158 q 1096 1146 1110 1146 q 1065 1159 1092 1146 q 1006 1189 1038 1172 q 944 1222 974 1206 q 906 1242 915 1238 q 870 1266 886 1251 q 854 1304 854 1281 q 862 1325 854 1317 q 881 1333 869 1333 q 907 1321 888 1333 q 952 1290 926 1308 q 1006 1249 978 1271 q 1056 1208 1033 1228 q 1094 1175 1079 1189 q 1110 1158 1110 1161 z "},"":{"ha":1253,"x_min":28,"x_max":1226,"o":"m 1101 357 q 1153 309 1139 338 q 1161 247 1168 281 q 1126 178 1154 214 q 1053 106 1099 142 q 933 31 1001 65 q 785 -26 864 -3 q 622 -63 707 -50 q 450 -76 536 -76 q 218 -39 310 -76 q 80 58 126 -1 q 31 191 33 118 q 65 335 28 264 q 180 465 103 406 q 371 560 257 525 q 511 583 444 581 q 451 610 482 593 q 396 650 421 628 q 356 699 371 672 q 344 757 342 726 q 385 868 350 817 q 473 961 419 919 q 594 1034 526 1003 q 731 1085 661 1065 q 869 1113 801 1106 q 993 1114 938 1119 q 1123 1079 1074 1104 q 1192 1022 1172 1054 q 1205 951 1211 989 q 1168 877 1199 913 q 1085 813 1138 842 q 964 768 1033 783 q 922 763 935 761 q 909 771 908 765 q 923 783 910 776 q 960 793 936 790 q 1024 817 992 796 q 1080 867 1056 838 q 1117 932 1104 897 q 1122 997 1129 967 q 1083 1051 1114 1028 q 988 1081 1051 1074 q 816 1069 906 1089 q 649 1010 726 1050 q 517 915 572 971 q 450 792 463 858 q 460 705 440 738 q 513 653 479 672 q 590 624 547 633 q 667 604 632 614 q 725 582 703 594 q 742 544 747 569 q 702 522 735 524 q 619 521 669 519 q 506 521 568 522 q 376 501 443 519 q 249 433 304 482 q 162 324 193 385 q 128 197 131 263 q 158 78 125 132 q 264 -11 192 24 q 456 -46 336 -46 q 614 -29 536 -46 q 761 14 692 -12 q 891 74 831 40 q 996 143 951 108 q 1062 206 1035 174 q 1101 265 1089 238 q 1107 312 1113 292 q 1072 339 1101 332 q 1044 351 1049 344 q 1046 363 1039 358 q 1069 366 1053 367 q 1101 357 1085 365 m 1221 1301 q 1199 1284 1218 1296 q 1151 1258 1179 1272 q 1090 1229 1122 1244 q 1031 1202 1058 1214 q 983 1183 1003 1190 q 961 1178 964 1176 q 957 1196 949 1185 q 983 1218 958 1200 q 1036 1257 1007 1236 q 1092 1297 1065 1278 q 1128 1322 1119 1315 q 1166 1342 1144 1335 q 1208 1339 1188 1350 q 1223 1323 1219 1333 q 1221 1301 1226 1313 z "},"":{"ha":1253,"x_min":28,"x_max":1211,"o":"m 1101 357 q 1153 309 1139 338 q 1161 247 1168 281 q 1126 178 1154 214 q 1053 106 1099 142 q 933 31 1001 65 q 785 -26 864 -3 q 622 -63 707 -50 q 450 -76 536 -76 q 218 -39 310 -76 q 80 58 126 -1 q 31 191 33 118 q 65 335 28 264 q 180 465 103 406 q 371 560 257 525 q 511 583 444 581 q 451 610 482 593 q 396 650 421 628 q 356 699 371 672 q 344 757 342 726 q 385 868 350 817 q 473 961 419 919 q 594 1034 526 1003 q 731 1085 661 1065 q 869 1113 801 1106 q 993 1114 938 1119 q 1123 1079 1074 1104 q 1192 1022 1172 1054 q 1205 951 1211 989 q 1168 877 1199 913 q 1085 813 1138 842 q 964 768 1033 783 q 922 763 935 761 q 909 771 908 765 q 923 783 910 776 q 960 793 936 790 q 1024 817 992 796 q 1080 867 1056 838 q 1117 932 1104 897 q 1122 997 1129 967 q 1083 1051 1114 1028 q 988 1081 1051 1074 q 816 1069 906 1089 q 649 1010 726 1050 q 517 915 572 971 q 450 792 463 858 q 460 705 440 738 q 513 653 479 672 q 590 624 547 633 q 667 604 632 614 q 725 582 703 594 q 742 544 747 569 q 702 522 735 524 q 619 521 669 519 q 506 521 568 522 q 376 501 443 519 q 249 433 304 482 q 162 324 193 385 q 128 197 131 263 q 158 78 125 132 q 264 -11 192 24 q 456 -46 336 -46 q 614 -29 536 -46 q 761 14 692 -12 q 891 74 831 40 q 996 143 951 108 q 1062 206 1035 174 q 1101 265 1089 238 q 1107 312 1113 292 q 1072 339 1101 332 q 1044 351 1049 344 q 1046 363 1039 358 q 1069 366 1053 367 q 1101 357 1085 365 m 1142 1169 q 1132 1161 1146 1160 q 1114 1169 1118 1163 l 1050 1268 q 965 1222 1003 1243 q 903 1188 933 1204 q 867 1169 874 1172 q 853 1163 861 1165 q 840 1162 846 1161 q 831 1165 833 1163 q 832 1169 828 1167 l 1039 1317 q 1065 1319 1054 1318 q 1083 1320 1075 1321 q 1092 1317 1090 1319 l 1142 1169 z "},"":{"ha":1253,"x_min":28,"x_max":1211,"o":"m 1101 357 q 1153 309 1139 338 q 1161 247 1168 281 q 1126 178 1154 214 q 1053 106 1099 142 q 933 31 1001 65 q 785 -26 864 -3 q 622 -63 707 -50 q 450 -76 536 -76 q 218 -39 310 -76 q 80 58 126 -1 q 31 191 33 118 q 65 335 28 264 q 180 465 103 406 q 371 560 257 525 q 511 583 444 581 q 451 610 482 593 q 396 650 421 628 q 356 699 371 672 q 344 757 342 726 q 385 868 350 817 q 473 961 419 919 q 594 1034 526 1003 q 731 1085 661 1065 q 869 1113 801 1106 q 993 1114 938 1119 q 1123 1079 1074 1104 q 1192 1022 1172 1054 q 1205 951 1211 989 q 1168 877 1199 913 q 1085 813 1138 842 q 964 768 1033 783 q 922 763 935 761 q 909 771 908 765 q 923 783 910 776 q 960 793 936 790 q 1024 817 992 796 q 1080 867 1056 838 q 1117 932 1104 897 q 1122 997 1129 967 q 1083 1051 1114 1028 q 988 1081 1051 1074 q 816 1069 906 1089 q 649 1010 726 1050 q 517 915 572 971 q 450 792 463 858 q 460 705 440 738 q 513 653 479 672 q 590 624 547 633 q 667 604 632 614 q 725 582 703 594 q 742 544 747 569 q 702 522 735 524 q 619 521 669 519 q 506 521 568 522 q 376 501 443 519 q 249 433 304 482 q 162 324 193 385 q 128 197 131 263 q 158 78 125 132 q 264 -11 192 24 q 456 -46 336 -46 q 614 -29 536 -46 q 761 14 692 -12 q 891 74 831 40 q 996 143 951 108 q 1062 206 1035 174 q 1101 265 1089 238 q 1107 312 1113 292 q 1072 339 1101 332 q 1044 351 1049 344 q 1046 363 1039 358 q 1069 366 1053 367 q 1101 357 1085 365 m 1133 1231 q 1121 1198 1133 1211 q 1089 1185 1108 1185 q 1056 1197 1069 1185 q 1042 1231 1042 1210 q 1054 1263 1042 1250 q 1086 1276 1067 1276 q 1119 1264 1106 1276 q 1133 1231 1133 1251 m 954 1231 q 942 1198 954 1211 q 910 1185 929 1185 q 876 1197 890 1185 q 863 1231 863 1210 q 875 1263 863 1250 q 907 1276 888 1276 q 940 1264 926 1276 q 954 1231 954 1251 z "},"":{"ha":1258,"x_min":-43,"x_max":1661,"o":"m 1661 1118 q 1652 1082 1661 1097 q 1628 1055 1643 1067 q 1593 1035 1613 1043 q 1554 1021 1574 1028 q 1524 1015 1542 1021 q 1496 1008 1506 1008 q 1424 856 1453 931 q 1371 708 1394 781 q 1325 563 1347 635 q 1274 419 1303 490 q 1208 278 1246 349 q 1115 138 1171 208 q 859 -94 1000 -10 q 567 -203 718 -178 q 295 -208 419 -228 q 90 -130 171 -189 q -17 26 10 -71 q 6 253 -43 122 q 44 319 18 288 q 97 377 69 351 q 152 418 125 403 q 196 435 179 433 q 213 428 218 436 q 197 415 207 421 q 155 388 179 407 q 106 339 131 368 q 61 272 82 310 q 29 192 40 235 q 26 57 11 117 q 80 -46 42 -3 q 174 -117 118 -89 q 292 -160 229 -146 q 420 -173 356 -174 q 540 -158 485 -172 q 728 -85 642 -133 q 886 26 814 -36 q 1016 160 958 89 q 1118 301 1074 231 q 1194 438 1163 372 q 1244 553 1225 503 q 1308 708 1275 635 q 1369 840 1340 781 q 1419 940 1397 899 q 1453 1001 1442 982 q 1251 951 1358 981 q 1046 873 1143 922 q 875 748 949 824 q 776 560 801 672 q 772 469 765 510 q 801 403 779 428 q 859 371 824 378 q 939 381 894 364 q 1022 440 993 403 q 1060 516 1050 478 q 1067 585 1071 554 q 1056 624 1064 615 q 1056 632 1053 626 q 1064 642 1058 638 q 1075 646 1069 646 q 1085 636 1081 646 q 1101 553 1106 597 q 1076 469 1097 510 q 1019 397 1054 429 q 940 349 983 365 q 833 335 885 328 q 743 372 781 342 q 688 450 706 401 q 683 560 669 499 q 749 706 701 642 q 862 819 796 769 q 1008 905 928 869 q 1169 967 1088 940 q 1331 1010 1251 993 q 1475 1038 1410 1026 q 1490 1063 1479 1046 q 1516 1097 1501 1079 q 1548 1131 1531 1115 q 1582 1151 1565 1146 q 1637 1153 1614 1161 q 1661 1118 1660 1146 m 1594 1113 q 1580 1108 1589 1114 q 1560 1090 1571 1101 q 1538 1066 1549 1079 q 1519 1043 1528 1053 q 1585 1065 1565 1053 q 1608 1087 1604 1076 q 1606 1105 1613 1097 q 1594 1113 1600 1113 m 1565 1169 q 1551 1157 1565 1157 q 1520 1170 1547 1157 q 1461 1200 1493 1183 q 1400 1233 1429 1217 q 1361 1253 1371 1249 q 1326 1277 1342 1263 q 1310 1315 1310 1292 q 1317 1336 1310 1328 q 1336 1344 1325 1344 q 1363 1332 1343 1344 q 1408 1301 1382 1319 q 1461 1260 1433 1282 q 1512 1219 1489 1239 q 1550 1186 1535 1200 q 1565 1169 1565 1172 z "},"":{"ha":1258,"x_min":-43,"x_max":1661,"o":"m 1661 1118 q 1652 1082 1661 1097 q 1628 1055 1643 1067 q 1593 1035 1613 1043 q 1554 1021 1574 1028 q 1524 1015 1542 1021 q 1496 1008 1506 1008 q 1424 856 1453 931 q 1371 708 1394 781 q 1325 563 1347 635 q 1274 419 1303 490 q 1208 278 1246 349 q 1115 138 1171 208 q 859 -94 1000 -10 q 567 -203 718 -178 q 295 -208 419 -228 q 90 -130 171 -189 q -17 26 10 -71 q 6 253 -43 122 q 44 319 18 288 q 97 377 69 351 q 152 418 125 403 q 196 435 179 433 q 213 428 218 436 q 197 415 207 421 q 155 388 179 407 q 106 339 131 368 q 61 272 82 310 q 29 192 40 235 q 26 57 11 117 q 80 -46 42 -3 q 174 -117 118 -89 q 292 -160 229 -146 q 420 -173 356 -174 q 540 -158 485 -172 q 728 -85 642 -133 q 886 26 814 -36 q 1016 160 958 89 q 1118 301 1074 231 q 1194 438 1163 372 q 1244 553 1225 503 q 1308 708 1275 635 q 1369 840 1340 781 q 1419 940 1397 899 q 1453 1001 1442 982 q 1251 951 1358 981 q 1046 873 1143 922 q 875 748 949 824 q 776 560 801 672 q 772 469 765 510 q 801 403 779 428 q 859 371 824 378 q 939 381 894 364 q 1022 440 993 403 q 1060 516 1050 478 q 1067 585 1071 554 q 1056 624 1064 615 q 1056 632 1053 626 q 1064 642 1058 638 q 1075 646 1069 646 q 1085 636 1081 646 q 1101 553 1106 597 q 1076 469 1097 510 q 1019 397 1054 429 q 940 349 983 365 q 833 335 885 328 q 743 372 781 342 q 688 450 706 401 q 683 560 669 499 q 749 706 701 642 q 862 819 796 769 q 1008 905 928 869 q 1169 967 1088 940 q 1331 1010 1251 993 q 1475 1038 1410 1026 q 1490 1063 1479 1046 q 1516 1097 1501 1079 q 1548 1131 1531 1115 q 1582 1151 1565 1146 q 1637 1153 1614 1161 q 1661 1118 1660 1146 m 1594 1113 q 1580 1108 1589 1114 q 1560 1090 1571 1101 q 1538 1066 1549 1079 q 1519 1043 1528 1053 q 1585 1065 1565 1053 q 1608 1087 1604 1076 q 1606 1105 1613 1097 q 1594 1113 1600 1113 m 1486 1238 q 1464 1220 1483 1232 q 1416 1194 1444 1208 q 1356 1165 1388 1181 q 1296 1138 1324 1150 q 1249 1119 1268 1126 q 1226 1114 1229 1113 q 1222 1132 1214 1121 q 1248 1154 1224 1136 q 1301 1193 1272 1172 q 1358 1233 1331 1214 q 1393 1258 1385 1251 q 1431 1278 1410 1271 q 1474 1275 1453 1286 q 1488 1259 1485 1269 q 1486 1238 1492 1249 z "},"":{"ha":1258,"x_min":-43,"x_max":1661,"o":"m 1661 1118 q 1652 1082 1661 1097 q 1628 1055 1643 1067 q 1593 1035 1613 1043 q 1554 1021 1574 1028 q 1524 1015 1542 1021 q 1496 1008 1506 1008 q 1424 856 1453 931 q 1371 708 1394 781 q 1325 563 1347 635 q 1274 419 1303 490 q 1208 278 1246 349 q 1115 138 1171 208 q 859 -94 1000 -10 q 567 -203 718 -178 q 295 -208 419 -228 q 90 -130 171 -189 q -17 26 10 -71 q 6 253 -43 122 q 44 319 18 288 q 97 377 69 351 q 152 418 125 403 q 196 435 179 433 q 213 428 218 436 q 197 415 207 421 q 155 388 179 407 q 106 339 131 368 q 61 272 82 310 q 29 192 40 235 q 26 57 11 117 q 80 -46 42 -3 q 174 -117 118 -89 q 292 -160 229 -146 q 420 -173 356 -174 q 540 -158 485 -172 q 728 -85 642 -133 q 886 26 814 -36 q 1016 160 958 89 q 1118 301 1074 231 q 1194 438 1163 372 q 1244 553 1225 503 q 1308 708 1275 635 q 1369 840 1340 781 q 1419 940 1397 899 q 1453 1001 1442 982 q 1251 951 1358 981 q 1046 873 1143 922 q 875 748 949 824 q 776 560 801 672 q 772 469 765 510 q 801 403 779 428 q 859 371 824 378 q 939 381 894 364 q 1022 440 993 403 q 1060 516 1050 478 q 1067 585 1071 554 q 1056 624 1064 615 q 1056 632 1053 626 q 1064 642 1058 638 q 1075 646 1069 646 q 1085 636 1081 646 q 1101 553 1106 597 q 1076 469 1097 510 q 1019 397 1054 429 q 940 349 983 365 q 833 335 885 328 q 743 372 781 342 q 688 450 706 401 q 683 560 669 499 q 749 706 701 642 q 862 819 796 769 q 1008 905 928 869 q 1169 967 1088 940 q 1331 1010 1251 993 q 1475 1038 1410 1026 q 1490 1063 1479 1046 q 1516 1097 1501 1079 q 1548 1131 1531 1115 q 1582 1151 1565 1146 q 1637 1153 1614 1161 q 1661 1118 1660 1146 m 1594 1113 q 1580 1108 1589 1114 q 1560 1090 1571 1101 q 1538 1066 1549 1079 q 1519 1043 1528 1053 q 1585 1065 1565 1053 q 1608 1087 1604 1076 q 1606 1105 1613 1097 q 1594 1113 1600 1113 m 1633 1165 q 1624 1157 1638 1156 q 1606 1165 1610 1158 l 1542 1264 q 1457 1218 1494 1239 q 1395 1184 1425 1200 q 1358 1165 1365 1168 q 1345 1159 1353 1161 q 1331 1158 1338 1157 q 1322 1160 1325 1158 q 1324 1165 1319 1163 l 1531 1313 q 1557 1315 1546 1314 q 1574 1316 1567 1317 q 1583 1313 1582 1315 l 1633 1165 z "},"":{"ha":1258,"x_min":-43,"x_max":1661,"o":"m 1661 1118 q 1652 1082 1661 1097 q 1628 1055 1643 1067 q 1593 1035 1613 1043 q 1554 1021 1574 1028 q 1524 1015 1542 1021 q 1496 1008 1506 1008 q 1424 856 1453 931 q 1371 708 1394 781 q 1325 563 1347 635 q 1274 419 1303 490 q 1208 278 1246 349 q 1115 138 1171 208 q 859 -94 1000 -10 q 567 -203 718 -178 q 295 -208 419 -228 q 90 -130 171 -189 q -17 26 10 -71 q 6 253 -43 122 q 44 319 18 288 q 97 377 69 351 q 152 418 125 403 q 196 435 179 433 q 213 428 218 436 q 197 415 207 421 q 155 388 179 407 q 106 339 131 368 q 61 272 82 310 q 29 192 40 235 q 26 57 11 117 q 80 -46 42 -3 q 174 -117 118 -89 q 292 -160 229 -146 q 420 -173 356 -174 q 540 -158 485 -172 q 728 -85 642 -133 q 886 26 814 -36 q 1016 160 958 89 q 1118 301 1074 231 q 1194 438 1163 372 q 1244 553 1225 503 q 1308 708 1275 635 q 1369 840 1340 781 q 1419 940 1397 899 q 1453 1001 1442 982 q 1251 951 1358 981 q 1046 873 1143 922 q 875 748 949 824 q 776 560 801 672 q 772 469 765 510 q 801 403 779 428 q 859 371 824 378 q 939 381 894 364 q 1022 440 993 403 q 1060 516 1050 478 q 1067 585 1071 554 q 1056 624 1064 615 q 1056 632 1053 626 q 1064 642 1058 638 q 1075 646 1069 646 q 1085 636 1081 646 q 1101 553 1106 597 q 1076 469 1097 510 q 1019 397 1054 429 q 940 349 983 365 q 833 335 885 328 q 743 372 781 342 q 688 450 706 401 q 683 560 669 499 q 749 706 701 642 q 862 819 796 769 q 1008 905 928 869 q 1169 967 1088 940 q 1331 1010 1251 993 q 1475 1038 1410 1026 q 1490 1063 1479 1046 q 1516 1097 1501 1079 q 1548 1131 1531 1115 q 1582 1151 1565 1146 q 1637 1153 1614 1161 q 1661 1118 1660 1146 m 1594 1113 q 1580 1108 1589 1114 q 1560 1090 1571 1101 q 1538 1066 1549 1079 q 1519 1043 1528 1053 q 1585 1065 1565 1053 q 1608 1087 1604 1076 q 1606 1105 1613 1097 q 1594 1113 1600 1113 m 1621 1238 q 1608 1205 1621 1218 q 1576 1192 1596 1192 q 1543 1204 1557 1192 q 1529 1238 1529 1217 q 1542 1270 1529 1257 q 1574 1283 1554 1283 q 1607 1271 1593 1283 q 1621 1238 1621 1258 m 1442 1238 q 1429 1205 1442 1218 q 1397 1192 1417 1192 q 1364 1204 1378 1192 q 1350 1238 1350 1217 q 1363 1270 1350 1257 q 1394 1283 1375 1283 q 1428 1271 1414 1283 q 1442 1238 1442 1258 z "},"":{"ha":1426,"x_min":-1,"x_max":1431,"o":"m 1421 332 q 1363 159 1411 235 q 1243 33 1315 83 q 1081 -38 1171 -17 q 897 -49 990 -60 q 774 -29 829 -40 q 674 -6 719 -18 q 592 21 629 7 q 521 50 554 35 q 359 -37 444 -12 q 174 -50 274 -62 q 63 -12 103 -42 q 10 54 22 17 q 13 130 -1 92 q 64 193 26 168 q 161 224 101 218 q 299 203 221 229 q 347 182 318 196 q 407 153 376 168 q 465 123 438 138 q 510 100 493 108 q 648 277 586 174 q 769 493 710 381 q 892 717 828 606 q 1038 921 956 829 q 813 1005 935 983 q 560 999 690 1026 q 390 938 464 978 q 267 849 317 899 q 190 747 217 800 q 163 647 164 694 q 188 562 163 599 q 264 510 213 525 q 372 505 325 490 q 450 548 418 519 q 498 610 482 576 q 515 661 514 643 q 531 670 517 672 q 543 649 546 668 q 506 558 536 597 q 435 494 476 518 q 344 465 393 471 q 250 476 296 460 q 151 542 189 497 q 102 644 113 588 q 113 763 92 700 q 192 881 133 825 q 347 982 250 938 q 588 1047 444 1026 q 842 1044 717 1067 q 1076 964 968 1022 l 1111 1004 q 1135 1024 1119 1013 q 1169 1048 1151 1036 q 1203 1069 1188 1060 q 1228 1082 1219 1079 q 1264 1086 1261 1096 q 1242 1061 1267 1076 q 1216 1040 1228 1051 q 1201 1024 1204 1028 q 1169 978 1186 1001 q 1136 929 1153 954 q 1264 820 1207 882 q 1359 683 1321 758 q 1414 519 1397 607 q 1421 332 1431 431 m 1333 329 q 1329 493 1342 414 q 1286 642 1317 572 q 1208 771 1256 711 q 1103 876 1161 831 q 978 674 1042 781 q 851 467 915 568 q 726 276 788 365 q 607 125 664 186 q 581 98 593 110 q 554 75 568 86 q 701 23 619 46 q 896 -11 783 0 q 1063 6 986 -19 q 1197 78 1139 31 q 1290 192 1254 126 q 1333 329 1325 257 m 474 72 q 375 120 424 96 q 264 167 326 144 q 178 178 214 185 q 122 153 143 172 q 97 107 101 135 q 103 54 92 79 q 140 10 114 29 q 208 -11 165 -10 q 349 8 283 -14 q 474 72 415 31 m 910 400 q 738 392 814 400 q 599 376 661 383 q 585 385 592 375 q 576 408 578 396 q 578 432 574 421 q 599 443 583 443 q 713 442 642 443 q 904 438 783 440 q 924 431 917 438 q 933 418 932 425 q 929 406 935 411 q 910 400 924 400 z "},"":{"ha":1443,"x_min":-7,"x_max":1651,"o":"m 1650 928 q 1619 790 1649 865 q 1542 626 1589 715 q 1440 437 1496 538 q 1333 224 1385 336 q 1270 38 1286 119 q 1266 -94 1254 -43 q 1316 -162 1278 -146 q 1414 -150 1354 -178 q 1464 -140 1450 -133 q 1472 -162 1478 -147 q 1444 -190 1467 -176 q 1383 -203 1421 -204 q 1199 -104 1240 -196 q 1214 157 1157 -12 q 1253 253 1226 193 q 1315 385 1281 314 q 1388 535 1350 457 q 1457 685 1425 614 q 1512 817 1489 757 q 1540 913 1535 876 q 1534 968 1546 949 q 1498 992 1522 988 q 1440 990 1474 997 q 1371 964 1407 982 q 1215 864 1293 928 q 1063 711 1138 800 q 926 519 989 622 q 808 313 863 415 q 710 115 754 210 q 633 -50 667 21 q 604 -79 625 -69 q 563 -90 583 -89 q 528 -83 542 -90 q 518 -58 514 -75 q 563 17 535 -33 q 625 135 592 68 q 694 283 658 203 q 764 446 731 363 q 825 613 797 529 q 869 769 853 696 q 882 921 890 861 q 845 1014 874 981 q 771 1057 817 1047 q 670 1057 725 1067 q 554 1022 615 1047 q 433 958 493 996 q 258 813 331 894 q 143 647 186 732 q 85 481 100 563 q 85 337 71 400 q 140 235 99 274 q 251 196 182 196 q 385 227 324 196 q 492 306 447 258 q 563 406 538 353 q 588 503 588 460 q 559 574 588 547 q 469 592 531 600 q 455 593 458 590 q 452 600 451 596 q 457 608 453 604 q 467 614 461 613 q 590 608 549 633 q 638 534 632 583 q 619 422 644 485 q 541 302 593 358 q 414 208 489 246 q 247 169 339 169 q 124 201 181 169 q 33 294 67 233 q -4 439 -1 354 q 38 631 -7 524 q 103 746 63 690 q 193 851 143 801 q 301 943 243 901 q 418 1018 358 985 q 540 1071 475 1050 q 669 1099 606 1092 q 790 1095 733 1106 q 888 1053 847 1085 q 949 964 929 1021 q 960 822 969 907 q 915 660 950 742 q 844 499 881 578 q 811 424 817 440 q 811 417 806 408 q 829 447 817 425 q 851 483 842 468 q 935 606 889 542 q 1035 733 982 671 q 1115 825 1074 781 q 1199 907 1157 869 q 1282 974 1240 944 q 1364 1022 1324 1004 q 1464 1054 1413 1044 q 1557 1055 1515 1064 q 1625 1015 1599 1046 q 1650 928 1651 985 m 1610 1268 q 1587 1228 1600 1249 q 1556 1192 1574 1208 q 1518 1165 1539 1175 q 1472 1157 1497 1154 q 1429 1167 1450 1158 q 1388 1185 1408 1175 q 1346 1202 1367 1194 q 1304 1211 1325 1210 q 1261 1199 1279 1214 q 1232 1165 1243 1185 q 1225 1161 1231 1163 q 1214 1160 1219 1160 q 1203 1163 1208 1161 q 1200 1168 1199 1165 q 1224 1205 1210 1186 q 1254 1240 1238 1224 q 1292 1265 1271 1256 q 1336 1272 1313 1274 q 1380 1263 1358 1271 q 1422 1247 1401 1256 q 1463 1231 1443 1239 q 1504 1222 1483 1224 q 1551 1233 1532 1219 q 1581 1271 1569 1247 q 1587 1274 1582 1274 q 1597 1274 1592 1275 q 1607 1272 1603 1274 q 1610 1268 1611 1269 z "},"":{"ha":1089,"x_min":61,"x_max":1264,"o":"m 1256 760 q 1166 646 1217 699 q 1049 551 1115 593 q 1038 479 1046 515 q 1017 403 1029 443 q 956 270 996 338 q 864 143 917 203 q 747 34 811 83 q 613 -46 683 -15 q 469 -83 543 -76 q 321 -67 394 -90 q 218 3 261 -47 q 154 125 175 54 q 138 283 133 196 q 178 460 142 369 q 105 533 133 490 q 71 635 76 576 q 99 815 61 735 q 206 951 136 894 q 366 1039 275 1007 q 553 1075 457 1071 q 741 1053 649 1079 q 905 970 833 1028 q 1018 821 976 913 q 1054 600 1060 729 q 1160 681 1111 638 q 1235 775 1208 724 q 1245 785 1239 782 q 1256 788 1251 789 q 1263 779 1261 786 q 1256 760 1264 772 m 969 556 q 950 790 982 693 q 858 945 918 886 q 719 1029 799 1004 q 556 1049 639 1054 q 392 1012 472 1044 q 253 924 313 979 q 164 792 194 868 q 147 622 133 715 q 203 517 156 557 q 254 608 222 557 q 328 710 286 660 q 419 806 369 761 q 521 878 468 851 q 628 910 574 906 q 735 886 682 915 q 744 870 750 878 q 724 867 738 863 q 634 865 681 881 q 542 817 588 850 q 455 738 497 783 q 377 643 413 692 q 315 548 342 594 q 274 469 288 501 q 419 431 335 439 q 598 436 504 424 q 788 479 692 449 q 969 556 885 510 m 961 507 q 779 431 875 461 q 590 390 683 401 q 408 386 496 379 q 253 421 321 393 q 217 288 228 356 q 213 159 206 219 q 248 51 221 99 q 325 -22 275 3 q 448 -51 386 -53 q 570 -24 510 -50 q 686 47 631 1 q 789 149 742 92 q 874 274 836 207 q 936 408 913 340 q 951 458 944 432 q 961 507 958 483 m 876 1144 q 863 1132 876 1132 q 831 1145 858 1132 q 772 1175 804 1158 q 711 1208 740 1192 q 672 1228 682 1224 q 637 1252 653 1238 q 621 1290 621 1267 q 628 1311 621 1303 q 647 1319 636 1319 q 674 1307 654 1319 q 719 1276 693 1294 q 772 1235 744 1257 q 823 1194 800 1214 q 861 1161 846 1175 q 876 1144 876 1147 z "},"":{"ha":1089,"x_min":61,"x_max":1264,"o":"m 1256 760 q 1166 646 1217 699 q 1049 551 1115 593 q 1038 479 1046 515 q 1017 403 1029 443 q 956 270 996 338 q 864 143 917 203 q 747 34 811 83 q 613 -46 683 -15 q 469 -83 543 -76 q 321 -67 394 -90 q 218 3 261 -47 q 154 125 175 54 q 138 283 133 196 q 178 460 142 369 q 105 533 133 490 q 71 635 76 576 q 99 815 61 735 q 206 951 136 894 q 366 1039 275 1007 q 553 1075 457 1071 q 741 1053 649 1079 q 905 970 833 1028 q 1018 821 976 913 q 1054 600 1060 729 q 1160 681 1111 638 q 1235 775 1208 724 q 1245 785 1239 782 q 1256 788 1251 789 q 1263 779 1261 786 q 1256 760 1264 772 m 969 556 q 950 790 982 693 q 858 945 918 886 q 719 1029 799 1004 q 556 1049 639 1054 q 392 1012 472 1044 q 253 924 313 979 q 164 792 194 868 q 147 622 133 715 q 203 517 156 557 q 254 608 222 557 q 328 710 286 660 q 419 806 369 761 q 521 878 468 851 q 628 910 574 906 q 735 886 682 915 q 744 870 750 878 q 724 867 738 863 q 634 865 681 881 q 542 817 588 850 q 455 738 497 783 q 377 643 413 692 q 315 548 342 594 q 274 469 288 501 q 419 431 335 439 q 598 436 504 424 q 788 479 692 449 q 969 556 885 510 m 961 507 q 779 431 875 461 q 590 390 683 401 q 408 386 496 379 q 253 421 321 393 q 217 288 228 356 q 213 159 206 219 q 248 51 221 99 q 325 -22 275 3 q 448 -51 386 -53 q 570 -24 510 -50 q 686 47 631 1 q 789 149 742 92 q 874 274 836 207 q 936 408 913 340 q 951 458 944 432 q 961 507 958 483 m 1018 1249 q 996 1231 1015 1243 q 948 1206 976 1219 q 888 1176 919 1192 q 828 1149 856 1161 q 781 1131 800 1138 q 758 1125 761 1124 q 754 1143 746 1132 q 780 1165 756 1147 q 833 1204 804 1183 q 890 1244 863 1225 q 925 1269 917 1263 q 963 1290 942 1282 q 1006 1286 985 1297 q 1020 1270 1017 1281 q 1018 1249 1024 1260 z "},"":{"ha":1089,"x_min":61,"x_max":1264,"o":"m 1256 760 q 1166 646 1217 699 q 1049 551 1115 593 q 1038 479 1046 515 q 1017 403 1029 443 q 956 270 996 338 q 864 143 917 203 q 747 34 811 83 q 613 -46 683 -15 q 469 -83 543 -76 q 321 -67 394 -90 q 218 3 261 -47 q 154 125 175 54 q 138 283 133 196 q 178 460 142 369 q 105 533 133 490 q 71 635 76 576 q 99 815 61 735 q 206 951 136 894 q 366 1039 275 1007 q 553 1075 457 1071 q 741 1053 649 1079 q 905 970 833 1028 q 1018 821 976 913 q 1054 600 1060 729 q 1160 681 1111 638 q 1235 775 1208 724 q 1245 785 1239 782 q 1256 788 1251 789 q 1263 779 1261 786 q 1256 760 1264 772 m 969 556 q 950 790 982 693 q 858 945 918 886 q 719 1029 799 1004 q 556 1049 639 1054 q 392 1012 472 1044 q 253 924 313 979 q 164 792 194 868 q 147 622 133 715 q 203 517 156 557 q 254 608 222 557 q 328 710 286 660 q 419 806 369 761 q 521 878 468 851 q 628 910 574 906 q 735 886 682 915 q 744 870 750 878 q 724 867 738 863 q 634 865 681 881 q 542 817 588 850 q 455 738 497 783 q 377 643 413 692 q 315 548 342 594 q 274 469 288 501 q 419 431 335 439 q 598 436 504 424 q 788 479 692 449 q 969 556 885 510 m 961 507 q 779 431 875 461 q 590 390 683 401 q 408 386 496 379 q 253 421 321 393 q 217 288 228 356 q 213 159 206 219 q 248 51 221 99 q 325 -22 275 3 q 448 -51 386 -53 q 570 -24 510 -50 q 686 47 631 1 q 789 149 742 92 q 874 274 836 207 q 936 408 913 340 q 951 458 944 432 q 961 507 958 483 m 929 1142 q 919 1133 933 1132 q 901 1142 906 1135 l 838 1240 q 753 1194 790 1215 q 691 1160 721 1176 q 654 1142 661 1144 q 641 1135 649 1138 q 627 1134 633 1133 q 618 1137 621 1135 q 619 1142 615 1139 l 826 1289 q 853 1292 842 1290 q 870 1292 863 1293 q 879 1289 878 1292 l 929 1142 z "},"":{"ha":1089,"x_min":61,"x_max":1264,"o":"m 1256 760 q 1166 646 1217 699 q 1049 551 1115 593 q 1038 479 1046 515 q 1017 403 1029 443 q 956 270 996 338 q 864 143 917 203 q 747 34 811 83 q 613 -46 683 -15 q 469 -83 543 -76 q 321 -67 394 -90 q 218 3 261 -47 q 154 125 175 54 q 138 283 133 196 q 178 460 142 369 q 105 533 133 490 q 71 635 76 576 q 99 815 61 735 q 206 951 136 894 q 366 1039 275 1007 q 553 1075 457 1071 q 741 1053 649 1079 q 905 970 833 1028 q 1018 821 976 913 q 1054 600 1060 729 q 1160 681 1111 638 q 1235 775 1208 724 q 1245 785 1239 782 q 1256 788 1251 789 q 1263 779 1261 786 q 1256 760 1264 772 m 969 556 q 950 790 982 693 q 858 945 918 886 q 719 1029 799 1004 q 556 1049 639 1054 q 392 1012 472 1044 q 253 924 313 979 q 164 792 194 868 q 147 622 133 715 q 203 517 156 557 q 254 608 222 557 q 328 710 286 660 q 419 806 369 761 q 521 878 468 851 q 628 910 574 906 q 735 886 682 915 q 744 870 750 878 q 724 867 738 863 q 634 865 681 881 q 542 817 588 850 q 455 738 497 783 q 377 643 413 692 q 315 548 342 594 q 274 469 288 501 q 419 431 335 439 q 598 436 504 424 q 788 479 692 449 q 969 556 885 510 m 961 507 q 779 431 875 461 q 590 390 683 401 q 408 386 496 379 q 253 421 321 393 q 217 288 228 356 q 213 159 206 219 q 248 51 221 99 q 325 -22 275 3 q 448 -51 386 -53 q 570 -24 510 -50 q 686 47 631 1 q 789 149 742 92 q 874 274 836 207 q 936 408 913 340 q 951 458 944 432 q 961 507 958 483 m 999 1246 q 976 1206 989 1226 q 945 1169 963 1186 q 907 1142 928 1153 q 861 1135 886 1132 q 818 1144 839 1136 q 776 1163 797 1153 q 735 1180 756 1172 q 693 1189 714 1188 q 650 1177 668 1192 q 621 1143 632 1163 q 614 1139 619 1140 q 603 1138 608 1138 q 592 1141 597 1139 q 589 1146 588 1143 q 613 1183 599 1164 q 643 1217 626 1201 q 681 1242 660 1233 q 725 1250 701 1251 q 769 1241 747 1249 q 811 1225 790 1233 q 852 1209 832 1217 q 893 1200 872 1201 q 940 1211 921 1197 q 969 1249 958 1225 q 976 1252 971 1251 q 986 1252 981 1253 q 996 1249 992 1251 q 999 1246 1000 1247 z "},"":{"ha":1089,"x_min":61,"x_max":1264,"o":"m 1256 760 q 1166 646 1217 699 q 1049 551 1115 593 q 1038 479 1046 515 q 1017 403 1029 443 q 956 270 996 338 q 864 143 917 203 q 747 34 811 83 q 613 -46 683 -15 q 469 -83 543 -76 q 321 -67 394 -90 q 218 3 261 -47 q 154 125 175 54 q 138 283 133 196 q 178 460 142 369 q 105 533 133 490 q 71 635 76 576 q 99 815 61 735 q 206 951 136 894 q 366 1039 275 1007 q 553 1075 457 1071 q 741 1053 649 1079 q 905 970 833 1028 q 1018 821 976 913 q 1054 600 1060 729 q 1160 681 1111 638 q 1235 775 1208 724 q 1245 785 1239 782 q 1256 788 1251 789 q 1263 779 1261 786 q 1256 760 1264 772 m 969 556 q 950 790 982 693 q 858 945 918 886 q 719 1029 799 1004 q 556 1049 639 1054 q 392 1012 472 1044 q 253 924 313 979 q 164 792 194 868 q 147 622 133 715 q 203 517 156 557 q 254 608 222 557 q 328 710 286 660 q 419 806 369 761 q 521 878 468 851 q 628 910 574 906 q 735 886 682 915 q 744 870 750 878 q 724 867 738 863 q 634 865 681 881 q 542 817 588 850 q 455 738 497 783 q 377 643 413 692 q 315 548 342 594 q 274 469 288 501 q 419 431 335 439 q 598 436 504 424 q 788 479 692 449 q 969 556 885 510 m 961 507 q 779 431 875 461 q 590 390 683 401 q 408 386 496 379 q 253 421 321 393 q 217 288 228 356 q 213 159 206 219 q 248 51 221 99 q 325 -22 275 3 q 448 -51 386 -53 q 570 -24 510 -50 q 686 47 631 1 q 789 149 742 92 q 874 274 836 207 q 936 408 913 340 q 951 458 944 432 q 961 507 958 483 m 960 1179 q 947 1147 960 1160 q 915 1133 935 1133 q 882 1146 896 1133 q 868 1179 868 1158 q 881 1212 868 1199 q 913 1225 893 1225 q 946 1213 932 1225 q 960 1179 960 1200 m 781 1179 q 768 1147 781 1160 q 736 1133 756 1133 q 703 1146 717 1133 q 689 1179 689 1158 q 701 1212 689 1199 q 733 1225 714 1225 q 767 1213 753 1225 q 781 1179 781 1200 z "},"":{"ha":422,"x_min":115,"x_max":361,"o":"m 258 285 l 318 168 q 306 153 317 164 q 292 140 296 142 l 233 258 l 131 147 q 122 161 128 149 q 115 176 115 174 l 218 288 l 158 404 q 170 419 160 408 q 185 432 181 431 l 243 314 l 346 425 q 356 413 350 425 q 361 396 361 400 l 258 285 z "},"":{"ha":1071,"x_min":61,"x_max":1264,"o":"m 201 -144 l 261 -36 q 187 47 217 -6 q 144 165 157 99 q 140 306 132 231 q 178 460 147 381 q 105 533 133 490 q 71 635 76 576 q 94 804 61 728 q 189 936 128 881 q 333 1026 250 992 q 505 1071 415 1061 q 684 1066 594 1081 q 849 1008 774 1051 l 915 1126 l 963 1104 l 892 979 q 1015 828 969 921 q 1054 600 1060 735 q 1160 681 1111 638 q 1235 775 1208 724 q 1245 785 1239 782 q 1256 788 1251 789 q 1263 779 1261 786 q 1256 760 1264 772 q 1166 646 1217 699 q 1049 551 1115 593 q 1038 479 1046 515 q 1017 403 1029 443 q 956 270 996 338 q 864 143 917 203 q 747 34 811 83 q 613 -46 683 -15 q 469 -83 543 -76 q 321 -67 394 -90 l 304 -60 l 246 -164 l 201 -144 m 274 469 q 386 436 322 446 q 524 429 450 426 l 828 971 q 687 1038 765 1019 q 528 1047 608 1056 q 373 1003 447 1038 q 244 915 299 969 q 162 785 190 860 q 147 622 133 711 q 203 517 156 557 q 254 608 222 557 q 328 710 286 660 q 419 806 369 761 q 521 878 468 851 q 628 910 574 906 q 735 886 682 915 q 744 870 750 878 q 724 867 738 863 q 634 865 681 881 q 542 817 588 850 q 455 738 497 783 q 377 643 413 692 q 315 548 342 594 q 274 469 288 501 m 961 507 q 763 426 867 457 q 557 388 658 396 l 325 -22 q 448 -50 386 -51 q 570 -24 510 -49 q 686 47 631 1 q 789 149 742 92 q 874 274 836 207 q 936 408 913 340 q 951 458 944 432 q 961 507 958 483 m 969 556 q 952 782 981 689 q 867 935 924 875 l 583 435 q 781 476 681 446 q 969 556 881 507 m 253 421 q 219 302 231 363 q 211 186 208 242 q 231 83 214 131 q 285 4 249 36 l 497 383 q 366 390 428 381 q 253 421 304 400 z "},"":{"ha":1308,"x_min":-12,"x_max":1396,"o":"m 1369 679 q 1395 643 1394 667 q 1384 590 1396 619 q 1353 528 1372 561 q 1319 464 1333 496 q 1281 374 1306 435 q 1236 239 1256 314 q 1211 126 1221 182 q 1202 24 1201 69 q 1215 -50 1203 -22 q 1256 -76 1226 -78 q 1288 -81 1281 -75 q 1292 -93 1296 -86 q 1275 -106 1288 -100 q 1246 -108 1263 -111 q 1175 -58 1197 -100 q 1147 39 1153 -17 q 1149 154 1142 94 q 1164 258 1156 214 q 1127 199 1149 232 q 1079 133 1106 167 q 941 -1 1010 44 q 816 -53 872 -47 q 720 -26 760 -58 q 669 72 681 6 q 674 178 663 119 q 708 303 685 238 q 761 439 731 369 q 821 576 792 508 q 876 705 850 643 q 914 817 901 767 q 933 915 926 867 q 937 1003 939 963 q 922 1073 935 1043 q 885 1118 910 1103 q 787 1151 842 1144 q 670 1147 732 1157 q 545 1114 608 1138 q 422 1056 482 1090 q 245 922 318 994 q 128 774 172 850 q 65 622 83 697 q 52 481 47 547 q 83 362 57 415 q 153 276 110 308 q 257 238 197 244 q 389 258 317 231 q 478 317 436 276 q 551 409 521 358 q 595 512 581 460 q 601 603 610 564 q 560 663 593 643 q 460 668 526 683 q 426 664 432 661 q 425 672 421 667 q 439 684 429 678 q 453 692 449 690 q 568 708 524 722 q 631 653 613 694 q 643 553 650 613 q 605 431 636 493 q 519 314 574 369 q 388 226 464 258 q 242 198 310 193 q 123 237 175 203 q 38 328 71 271 q -3 459 6 386 q 6 615 -12 532 q 76 784 25 699 q 213 951 126 869 q 425 1101 299 1032 q 665 1185 544 1168 q 878 1163 785 1203 q 959 1104 929 1140 q 1001 1022 989 1068 q 1011 922 1014 976 q 996 811 1008 868 q 959 694 983 757 q 905 567 935 632 q 845 435 875 501 q 792 306 815 369 q 756 182 769 242 q 749 72 743 122 q 782 -4 754 18 q 852 -15 810 -26 q 948 43 894 -3 q 1058 172 1001 89 q 1126 282 1093 222 q 1188 401 1158 342 q 1244 513 1218 460 q 1292 606 1271 567 q 1336 663 1315 646 q 1369 679 1357 679 m 1332 969 q 1318 957 1332 957 q 1287 970 1314 957 q 1228 1000 1260 983 q 1167 1033 1196 1017 q 1128 1053 1138 1049 q 1092 1077 1108 1063 q 1076 1115 1076 1092 q 1084 1136 1076 1128 q 1103 1144 1092 1144 q 1129 1132 1110 1144 q 1174 1101 1149 1119 q 1228 1060 1200 1082 q 1278 1019 1256 1039 q 1317 986 1301 1000 q 1332 969 1332 972 z "},"":{"ha":1308,"x_min":-12,"x_max":1406,"o":"m 1369 679 q 1395 643 1394 667 q 1384 590 1396 619 q 1353 528 1372 561 q 1319 464 1333 496 q 1281 374 1306 435 q 1236 239 1256 314 q 1211 126 1221 182 q 1202 24 1201 69 q 1215 -50 1203 -22 q 1256 -76 1226 -78 q 1288 -81 1281 -75 q 1292 -93 1296 -86 q 1275 -106 1288 -100 q 1246 -108 1263 -111 q 1175 -58 1197 -100 q 1147 39 1153 -17 q 1149 154 1142 94 q 1164 258 1156 214 q 1127 199 1149 232 q 1079 133 1106 167 q 941 -1 1010 44 q 816 -53 872 -47 q 720 -26 760 -58 q 669 72 681 6 q 674 178 663 119 q 708 303 685 238 q 761 439 731 369 q 821 576 792 508 q 876 705 850 643 q 914 817 901 767 q 933 915 926 867 q 937 1003 939 963 q 922 1073 935 1043 q 885 1118 910 1103 q 787 1151 842 1144 q 670 1147 732 1157 q 545 1114 608 1138 q 422 1056 482 1090 q 245 922 318 994 q 128 774 172 850 q 65 622 83 697 q 52 481 47 547 q 83 362 57 415 q 153 276 110 308 q 257 238 197 244 q 389 258 317 231 q 478 317 436 276 q 551 409 521 358 q 595 512 581 460 q 601 603 610 564 q 560 663 593 643 q 460 668 526 683 q 426 664 432 661 q 425 672 421 667 q 439 684 429 678 q 453 692 449 690 q 568 708 524 722 q 631 653 613 694 q 643 553 650 613 q 605 431 636 493 q 519 314 574 369 q 388 226 464 258 q 242 198 310 193 q 123 237 175 203 q 38 328 71 271 q -3 459 6 386 q 6 615 -12 532 q 76 784 25 699 q 213 951 126 869 q 425 1101 299 1032 q 665 1185 544 1168 q 878 1163 785 1203 q 959 1104 929 1140 q 1001 1022 989 1068 q 1011 922 1014 976 q 996 811 1008 868 q 959 694 983 757 q 905 567 935 632 q 845 435 875 501 q 792 306 815 369 q 756 182 769 242 q 749 72 743 122 q 782 -4 754 18 q 852 -15 810 -26 q 948 43 894 -3 q 1058 172 1001 89 q 1126 282 1093 222 q 1188 401 1158 342 q 1244 513 1218 460 q 1292 606 1271 567 q 1336 663 1315 646 q 1369 679 1357 679 m 1400 1054 q 1378 1037 1397 1049 q 1330 1011 1358 1025 q 1269 982 1301 997 q 1210 955 1238 967 q 1163 936 1182 943 q 1140 931 1143 929 q 1136 949 1128 938 q 1162 971 1138 953 q 1215 1010 1186 989 q 1272 1049 1244 1031 q 1307 1075 1299 1068 q 1345 1095 1324 1088 q 1388 1092 1367 1103 q 1402 1076 1399 1086 q 1400 1054 1406 1065 z "},"":{"ha":1308,"x_min":-12,"x_max":1421,"o":"m 1369 679 q 1395 643 1394 667 q 1384 590 1396 619 q 1353 528 1372 561 q 1319 464 1333 496 q 1281 374 1306 435 q 1236 239 1256 314 q 1211 126 1221 182 q 1202 24 1201 69 q 1215 -50 1203 -22 q 1256 -76 1226 -78 q 1288 -81 1281 -75 q 1292 -93 1296 -86 q 1275 -106 1288 -100 q 1246 -108 1263 -111 q 1175 -58 1197 -100 q 1147 39 1153 -17 q 1149 154 1142 94 q 1164 258 1156 214 q 1127 199 1149 232 q 1079 133 1106 167 q 941 -1 1010 44 q 816 -53 872 -47 q 720 -26 760 -58 q 669 72 681 6 q 674 178 663 119 q 708 303 685 238 q 761 439 731 369 q 821 576 792 508 q 876 705 850 643 q 914 817 901 767 q 933 915 926 867 q 937 1003 939 963 q 922 1073 935 1043 q 885 1118 910 1103 q 787 1151 842 1144 q 670 1147 732 1157 q 545 1114 608 1138 q 422 1056 482 1090 q 245 922 318 994 q 128 774 172 850 q 65 622 83 697 q 52 481 47 547 q 83 362 57 415 q 153 276 110 308 q 257 238 197 244 q 389 258 317 231 q 478 317 436 276 q 551 409 521 358 q 595 512 581 460 q 601 603 610 564 q 560 663 593 643 q 460 668 526 683 q 426 664 432 661 q 425 672 421 667 q 439 684 429 678 q 453 692 449 690 q 568 708 524 722 q 631 653 613 694 q 643 553 650 613 q 605 431 636 493 q 519 314 574 369 q 388 226 464 258 q 242 198 310 193 q 123 237 175 203 q 38 328 71 271 q -3 459 6 386 q 6 615 -12 532 q 76 784 25 699 q 213 951 126 869 q 425 1101 299 1032 q 665 1185 544 1168 q 878 1163 785 1203 q 959 1104 929 1140 q 1001 1022 989 1068 q 1011 922 1014 976 q 996 811 1008 868 q 959 694 983 757 q 905 567 935 632 q 845 435 875 501 q 792 306 815 369 q 756 182 769 242 q 749 72 743 122 q 782 -4 754 18 q 852 -15 810 -26 q 948 43 894 -3 q 1058 172 1001 89 q 1126 282 1093 222 q 1188 401 1158 342 q 1244 513 1218 460 q 1292 606 1271 567 q 1336 663 1315 646 q 1369 679 1357 679 m 1417 990 q 1407 982 1421 981 q 1389 990 1393 983 l 1325 1089 q 1240 1043 1278 1064 q 1178 1009 1208 1025 q 1142 990 1149 993 q 1128 984 1136 986 q 1115 983 1121 982 q 1106 985 1108 983 q 1107 990 1103 988 l 1314 1138 q 1340 1140 1329 1139 q 1358 1141 1350 1142 q 1367 1138 1365 1140 l 1417 990 z "},"":{"ha":1308,"x_min":-12,"x_max":1396,"o":"m 1369 679 q 1395 643 1394 667 q 1384 590 1396 619 q 1353 528 1372 561 q 1319 464 1333 496 q 1281 374 1306 435 q 1236 239 1256 314 q 1211 126 1221 182 q 1202 24 1201 69 q 1215 -50 1203 -22 q 1256 -76 1226 -78 q 1288 -81 1281 -75 q 1292 -93 1296 -86 q 1275 -106 1288 -100 q 1246 -108 1263 -111 q 1175 -58 1197 -100 q 1147 39 1153 -17 q 1149 154 1142 94 q 1164 258 1156 214 q 1127 199 1149 232 q 1079 133 1106 167 q 941 -1 1010 44 q 816 -53 872 -47 q 720 -26 760 -58 q 669 72 681 6 q 674 178 663 119 q 708 303 685 238 q 761 439 731 369 q 821 576 792 508 q 876 705 850 643 q 914 817 901 767 q 933 915 926 867 q 937 1003 939 963 q 922 1073 935 1043 q 885 1118 910 1103 q 787 1151 842 1144 q 670 1147 732 1157 q 545 1114 608 1138 q 422 1056 482 1090 q 245 922 318 994 q 128 774 172 850 q 65 622 83 697 q 52 481 47 547 q 83 362 57 415 q 153 276 110 308 q 257 238 197 244 q 389 258 317 231 q 478 317 436 276 q 551 409 521 358 q 595 512 581 460 q 601 603 610 564 q 560 663 593 643 q 460 668 526 683 q 426 664 432 661 q 425 672 421 667 q 439 684 429 678 q 453 692 449 690 q 568 708 524 722 q 631 653 613 694 q 643 553 650 613 q 605 431 636 493 q 519 314 574 369 q 388 226 464 258 q 242 198 310 193 q 123 237 175 203 q 38 328 71 271 q -3 459 6 386 q 6 615 -12 532 q 76 784 25 699 q 213 951 126 869 q 425 1101 299 1032 q 665 1185 544 1168 q 878 1163 785 1203 q 959 1104 929 1140 q 1001 1022 989 1068 q 1011 922 1014 976 q 996 811 1008 868 q 959 694 983 757 q 905 567 935 632 q 845 435 875 501 q 792 306 815 369 q 756 182 769 242 q 749 72 743 122 q 782 -4 754 18 q 852 -15 810 -26 q 948 43 894 -3 q 1058 172 1001 89 q 1126 282 1093 222 q 1188 401 1158 342 q 1244 513 1218 460 q 1292 606 1271 567 q 1336 663 1315 646 q 1369 679 1357 679 m 1382 1008 q 1369 976 1382 989 q 1338 963 1357 963 q 1304 975 1318 963 q 1290 1008 1290 988 q 1303 1041 1290 1028 q 1335 1054 1315 1054 q 1368 1042 1354 1054 q 1382 1008 1382 1029 m 1203 1008 q 1190 976 1203 989 q 1158 963 1178 963 q 1125 975 1139 963 q 1111 1008 1111 988 q 1124 1041 1111 1028 q 1156 1054 1136 1054 q 1189 1042 1175 1054 q 1203 1008 1203 1029 z "},"":{"ha":1397,"x_min":21,"x_max":1564,"o":"m 1556 -40 q 1542 -111 1564 -68 q 1456 -182 1519 -154 q 1390 -199 1428 -193 q 1308 -208 1353 -206 q 1213 -212 1264 -211 q 1110 -214 1163 -214 q 935 -394 1039 -319 q 725 -510 832 -469 q 556 -550 635 -544 q 419 -540 476 -556 q 328 -494 361 -525 q 297 -425 296 -464 q 337 -345 297 -386 q 464 -268 376 -304 q 609 -222 535 -239 q 759 -194 683 -204 q 912 -182 835 -185 q 1064 -179 989 -179 q 1167 87 1118 -44 q 1254 358 1217 218 q 1206 263 1235 315 q 1142 159 1178 211 q 1063 60 1106 107 q 972 -19 1021 14 q 859 -68 919 -56 q 750 -66 799 -81 q 673 -6 701 -51 q 656 118 644 39 q 685 228 663 169 q 736 347 707 288 q 797 463 765 407 q 858 567 829 519 q 940 725 904 642 q 993 882 976 808 q 1003 1014 1010 956 q 956 1097 996 1072 q 828 1135 900 1133 q 677 1113 756 1138 q 519 1043 599 1089 q 369 935 439 997 q 242 801 299 874 q 153 651 185 728 q 109 497 117 565 q 113 377 101 429 q 155 291 125 325 q 224 240 185 257 q 309 222 264 222 q 400 238 354 221 q 492 296 449 256 q 569 387 536 336 q 619 490 601 438 q 633 583 636 542 q 600 646 629 624 q 511 657 571 668 q 487 655 493 653 q 483 661 481 657 q 492 669 485 665 q 508 676 499 674 q 624 678 582 696 q 678 618 665 660 q 678 519 692 576 q 627 402 664 461 q 531 290 590 343 q 394 206 472 238 q 283 185 339 182 q 177 213 226 188 q 91 282 128 238 q 38 388 54 326 q 29 524 21 449 q 81 688 38 600 q 185 846 121 772 q 325 979 249 919 q 485 1082 401 1039 q 653 1147 569 1125 q 813 1169 736 1169 q 950 1142 889 1169 q 1057 1045 1026 1107 q 1083 908 1088 983 q 1048 748 1079 832 q 969 585 1017 664 q 900 461 935 525 q 836 335 865 397 q 785 215 807 272 q 753 110 763 157 q 753 13 739 47 q 799 -33 768 -22 q 871 -31 829 -43 q 953 10 913 -19 q 1075 137 1017 56 q 1180 308 1133 218 q 1260 484 1226 399 q 1310 624 1293 569 q 1320 643 1311 632 q 1341 661 1329 654 q 1364 669 1353 668 q 1383 657 1375 669 q 1390 615 1390 644 q 1378 535 1389 586 q 1333 358 1360 454 q 1274 166 1307 263 q 1206 -20 1242 69 q 1131 -178 1169 -110 q 1231 -176 1182 -178 q 1321 -171 1279 -175 q 1396 -160 1363 -167 q 1449 -142 1429 -153 q 1488 -119 1471 -129 q 1517 -97 1506 -108 q 1533 -72 1528 -86 q 1539 -39 1539 -58 q 1542 -18 1536 -24 q 1556 -40 1547 -12 m 1044 -214 q 902 -219 974 -214 q 760 -236 831 -224 q 622 -271 689 -249 q 492 -329 554 -293 q 397 -400 424 -368 q 376 -456 371 -432 q 413 -494 382 -479 q 490 -512 443 -508 q 592 -509 536 -517 q 704 -481 649 -501 q 890 -380 797 -446 q 1044 -214 982 -314 m 1503 1047 q 1481 1030 1500 1042 q 1433 1004 1461 1018 q 1372 975 1404 990 q 1313 948 1340 960 q 1265 929 1285 936 q 1243 924 1246 922 q 1239 942 1231 931 q 1265 964 1240 946 q 1318 1003 1289 982 q 1374 1042 1347 1024 q 1410 1068 1401 1061 q 1448 1088 1426 1081 q 1490 1085 1469 1096 q 1505 1069 1501 1079 q 1503 1047 1508 1058 z "},"":{"ha":467,"x_min":15,"x_max":813,"o":"m 510 853 q 596 832 556 846 q 667 800 636 818 q 776 710 743 758 q 811 612 810 661 q 786 515 813 563 q 717 428 760 468 q 622 360 675 389 q 515 318 568 331 q 385 294 451 301 q 274 289 319 286 l 169 76 q 126 17 146 32 q 74 4 107 1 q 45 10 60 6 q 15 11 31 14 q 44 49 24 19 q 90 122 64 79 q 144 215 115 165 q 199 315 172 265 q 249 409 226 365 q 286 482 272 453 q 388 725 344 606 q 458 942 431 844 q 499 1107 486 1040 q 513 1192 513 1174 q 539 1180 521 1179 q 568 1171 557 1181 q 597 1124 593 1147 q 585 1053 600 1100 l 510 853 m 646 776 q 578 805 619 792 q 500 826 536 818 l 431 638 q 415 597 426 628 q 388 528 403 565 q 356 456 372 490 q 331 407 340 421 l 286 317 q 381 324 329 318 q 475 344 432 331 q 627 426 563 372 q 719 544 692 481 q 733 669 747 607 q 646 776 718 732 z "},"":{"ha":607,"x_min":-558,"x_max":713,"o":"m 411 400 q 414 472 403 442 q 448 526 425 501 q 500 576 471 551 q 557 632 529 600 q 603 709 586 665 q 621 796 619 753 q 604 873 622 839 q 544 922 586 907 q 469 925 504 936 q 405 889 433 914 q 357 832 376 864 q 328 774 338 800 q 225 474 274 625 q 128 187 176 322 q 30 -60 81 51 q -79 -237 -21 -171 q -154 -315 -114 -278 q -237 -382 -194 -353 q -323 -430 -279 -411 q -408 -451 -367 -449 q -510 -435 -468 -456 q -557 -361 -553 -414 q -551 -322 -558 -340 q -532 -288 -544 -303 q -502 -265 -519 -274 q -464 -256 -485 -256 q -418 -276 -436 -256 q -403 -324 -400 -296 q -428 -372 -406 -351 q -478 -392 -450 -392 q -519 -375 -500 -392 q -501 -397 -514 -387 q -473 -410 -489 -406 q -440 -415 -457 -414 q -408 -411 -424 -415 q -291 -358 -346 -394 q -185 -259 -236 -321 q -86 -110 -133 -197 q 8 96 -39 -22 q 59 226 40 178 q 92 311 78 275 q 118 381 106 347 q 151 464 131 414 q 201 591 171 514 q 283 792 232 668 q 335 877 308 839 q 396 938 361 915 q 474 965 431 961 q 575 950 517 969 q 630 921 608 938 q 663 883 651 904 q 678 838 675 863 q 682 788 682 814 q 586 608 679 688 q 535 573 567 593 q 478 528 504 553 q 441 471 451 503 q 454 401 431 439 q 484 351 468 381 q 515 292 500 322 q 538 233 529 263 q 546 181 547 203 q 515 97 543 140 q 447 26 488 54 l 457 25 q 524 38 493 19 q 582 89 556 57 q 608 126 594 103 q 635 174 621 149 q 662 224 649 199 q 686 271 675 250 q 702 278 692 282 q 707 263 713 274 q 662 167 688 219 q 601 74 636 115 q 519 12 565 33 q 415 8 474 -10 q 358 -6 383 -6 q 267 24 296 -6 q 235 91 239 54 q 248 158 232 128 q 289 190 264 189 q 326 183 310 193 q 342 143 343 172 q 358 75 339 103 q 400 36 376 47 q 441 90 424 54 q 461 181 458 125 q 456 231 463 203 q 442 288 450 258 q 424 347 433 318 q 411 400 415 375 m 376 24 q 339 63 354 38 q 321 128 324 88 q 299 92 304 111 q 297 56 293 72 q 315 29 301 40 q 349 18 328 18 q 376 24 365 18 z "},"":{"ha":486,"x_min":29,"x_max":594,"o":"m 585 256 q 547 181 569 224 q 496 97 524 138 q 437 28 468 57 q 375 -3 406 0 q 339 3 358 -4 q 307 31 319 11 q 292 87 294 51 q 306 176 290 122 q 263 112 289 149 q 206 46 236 75 q 131 0 165 7 q 74 10 97 -7 q 40 65 50 28 q 36 153 29 103 q 70 265 43 204 q 150 388 97 325 q 224 451 181 425 q 313 489 268 478 q 401 492 358 500 q 472 451 443 483 q 481 422 488 436 q 457 411 475 408 q 412 458 446 450 q 339 446 378 467 q 242 365 292 419 q 154 247 192 310 q 142 225 150 240 q 124 190 133 210 q 108 148 115 169 q 97 107 100 126 q 102 54 92 71 q 131 38 113 38 q 175 53 150 38 q 225 99 200 69 q 291 192 261 143 q 349 293 321 242 q 391 361 372 338 q 443 382 410 385 q 472 377 457 381 q 501 376 486 374 q 472 335 490 365 q 433 267 453 306 q 396 189 413 229 q 372 117 379 149 q 386 33 356 33 q 435 60 408 32 q 487 126 461 88 q 533 205 513 165 q 565 267 554 244 q 585 281 575 285 q 585 256 594 276 m 449 564 q 435 551 449 551 q 403 565 431 551 q 344 594 376 578 q 283 627 313 611 q 244 647 254 643 q 209 672 225 657 q 193 710 193 686 q 201 731 193 722 q 219 739 208 739 q 246 726 226 739 q 291 695 265 714 q 344 655 317 676 q 395 614 372 633 q 433 581 418 594 q 449 564 449 567 z "},"":{"ha":486,"x_min":29,"x_max":594,"o":"m 585 256 q 547 181 569 224 q 496 97 524 138 q 437 28 468 57 q 375 -3 406 0 q 339 3 358 -4 q 307 31 319 11 q 292 87 294 51 q 306 176 290 122 q 263 112 289 149 q 206 46 236 75 q 131 0 165 7 q 74 10 97 -7 q 40 65 50 28 q 36 153 29 103 q 70 265 43 204 q 150 388 97 325 q 224 451 181 425 q 313 489 268 478 q 401 492 358 500 q 472 451 443 483 q 481 422 488 436 q 457 411 475 408 q 412 458 446 450 q 339 446 378 467 q 242 365 292 419 q 154 247 192 310 q 142 225 150 240 q 124 190 133 210 q 108 148 115 169 q 97 107 100 126 q 102 54 92 71 q 131 38 113 38 q 175 53 150 38 q 225 99 200 69 q 291 192 261 143 q 349 293 321 242 q 391 361 372 338 q 443 382 410 385 q 472 377 457 381 q 501 376 486 374 q 472 335 490 365 q 433 267 453 306 q 396 189 413 229 q 372 117 379 149 q 386 33 356 33 q 435 60 408 32 q 487 126 461 88 q 533 205 513 165 q 565 267 554 244 q 585 281 575 285 q 585 256 594 276 m 571 671 q 549 653 568 665 q 501 628 529 642 q 440 599 472 614 q 381 572 408 583 q 333 553 353 560 q 311 547 314 546 q 307 565 299 554 q 333 588 308 569 q 386 626 357 606 q 442 666 415 647 q 478 692 469 685 q 516 712 494 704 q 558 708 538 719 q 573 692 569 703 q 571 671 576 682 z "},"":{"ha":486,"x_min":29,"x_max":594,"o":"m 585 256 q 547 181 569 224 q 496 97 524 138 q 437 28 468 57 q 375 -3 406 0 q 339 3 358 -4 q 307 31 319 11 q 292 87 294 51 q 306 176 290 122 q 263 112 289 149 q 206 46 236 75 q 131 0 165 7 q 74 10 97 -7 q 40 65 50 28 q 36 153 29 103 q 70 265 43 204 q 150 388 97 325 q 224 451 181 425 q 313 489 268 478 q 401 492 358 500 q 472 451 443 483 q 481 422 488 436 q 457 411 475 408 q 412 458 446 450 q 339 446 378 467 q 242 365 292 419 q 154 247 192 310 q 142 225 150 240 q 124 190 133 210 q 108 148 115 169 q 97 107 100 126 q 102 54 92 71 q 131 38 113 38 q 175 53 150 38 q 225 99 200 69 q 291 192 261 143 q 349 293 321 242 q 391 361 372 338 q 443 382 410 385 q 472 377 457 381 q 501 376 486 374 q 472 335 490 365 q 433 267 453 306 q 396 189 413 229 q 372 117 379 149 q 386 33 356 33 q 435 60 408 32 q 487 126 461 88 q 533 205 513 165 q 565 267 554 244 q 585 281 575 285 q 585 256 594 276 m 569 569 q 560 561 574 560 q 542 569 546 563 l 478 668 q 393 622 431 643 q 331 588 361 604 q 294 569 301 572 q 281 563 289 565 q 267 562 274 561 q 258 565 261 563 q 260 569 256 567 l 467 717 q 493 719 482 718 q 510 720 503 721 q 519 717 518 719 l 569 569 z "},"":{"ha":486,"x_min":29,"x_max":622,"o":"m 585 256 q 547 181 569 224 q 496 97 524 138 q 437 28 468 57 q 375 -3 406 0 q 339 3 358 -4 q 307 31 319 11 q 292 87 294 51 q 306 176 290 122 q 263 112 289 149 q 206 46 236 75 q 131 0 165 7 q 74 10 97 -7 q 40 65 50 28 q 36 153 29 103 q 70 265 43 204 q 150 388 97 325 q 224 451 181 425 q 313 489 268 478 q 401 492 358 500 q 472 451 443 483 q 481 422 488 436 q 457 411 475 408 q 412 458 446 450 q 339 446 378 467 q 242 365 292 419 q 154 247 192 310 q 142 225 150 240 q 124 190 133 210 q 108 148 115 169 q 97 107 100 126 q 102 54 92 71 q 131 38 113 38 q 175 53 150 38 q 225 99 200 69 q 291 192 261 143 q 349 293 321 242 q 391 361 372 338 q 443 382 410 385 q 472 377 457 381 q 501 376 486 374 q 472 335 490 365 q 433 267 453 306 q 396 189 413 229 q 372 117 379 149 q 386 33 356 33 q 435 60 408 32 q 487 126 461 88 q 533 205 513 165 q 565 267 554 244 q 585 281 575 285 q 585 256 594 276 m 621 724 q 598 684 611 704 q 567 647 585 664 q 529 620 550 631 q 483 613 508 610 q 440 622 461 614 q 399 640 419 631 q 357 658 378 650 q 315 667 336 665 q 272 655 290 669 q 243 621 254 640 q 236 617 242 618 q 225 616 231 615 q 215 619 219 617 q 211 624 210 621 q 235 660 221 642 q 265 695 249 679 q 303 720 282 711 q 347 728 324 729 q 391 719 369 726 q 433 703 413 711 q 474 687 454 694 q 515 678 494 679 q 562 689 543 675 q 592 726 581 703 q 598 730 593 729 q 608 730 603 731 q 618 727 614 729 q 621 724 622 725 z "},"":{"ha":486,"x_min":29,"x_max":594,"o":"m 585 256 q 547 181 569 224 q 496 97 524 138 q 437 28 468 57 q 375 -3 406 0 q 339 3 358 -4 q 307 31 319 11 q 292 87 294 51 q 306 176 290 122 q 263 112 289 149 q 206 46 236 75 q 131 0 165 7 q 74 10 97 -7 q 40 65 50 28 q 36 153 29 103 q 70 265 43 204 q 150 388 97 325 q 224 451 181 425 q 313 489 268 478 q 401 492 358 500 q 472 451 443 483 q 481 422 488 436 q 457 411 475 408 q 412 458 446 450 q 339 446 378 467 q 242 365 292 419 q 154 247 192 310 q 142 225 150 240 q 124 190 133 210 q 108 148 115 169 q 97 107 100 126 q 102 54 92 71 q 131 38 113 38 q 175 53 150 38 q 225 99 200 69 q 291 192 261 143 q 349 293 321 242 q 391 361 372 338 q 443 382 410 385 q 472 377 457 381 q 501 376 486 374 q 472 335 490 365 q 433 267 453 306 q 396 189 413 229 q 372 117 379 149 q 386 33 356 33 q 435 60 408 32 q 487 126 461 88 q 533 205 513 165 q 565 267 554 244 q 585 281 575 285 q 585 256 594 276 m 569 638 q 557 605 569 618 q 525 592 544 592 q 492 604 506 592 q 478 638 478 617 q 490 670 478 657 q 522 683 503 683 q 556 671 542 683 q 569 638 569 658 m 390 638 q 378 605 390 618 q 346 592 365 592 q 313 604 326 592 q 299 638 299 617 q 311 670 299 657 q 343 683 324 683 q 376 671 363 683 q 390 638 390 658 z "}}}
